{"glyphs":{"0":{"ha":724,"x_min":107,"x_max":795,"o":"m 158 123 q 143 153 158 123 q 117 266 127 184 q 126 444 107 349 q 194 648 147 550 q 298 815 240 745 q 421 925 355 884 q 548 966 488 966 q 652 943 606 966 q 729 877 699 919 q 777 776 759 834 q 795 649 795 718 q 781 503 795 580 q 720 316 763 408 q 619 152 676 224 q 492 37 562 81 q 354 -7 422 -7 q 239 27 291 -7 q 158 123 188 62 m 313 229 q 317 163 313 194 q 328 106 321 132 q 349 65 336 80 q 379 50 362 50 q 428 74 402 50 q 477 142 453 99 q 523 247 501 185 q 562 379 545 309 q 588 532 578 449 q 597 696 597 614 q 597 729 597 713 q 595 772 597 744 q 589 821 593 800 q 577 864 585 842 q 558 898 570 886 q 532 909 547 909 q 483 884 508 909 q 433 815 457 859 q 387 708 408 772 q 349 570 365 644 q 323 408 332 496 q 313 229 313 319 z "},"1":{"ha":724,"x_min":178,"x_max":668,"o":"m 182 -5 q 182 20 178 1 q 191 39 186 39 q 246 49 209 39 q 288 69 283 58 q 312 155 304 105 l 404 625 q 415 686 412 667 q 420 726 418 705 q 417 754 422 747 q 402 762 412 762 q 310 721 391 762 q 299 736 303 725 q 295 755 295 747 q 301 768 295 762 q 650 966 554 904 l 653 966 q 664 947 659 966 q 665 912 668 927 q 653 884 661 903 q 625 800 645 865 q 591 661 606 735 l 507 203 q 492 69 491 112 q 529 49 493 58 q 580 39 566 39 q 580 12 583 39 q 577 2 578 6 q 575 -5 576 -2 q 337 3 436 3 q 288 2 312 3 q 232 -1 264 1 q 182 -5 200 -3 z "},"2":{"ha":724,"x_min":70,"x_max":766,"o":"m 71 33 q 242 204 136 92 q 410 391 349 316 q 553 705 553 567 q 520 802 553 765 q 427 839 487 839 q 367 826 397 839 q 314 795 337 814 q 280 764 292 776 q 260 742 268 751 q 242 752 251 742 q 232 772 233 762 q 256 807 237 785 q 305 857 274 829 q 371 909 336 884 q 452 950 407 933 q 538 966 496 966 q 620 951 579 966 q 693 907 660 935 q 746 835 726 879 q 766 738 766 791 q 751 647 766 691 q 707 561 736 603 q 643 484 677 519 q 562 406 610 449 q 479 335 524 373 q 401 269 435 298 q 337 216 366 241 q 292 179 307 192 q 277 165 276 165 l 536 165 q 587 174 564 165 q 624 198 609 182 q 647 229 638 213 q 664 265 656 244 q 686 279 669 279 q 712 268 698 279 q 682 198 701 242 q 645 116 662 153 q 612 42 629 79 q 593 0 595 5 l 81 0 q 73 10 77 0 q 71 33 70 20 z "},"3":{"ha":724,"x_min":89,"x_max":724,"o":"m 89 89 q 98 138 89 117 q 121 170 106 159 q 150 185 136 180 q 178 190 163 190 q 201 186 191 190 q 219 178 212 182 q 232 164 226 174 q 241 149 239 155 q 249 132 244 144 q 256 117 254 121 q 280 84 265 99 q 314 59 295 68 q 351 50 332 50 q 414 69 383 50 q 469 123 445 89 q 508 211 493 158 q 522 326 522 264 q 490 444 522 404 q 384 484 458 484 q 319 474 355 484 q 313 501 313 484 q 319 522 313 513 q 381 536 350 526 q 444 562 412 545 q 499 601 475 579 q 538 651 523 622 q 553 713 553 681 q 520 813 553 779 q 437 848 487 848 q 401 842 419 848 q 368 828 383 837 q 337 808 352 819 q 311 786 323 798 q 289 765 298 774 q 273 747 280 755 q 263 738 265 739 q 244 750 254 738 q 233 772 233 762 q 270 822 247 795 q 324 873 293 848 q 390 920 355 899 q 463 954 424 941 q 536 966 501 966 q 583 961 559 966 q 633 942 607 956 q 679 908 659 928 q 711 853 699 887 q 724 775 724 819 q 710 705 724 739 q 676 648 696 671 q 629 606 655 625 q 580 576 602 587 q 539 560 558 566 q 603 539 571 556 q 661 496 635 522 q 703 434 687 471 q 720 357 720 397 q 701 250 720 301 q 650 159 682 198 q 576 88 618 120 q 489 35 535 56 q 395 4 442 15 q 306 -7 349 -7 q 185 7 237 -7 q 102 43 133 22 q 93 63 98 50 q 89 89 89 77 z "},"4":{"ha":724,"x_min":74,"x_max":790,"o":"m 75 298 l 715 943 q 758 966 739 966 q 772 959 764 966 q 785 943 780 952 q 789 928 790 933 l 680 364 l 760 364 q 772 340 772 364 q 764 298 772 321 q 747 263 755 275 l 659 263 l 610 3 q 503 -7 557 -7 q 447 -4 473 -7 q 422 7 420 0 l 471 263 l 87 263 q 77 279 81 268 q 75 298 74 290 m 223 364 l 490 364 l 554 700 l 223 364 z "},"5":{"ha":724,"x_min":92,"x_max":734,"o":"m 92 89 q 101 138 92 117 q 124 170 110 159 q 153 185 138 180 q 180 190 167 190 q 199 188 191 190 q 214 183 208 186 q 225 174 220 180 q 235 164 231 169 q 242 153 239 160 q 249 141 246 146 q 254 129 251 136 q 259 117 257 121 q 300 70 273 90 q 354 50 326 50 q 417 69 386 50 q 472 123 448 89 q 511 211 496 158 q 526 326 526 264 q 485 454 526 409 q 366 498 444 498 q 309 493 344 498 q 253 480 275 487 q 235 501 250 482 q 339 956 293 731 q 487 957 433 956 q 613 961 541 957 q 720 972 685 965 q 727 965 724 970 q 733 956 731 960 q 734 950 734 952 q 720 907 734 937 q 689 852 705 876 q 664 813 674 827 q 369 798 596 798 q 359 754 367 790 q 342 668 352 718 q 326 590 332 618 q 398 617 353 608 q 465 627 444 627 q 536 616 500 627 q 605 585 572 606 q 663 534 637 564 q 703 463 688 505 q 718 372 718 420 q 692 244 718 305 q 623 138 666 182 q 526 60 580 93 q 416 9 473 26 q 309 -7 360 -7 q 188 7 239 -7 q 105 43 136 22 q 96 63 100 50 q 92 89 92 77 z "},"6":{"ha":724,"x_min":116,"x_max":785,"o":"m 116 268 q 163 487 116 376 q 307 703 211 599 q 363 759 333 732 q 430 814 394 787 q 507 866 467 842 q 590 910 547 890 q 681 945 633 930 q 775 966 728 960 q 783 949 781 962 q 783 930 785 937 q 550 783 644 871 q 396 566 456 694 q 312 200 312 383 q 332 84 312 125 q 382 43 351 43 q 441 74 412 43 q 489 150 469 104 q 520 248 508 195 q 532 343 532 300 q 453 485 532 485 q 418 480 427 485 q 411 503 411 486 q 432 526 411 512 q 486 552 454 541 q 545 563 519 563 q 680 503 631 563 q 728 343 728 444 q 699 206 728 271 q 621 94 670 140 q 507 19 572 47 q 370 -9 441 -9 q 280 11 325 -9 q 198 65 235 30 q 139 153 161 100 q 116 268 116 206 z "},"7":{"ha":724,"x_min":167,"x_max":857,"o":"m 169 20 q 388 326 224 85 q 694 792 551 566 l 370 792 q 332 784 351 792 q 301 765 314 776 q 275 734 288 753 q 253 701 261 715 q 235 665 245 687 q 232 661 233 663 q 227 659 231 660 q 217 656 223 657 q 207 657 212 656 q 197 660 201 658 q 190 664 193 661 q 185 669 187 666 q 217 738 195 692 q 256 824 238 784 q 292 902 274 863 q 316 958 309 941 l 720 959 q 771 961 741 959 q 822 964 800 962 q 846 965 844 965 q 852 943 857 965 q 849 934 851 939 q 843 924 846 929 q 835 910 840 918 q 824 893 829 901 q 811 873 819 886 q 796 850 803 861 l 247 -12 q 226 -15 241 -15 q 212 -14 220 -15 q 192 -9 203 -12 q 174 2 180 -5 q 169 20 167 9 z "},"8":{"ha":724,"x_min":101,"x_max":779,"o":"m 111 253 q 127 303 117 279 q 151 345 138 328 q 182 380 163 363 q 216 408 201 397 q 254 431 231 418 q 290 449 277 444 q 326 465 303 455 q 328 466 328 466 q 330 467 329 467 q 333 468 332 468 q 337 473 336 469 q 336 477 338 476 q 297 520 315 496 q 263 579 279 545 q 243 650 248 613 q 245 730 239 687 q 281 821 255 778 q 346 896 308 864 q 435 947 385 928 q 542 966 486 966 q 604 962 574 966 q 664 947 634 958 q 716 919 694 937 q 755 877 738 902 q 775 819 772 852 q 772 742 779 785 q 570 534 747 607 q 569 526 564 531 q 651 441 618 484 q 703 346 685 398 q 711 244 721 294 q 674 150 700 193 q 613 79 648 108 q 536 30 578 50 q 449 0 493 9 q 360 -9 405 -9 q 253 12 303 -9 q 167 67 202 33 q 117 151 132 102 q 111 253 101 199 m 310 227 q 319 94 298 142 q 389 47 341 47 q 472 87 437 47 q 516 180 508 127 q 393 424 536 304 q 391 426 391 425 q 389 427 390 426 q 389 427 389 427 q 382 429 385 429 q 378 426 381 429 q 310 227 327 342 m 425 765 q 438 688 425 724 q 470 627 451 652 q 518 576 490 602 q 520 575 519 576 q 523 574 522 574 q 524 574 524 574 q 532 578 528 574 q 601 781 601 674 q 598 825 601 804 q 588 867 595 846 q 565 902 581 889 q 528 916 550 916 q 456 872 487 916 q 425 765 425 829 z "},"9":{"ha":724,"x_min":125,"x_max":793,"o":"m 126 27 q 359 175 265 86 q 513 391 454 263 q 597 758 597 574 q 577 873 597 832 q 527 914 557 914 q 469 884 497 914 q 421 808 440 853 q 390 710 401 762 q 378 614 378 658 q 456 473 378 473 q 491 477 481 473 q 498 454 498 472 q 477 431 498 446 q 423 406 455 417 q 364 395 391 395 q 229 454 278 395 q 180 614 180 514 q 210 752 180 686 q 288 864 239 817 q 402 939 336 911 q 539 966 469 966 q 630 947 585 966 q 711 893 675 928 q 771 805 748 858 q 793 690 793 751 q 746 470 793 582 q 602 254 699 359 q 513 170 562 211 q 404 92 463 130 q 274 28 344 55 q 134 -9 203 1 q 126 8 128 -5 q 126 27 125 21 z "},"\u0000":{"ha":1389,"x_min":0,"x_max":0,"o":""},"\r":{"ha":1389,"x_min":0,"x_max":0,"o":""}," ":{"ha":332,"x_min":0,"x_max":0,"o":""},"!":{"ha":387,"x_min":26,"x_max":382,"o":"m 35 90 q 76 162 43 132 q 149 191 110 191 q 210 162 188 191 q 224 90 232 132 q 183 16 216 47 q 111 -16 150 -16 q 49 16 71 -16 q 35 90 26 48 m 149 319 q 170 611 153 410 q 197 865 187 813 q 238 939 206 911 q 309 966 270 966 q 348 955 331 966 q 374 919 366 943 q 376 864 382 895 q 311 642 371 835 q 214 333 252 448 q 191 299 206 311 q 158 286 175 286 q 149 319 149 286 z "},"\"":{"ha":503,"x_min":157,"x_max":549,"o":"m 158 673 q 164 765 163 720 q 163 840 165 810 q 160 903 162 869 q 158 958 158 938 q 196 1017 162 983 q 268 1051 231 1051 q 295 1048 286 1051 q 311 1035 304 1045 q 317 1006 317 1025 q 310 953 316 986 q 263 814 301 907 q 212 676 225 721 q 204 664 210 669 q 193 656 199 659 q 180 653 186 653 q 164 659 172 653 q 158 673 157 665 m 390 673 q 396 786 396 733 q 393 888 396 840 q 390 958 390 937 q 428 1017 394 983 q 500 1051 463 1051 q 527 1048 517 1051 q 543 1035 536 1045 q 549 1006 549 1025 q 542 953 548 986 q 517 870 535 917 q 477 770 499 823 q 444 676 456 717 q 431 659 441 665 q 412 653 422 653 q 396 659 404 653 q 390 673 389 665 z "},"#":{"ha":733,"x_min":48,"x_max":690,"o":"m 48 265 q 61 321 48 286 q 86 357 75 357 l 194 357 l 238 468 l 131 468 q 121 477 121 468 q 134 533 121 498 q 158 569 146 569 l 267 569 l 343 789 q 348 793 344 791 q 360 797 353 795 q 380 800 368 798 q 408 801 393 801 q 431 798 420 801 q 441 792 441 795 q 439 789 439 790 l 361 569 l 477 569 l 554 789 q 559 793 555 791 q 571 797 564 795 q 591 800 578 798 q 618 801 604 801 q 642 798 631 801 q 652 792 652 795 q 650 789 650 790 l 572 569 l 679 569 q 690 562 690 569 q 676 504 690 541 q 652 468 663 468 l 543 468 l 500 357 l 607 357 q 617 348 617 357 q 611 314 617 336 q 596 274 606 292 q 580 256 587 256 l 471 256 l 395 36 q 389 31 393 33 q 370 26 384 28 q 337 24 357 24 q 310 26 323 24 q 296 32 296 28 q 298 36 298 35 l 376 256 l 260 256 l 184 36 q 180 32 183 34 q 171 28 177 31 q 153 25 164 26 q 126 24 141 24 q 99 26 113 24 q 86 32 86 28 q 87 36 87 35 l 165 256 l 59 256 q 48 265 48 256 m 289 357 l 405 357 l 449 468 l 333 468 l 289 357 z "},"$":{"ha":741,"x_min":41,"x_max":707,"o":"m 42 22 q 199 -9 131 1 l 221 63 q 161 124 186 84 q 125 204 136 164 q 116 277 115 244 q 101 289 116 289 q 88 286 97 289 q 70 277 79 282 q 57 268 61 272 q 47 150 52 234 q 42 22 41 66 m 153 706 q 149 661 149 682 q 149 621 148 639 q 157 585 151 603 q 170 554 164 567 q 187 525 175 541 q 208 499 199 509 q 232 475 216 490 q 257 453 248 460 q 283 430 266 445 q 294 422 290 425 q 326 395 307 410 l 402 635 q 345 781 332 716 q 366 842 351 816 q 401 881 381 867 q 441 902 421 895 q 484 908 462 908 l 486 908 l 506 968 l 490 968 q 382 948 437 968 q 280 893 327 928 q 199 810 233 859 q 153 706 164 760 m 178 -75 l 199 -9 q 225 -11 208 -9 q 252 -14 242 -13 l 224 -98 q 205 -94 217 -98 q 184 -85 193 -91 q 178 -75 176 -80 m 221 63 l 326 395 q 368 357 366 358 l 269 47 q 221 63 241 52 m 252 -14 q 290 -15 265 -15 q 402 5 346 -15 q 507 59 459 24 q 590 144 555 93 q 635 253 625 195 q 642 316 642 286 q 638 368 642 346 q 623 412 634 390 q 602 449 611 435 q 574 481 593 463 q 545 509 555 500 q 513 535 534 518 q 495 549 501 545 q 443 595 463 576 l 368 357 q 447 185 462 265 q 424 120 440 149 q 386 76 408 92 q 340 53 364 60 q 289 45 315 45 q 269 47 275 45 l 252 -14 m 402 635 l 486 908 q 538 892 513 908 l 443 595 q 432 605 439 599 q 421 615 426 611 q 412 625 417 619 q 402 635 406 631 m 506 968 l 526 1029 q 544 1028 532 1031 q 566 1019 556 1025 q 574 1008 576 1014 l 559 962 q 506 968 542 965 m 538 892 q 588 839 567 876 q 616 763 608 802 q 622 690 623 724 q 659 679 622 679 q 676 688 667 679 q 707 928 691 787 q 640 944 693 930 q 559 962 587 958 l 538 892 z "},"%":{"ha":1054,"x_min":103,"x_max":983,"o":"m 107 661 q 125 769 103 713 q 184 868 147 825 q 271 939 222 911 q 369 966 321 966 q 433 959 405 966 q 486 936 461 952 q 524 889 510 920 q 542 816 538 859 q 523 709 546 764 q 462 611 500 653 q 374 541 424 568 q 275 513 323 513 q 158 552 205 513 q 107 661 111 591 m 165 7 q 169 16 165 11 l 842 968 q 844 967 842 968 q 851 965 846 966 q 861 961 856 963 q 871 957 865 960 q 880 951 876 954 q 887 945 884 948 q 890 938 890 941 q 888 930 890 932 l 217 -21 q 211 -20 215 -20 q 199 -16 208 -19 q 183 -10 190 -13 q 171 -2 177 -7 q 165 7 165 3 m 244 644 q 247 621 245 633 q 255 593 250 608 q 269 568 260 578 q 290 559 279 559 q 343 587 319 559 q 381 656 368 614 q 401 745 395 699 q 405 831 408 791 q 401 860 404 846 q 393 889 398 874 q 379 913 388 904 q 360 923 370 923 q 307 895 331 923 q 268 825 282 867 q 248 734 254 783 q 244 644 241 686 m 543 146 q 562 254 540 198 q 621 353 584 310 q 708 424 659 396 q 806 452 758 452 q 870 445 842 452 q 922 421 898 437 q 961 375 946 405 q 979 301 975 345 q 960 194 983 249 q 899 96 937 138 q 810 26 861 54 q 712 -1 760 -1 q 595 37 642 -1 q 543 146 548 76 m 680 130 q 684 106 681 119 q 691 78 686 93 q 706 53 696 63 q 727 43 715 43 q 771 62 751 43 q 805 110 791 81 q 828 176 819 140 q 840 249 837 212 q 842 316 844 285 q 837 345 840 330 q 829 374 834 359 q 815 399 824 389 q 796 408 807 408 q 743 380 768 408 q 705 310 719 352 q 684 219 691 267 q 680 130 677 172 z "},"&":{"ha":1217,"x_min":-15,"x_max":1211,"o":"m -15 148 q 35 289 -15 229 q 175 379 84 349 q 186 384 184 382 q 227 508 197 446 q 303 623 257 569 q 407 718 350 676 q 533 783 464 759 q 675 807 603 807 q 770 772 729 807 q 812 686 812 738 q 376 369 812 474 q 410 212 377 280 q 502 105 443 143 q 638 68 562 68 q 708 75 673 68 q 774 94 743 81 q 833 126 806 106 q 880 169 861 145 q 911 224 900 193 q 923 289 923 255 q 920 314 923 301 q 913 338 918 328 q 905 352 909 348 q 891 347 901 351 q 857 335 869 339 q 825 321 846 330 q 794 306 805 313 q 768 290 783 300 q 746 271 753 280 q 732 250 738 262 q 727 224 727 237 q 730 182 727 212 q 714 185 726 180 q 694 197 703 190 q 691 202 694 197 q 687 209 688 206 q 682 219 685 212 q 677 231 679 225 q 674 246 675 237 q 673 265 673 255 q 675 297 673 282 q 681 323 677 311 q 691 347 684 335 q 703 366 698 358 q 721 385 709 374 q 742 402 734 395 q 768 420 750 409 q 797 437 785 431 q 830 457 808 444 q 867 479 852 470 q 912 507 893 494 q 957 539 932 519 q 1001 579 983 559 q 1038 625 1019 598 q 1069 680 1057 652 q 1088 745 1081 708 q 1096 822 1096 782 q 1134 813 1112 824 q 1187 745 1164 791 q 1211 649 1211 699 q 1006 391 1211 491 q 1018 334 1018 364 q 994 220 1018 275 q 929 125 970 166 q 834 54 888 84 q 718 8 780 24 q 591 -7 655 -7 q 494 2 543 -7 q 400 30 446 12 q 315 76 354 47 q 246 140 275 104 q 199 222 216 175 q 182 321 182 269 q 104 285 130 304 q 78 233 78 265 q 85 205 78 216 q 110 178 93 194 q 140 119 140 150 q 117 60 140 83 q 59 38 94 38 q 11 45 36 38 q -8 95 -2 66 q -15 148 -15 124 m 379 438 q 442 464 414 450 q 499 497 471 477 q 546 539 527 517 q 577 593 565 562 q 589 658 589 623 q 572 708 589 689 q 533 727 555 727 q 474 702 501 727 q 428 636 447 677 q 396 544 409 595 q 379 438 384 493 z "},"'":{"ha":271,"x_min":157,"x_max":317,"o":"m 158 673 q 164 765 163 720 q 163 840 165 810 q 160 903 162 869 q 158 958 158 938 q 196 1017 162 983 q 268 1051 231 1051 q 295 1048 286 1051 q 311 1035 304 1045 q 317 1006 317 1025 q 310 953 316 986 q 263 814 301 907 q 212 676 225 721 q 204 664 210 669 q 193 656 199 659 q 180 653 186 653 q 164 659 172 653 q 158 673 157 665 z "},"(":{"ha":416,"x_min":51,"x_max":501,"o":"m 59 267 q 63 449 51 359 q 100 614 75 540 q 165 759 126 688 q 244 883 203 829 q 331 987 284 937 q 414 1068 378 1036 q 486 1126 450 1100 q 497 1118 493 1124 q 500 1107 501 1112 q 444 1045 474 1082 q 378 956 414 1008 q 310 844 343 903 q 248 712 277 785 q 198 566 218 640 q 168 409 177 492 q 165 247 159 326 q 219 -3 178 93 q 330 -164 259 -99 q 321 -182 330 -179 q 255 -148 288 -172 q 189 -84 222 -124 q 130 5 157 -45 q 84 123 104 56 q 59 267 65 191 z "},")":{"ha":414,"x_min":-58,"x_max":391,"o":"m -57 -163 q -1 -102 -32 -138 q 64 -12 29 -65 q 132 100 99 41 q 195 232 165 159 q 245 378 224 304 q 275 535 266 452 q 277 697 284 618 q 224 947 264 850 q 113 1108 184 1043 q 122 1126 113 1123 q 169 1105 145 1119 q 216 1068 192 1090 q 261 1018 239 1046 q 303 953 283 989 q 339 875 323 916 q 367 783 355 833 q 382 677 378 732 q 378 495 391 585 q 341 330 366 404 q 277 185 315 256 q 198 61 238 115 q 111 -43 158 7 q 28 -124 64 -92 q -43 -182 -8 -156 q -54 -174 -50 -180 q -57 -163 -58 -168 z "},"*":{"ha":640,"x_min":110,"x_max":628,"o":"m 110 690 q 111 702 110 695 q 116 718 113 709 q 126 734 119 726 q 143 750 133 743 q 168 761 153 757 q 203 765 184 765 q 269 759 227 765 q 323 753 311 753 q 352 756 347 753 q 357 768 357 759 q 344 799 357 780 q 317 837 332 819 q 289 880 302 855 q 277 928 277 905 q 296 979 277 956 q 343 1001 315 1001 q 364 997 355 1001 q 378 984 373 994 q 387 967 384 975 q 391 943 390 958 q 393 917 393 927 q 393 888 393 907 q 393 885 393 886 q 393 883 393 884 q 393 879 393 881 q 392 865 393 879 q 392 839 392 852 q 393 811 392 826 q 397 786 393 795 q 406 777 401 777 q 424 787 414 777 q 444 812 433 797 q 466 847 454 828 q 492 886 478 867 q 520 921 506 905 q 552 946 535 937 q 587 956 570 956 q 607 951 598 956 q 622 935 616 947 q 628 906 628 924 q 608 858 628 880 q 558 821 587 836 q 500 793 529 806 q 451 767 471 781 q 431 741 431 753 q 449 724 431 730 q 495 713 468 718 q 548 703 522 709 q 594 680 575 696 q 613 638 613 664 q 602 605 613 621 q 576 578 591 588 q 545 569 560 569 q 509 582 527 569 q 477 614 491 595 q 450 651 463 632 q 425 683 437 669 q 402 696 412 696 q 384 669 387 696 q 377 594 380 643 q 363 511 374 545 q 344 476 357 489 q 320 458 332 463 q 296 453 309 453 q 263 468 279 453 q 248 503 248 484 q 264 553 248 523 q 299 609 280 583 q 335 660 319 634 q 351 699 351 686 q 348 708 351 705 q 339 711 346 711 q 293 694 326 711 q 221 661 260 677 q 158 644 182 644 q 135 650 146 644 q 117 667 123 656 q 110 690 110 677 z "},"+":{"ha":703,"x_min":35,"x_max":650,"o":"m 35 333 q 57 397 35 368 l 309 397 l 358 655 q 389 673 360 667 q 432 679 417 679 q 444 675 441 679 q 446 667 447 672 l 393 397 l 646 397 q 650 385 650 397 q 631 321 650 342 l 381 321 l 328 59 q 305 41 326 48 q 263 35 284 35 q 247 38 253 35 q 242 47 241 42 l 296 321 l 42 321 q 35 333 35 321 z "},",":{"ha":322,"x_min":-45,"x_max":193,"o":"m -45 -155 q -29 -143 -39 -152 q -1 -119 -18 -135 q 31 -84 16 -102 q 56 -44 45 -66 q 66 0 66 -21 q 61 22 66 12 q 48 38 56 31 q 32 53 40 45 q 19 74 24 61 q 14 102 14 86 q 52 174 14 145 q 140 203 90 203 q 168 198 153 203 q 189 185 182 192 q 193 152 193 174 q 181 69 193 115 q 149 -15 170 23 q 79 -110 115 -75 q -21 -185 42 -145 q -38 -175 -31 -183 q -45 -155 -45 -166 z "},"-":{"ha":549,"x_min":73,"x_max":459,"o":"m 73 313 q 85 365 73 329 q 109 402 97 401 l 450 420 q 459 402 459 420 q 445 347 459 385 q 420 307 431 308 l 80 290 q 73 313 73 290 z "},".":{"ha":326,"x_min":3,"x_max":208,"o":"m 11 90 q 52 162 18 132 q 125 191 85 191 q 186 162 163 191 q 200 90 208 132 q 159 16 192 47 q 87 -16 126 -16 q 25 16 47 -16 q 11 90 3 48 z "},"/":{"ha":608,"x_min":-36,"x_max":702,"o":"m -36 -42 l 604 1113 q 637 1134 610 1122 q 684 1145 664 1145 q 702 1137 696 1145 l 63 -18 q 32 -38 59 -26 q -18 -51 5 -51 q -28 -48 -22 -51 q -36 -42 -35 -45 z "},":":{"ha":364,"x_min":19,"x_max":314,"o":"m 27 90 q 68 162 35 132 q 142 191 102 191 q 202 162 180 191 q 217 90 224 132 q 176 16 209 47 q 104 -16 142 -16 q 41 16 64 -16 q 27 90 19 48 m 119 566 q 160 637 127 608 q 233 667 194 667 q 278 653 258 667 q 306 617 297 640 q 309 566 314 593 q 268 491 300 524 q 196 459 235 459 q 134 491 156 459 q 119 566 111 524 z "},";":{"ha":358,"x_min":-27,"x_max":312,"o":"m -27 -155 q -4 -137 -19 -150 q 33 -103 11 -125 q 69 -54 54 -81 q 84 0 84 -26 q 80 19 84 10 q 71 33 77 27 q 58 46 65 39 q 45 60 51 53 q 36 78 39 66 q 32 102 32 89 q 70 174 32 145 q 158 203 108 203 q 186 198 172 203 q 206 185 201 192 q 211 152 211 174 q 199 69 211 115 q 167 -15 188 23 q 97 -110 134 -75 q -3 -185 60 -145 q -20 -175 -13 -183 q -27 -155 -27 -166 m 115 566 q 156 637 122 608 q 229 667 189 667 q 290 637 267 667 q 304 566 312 608 q 282 514 299 538 q 241 474 266 490 q 191 459 217 459 q 129 491 151 459 q 115 566 106 524 z "},"<":{"ha":700,"x_min":22,"x_max":653,"o":"m 30 327 q 62 363 34 349 l 640 644 q 648 648 646 648 q 650 645 649 648 q 652 635 651 642 q 653 615 653 628 q 653 581 653 602 q 652 564 653 572 q 649 552 650 556 l 648 548 l 157 315 l 557 77 l 559 68 q 541 17 557 57 q 519 -22 526 -22 l 513 -20 l 43 267 q 30 327 22 281 z "},"=":{"ha":816,"x_min":75,"x_max":732,"o":"m 75 259 q 98 323 75 294 l 686 323 q 691 312 691 323 q 671 247 691 269 l 83 247 q 75 259 75 247 m 116 470 q 138 534 116 505 l 727 534 q 732 522 732 534 q 712 458 732 479 l 123 458 q 116 470 116 458 z "},">":{"ha":703,"x_min":12,"x_max":648,"o":"m 20 -22 q 13 19 14 -22 q 14 68 12 60 q 16 73 14 71 q 18 76 17 75 l 20 77 l 513 315 l 113 548 q 112 550 113 549 q 111 554 111 551 q 111 562 110 557 q 152 648 144 648 q 158 644 152 648 l 627 363 q 644 327 648 349 q 607 267 636 281 l 27 -20 q 20 -22 21 -22 z "},"?":{"ha":564,"x_min":52,"x_max":562,"o":"m 60 90 q 101 162 68 132 q 175 191 135 191 q 235 162 213 191 q 250 90 258 132 q 209 16 242 47 q 137 -16 176 -16 q 75 16 97 -16 q 60 90 52 48 m 117 454 q 124 500 117 478 q 140 535 132 522 q 164 565 148 549 q 190 587 181 581 q 217 606 199 593 q 239 621 236 618 q 275 642 252 629 q 319 664 298 654 q 364 689 340 674 q 405 718 388 704 q 440 758 429 739 q 452 804 452 777 q 446 835 452 822 q 427 856 439 848 q 396 863 414 863 q 362 851 381 863 q 327 824 342 839 q 293 798 312 810 q 259 786 274 786 q 223 794 239 786 q 200 815 208 802 q 188 846 191 829 q 185 881 184 863 q 194 917 187 900 q 319 972 239 972 q 410 954 365 972 q 488 905 454 935 q 541 834 521 874 q 562 753 562 793 q 556 693 562 719 q 538 641 551 668 q 497 589 524 614 q 429 538 471 564 q 379 511 421 532 q 315 474 338 490 q 256 402 256 437 q 267 364 256 382 q 288 337 279 345 q 307 323 297 330 q 300 307 307 317 q 288 294 294 297 q 256 302 277 294 q 212 326 236 311 q 167 361 189 342 q 132 406 146 380 q 117 454 117 431 z "},"@":{"ha":1171,"x_min":45,"x_max":1122,"o":"m 45 197 q 74 379 45 290 q 153 542 103 469 q 269 679 202 616 q 411 785 336 742 q 568 852 486 828 q 727 876 650 876 q 875 853 808 876 q 986 792 941 831 q 1063 701 1031 753 q 1108 592 1094 649 q 1122 473 1122 534 q 1105 341 1122 404 q 1060 228 1088 277 q 996 137 1032 179 q 921 65 960 95 q 843 15 882 36 q 771 -16 804 -5 q 713 -26 738 -26 q 630 3 659 -26 q 601 87 601 32 q 604 116 601 95 q 610 144 605 125 q 574 96 597 122 q 522 46 551 71 q 457 5 493 22 q 390 -11 422 -11 q 295 41 329 -11 q 260 173 260 93 q 281 304 260 239 q 338 424 302 369 q 420 526 373 478 q 518 606 467 573 q 622 657 569 639 q 723 676 675 676 q 809 667 760 676 q 884 649 857 658 l 791 199 q 786 118 778 144 q 825 92 793 92 q 873 109 846 92 q 928 159 900 126 q 981 235 957 192 q 1020 335 1005 277 q 1036 452 1036 392 q 1024 570 1036 515 q 986 669 1013 624 q 922 746 960 715 q 827 795 883 778 q 700 813 770 813 q 602 799 655 813 q 494 757 549 785 q 385 691 439 730 q 284 601 332 653 q 201 491 237 549 q 144 360 165 432 q 123 214 123 289 q 154 34 123 115 q 259 -115 184 -46 q 323 -157 282 -136 q 311 -164 319 -160 q 292 -170 302 -168 q 273 -172 282 -172 q 232 -161 260 -172 q 182 -132 203 -151 q 45 197 45 -14 m 450 229 q 465 149 450 176 q 505 122 479 122 q 561 166 529 122 q 619 280 592 210 q 661 423 646 349 l 691 575 q 638 593 675 593 q 545 539 589 593 q 475 401 500 486 q 450 229 450 317 z "},"A":{"ha":933,"x_min":-94,"x_max":880,"o":"m -94 17 q -84 48 -91 36 q -29 64 -68 48 q 22 96 10 80 q 92 201 50 133 l 534 939 q 565 977 545 956 q 596 997 586 997 q 613 993 605 997 q 623 986 622 989 l 764 223 q 773 163 768 197 q 781 115 779 128 q 795 84 785 97 q 818 65 806 71 q 844 55 829 58 q 866 50 859 51 q 879 50 873 50 q 880 38 880 45 q 879 19 880 30 q 870 -6 875 -1 q 789 0 857 -5 q 685 6 721 6 q 617 4 656 6 q 531 -2 577 1 q 471 -6 485 -5 q 472 24 467 -1 q 484 50 477 50 q 529 57 503 50 q 570 77 555 64 q 589 104 589 90 q 580 165 589 115 q 559 277 570 222 l 548 331 q 541 337 545 337 q 406 339 514 339 q 260 337 310 339 q 253 335 257 337 q 248 330 250 332 q 173 203 197 245 q 140 141 156 173 q 123 101 125 109 q 134 77 121 87 q 166 60 146 66 q 200 52 185 55 q 221 50 215 50 q 222 32 224 43 q 217 9 221 20 q 211 -6 214 -3 q 62 6 115 6 q 31 5 46 6 q 5 4 15 5 q -21 2 -5 4 q -44 0 -38 1 q -68 -3 -50 -1 q -92 -6 -87 -5 q -94 5 -94 -3 q -94 17 -94 10 m 296 422 q 300 416 296 416 q 414 411 340 411 q 527 414 484 411 q 530 416 528 414 q 532 420 531 418 l 533 422 l 474 717 l 296 422 z "},"B":{"ha":886,"x_min":-14,"x_max":838,"o":"m -12 -5 q -14 5 -14 -1 q -12 23 -14 13 q -1 51 -8 43 q 94 77 83 58 q 112 128 104 97 q 131 218 120 159 l 239 772 q 244 798 241 780 q 249 824 248 817 q 253 845 250 831 q 256 866 255 859 q 257 883 256 873 q 258 900 258 893 q 256 914 257 907 q 253 920 256 917 q 246 925 250 922 q 237 929 241 927 q 225 931 232 930 q 212 933 218 932 q 199 935 207 935 q 188 937 192 936 q 178 938 184 937 q 170 938 172 938 q 170 955 168 944 q 175 978 171 966 q 182 994 178 989 q 381 989 244 989 q 480 991 408 989 q 596 994 553 994 q 674 986 637 994 q 745 960 711 978 q 802 915 780 943 q 833 848 823 887 q 838 806 838 829 q 833 755 838 783 q 807 690 826 722 q 767 636 789 658 q 719 595 745 614 q 675 566 694 576 q 642 551 656 556 q 632 542 632 546 q 680 528 654 539 q 732 494 705 516 q 779 444 759 472 q 808 374 799 415 q 813 332 813 353 q 808 289 813 311 q 742 152 794 216 q 614 45 690 88 q 543 15 581 26 q 468 0 504 3 q 391 -5 431 -3 q 351 -5 370 -5 q 313 -5 332 -5 l -12 -5 m 312 77 q 396 59 320 59 q 449 70 422 59 q 503 103 475 81 q 552 168 530 126 q 584 265 574 210 q 593 333 591 300 q 593 341 593 337 q 586 396 593 369 q 564 450 579 427 q 521 486 549 473 q 454 500 493 500 l 382 500 l 317 164 q 310 94 310 117 q 312 77 310 82 m 395 559 l 467 559 q 562 605 520 559 q 621 733 604 650 q 630 820 630 783 q 543 933 630 933 q 495 930 514 933 q 470 916 477 926 q 464 904 467 910 q 459 887 462 897 q 455 870 456 877 q 450 847 454 864 q 446 823 447 831 l 395 559 z "},"C":{"ha":972,"x_min":78,"x_max":960,"o":"m 78 416 q 103 589 78 507 q 172 735 128 672 q 273 850 215 799 q 396 935 330 902 q 531 986 462 968 q 667 1004 600 1004 q 960 960 768 1004 q 952 853 960 948 q 941 744 943 758 q 930 730 940 736 q 908 723 920 723 q 890 728 895 723 q 886 759 889 743 q 876 796 883 775 q 857 837 868 817 q 828 875 846 856 q 788 908 810 894 q 735 931 766 922 q 667 939 703 939 q 553 914 608 939 q 451 841 497 889 q 369 729 404 793 q 315 581 334 665 q 295 404 295 496 q 299 340 295 372 q 311 274 302 309 q 333 208 320 239 q 367 149 346 177 q 413 100 387 121 q 473 68 438 80 q 549 56 509 56 q 648 73 601 56 q 730 121 694 91 q 794 191 762 146 q 843 266 827 236 q 864 307 860 296 q 911 289 895 307 q 865 169 907 271 q 808 60 823 68 q 672 6 743 24 q 507 -11 602 -11 q 351 14 422 -11 q 229 81 279 39 q 145 179 180 123 q 94 294 111 234 q 78 416 78 354 z "},"D":{"ha":1084,"x_min":-14,"x_max":1044,"o":"m -12 -5 q -14 5 -14 -1 q -12 23 -14 13 q -1 51 -8 43 q 94 77 83 58 q 112 128 104 97 q 131 218 120 159 l 239 772 q 244 798 241 780 q 249 824 248 817 q 253 845 250 831 q 256 866 255 859 q 257 883 256 873 q 258 900 258 893 q 256 914 257 907 q 253 920 256 917 q 246 925 250 922 q 237 929 241 927 q 225 931 232 930 q 212 933 218 932 q 199 935 207 935 q 188 937 192 936 q 178 938 184 937 q 170 938 172 938 q 170 955 168 944 q 175 978 171 966 q 182 994 178 989 q 381 989 244 989 q 492 991 414 989 q 596 994 569 993 q 772 969 692 994 q 907 901 851 945 q 998 792 963 856 q 1042 650 1034 728 q 1044 597 1044 624 q 1033 477 1044 541 q 969 292 1013 374 q 865 155 925 210 q 728 64 805 100 q 568 12 651 28 q 391 -5 485 -5 l -12 -5 m 314 129 q 314 123 314 129 q 313 109 313 118 q 315 94 313 100 q 324 79 316 85 q 343 68 332 73 q 369 61 355 64 q 396 59 382 59 q 668 157 569 59 q 810 473 768 254 q 825 613 825 549 q 822 669 825 642 q 776 813 812 754 q 681 903 740 872 q 543 933 621 933 q 495 930 514 933 q 470 916 477 926 q 464 904 467 910 q 459 887 462 897 q 455 870 456 877 q 450 847 454 864 q 446 823 447 831 l 327 212 q 326 205 327 212 q 323 190 324 198 q 319 171 321 182 q 316 150 317 161 q 314 129 315 139 z "},"E":{"ha":861,"x_min":-14,"x_max":839,"o":"m -12 -5 q -14 5 -14 -1 q -12 23 -14 13 q -1 51 -8 43 q 94 77 83 58 q 112 128 104 97 q 131 218 120 159 l 239 772 q 244 798 241 780 q 249 824 248 817 q 253 845 250 831 q 256 866 255 859 q 257 883 256 873 q 258 900 258 893 q 256 914 257 907 q 253 920 256 917 q 246 925 250 922 q 237 929 241 927 q 225 931 232 930 q 212 933 218 932 q 199 935 207 935 q 188 937 192 936 q 178 938 184 937 q 170 938 172 938 q 170 955 168 944 q 175 978 171 966 q 182 994 178 989 q 381 989 244 989 q 502 991 406 989 q 702 996 597 994 q 839 1000 808 999 q 836 777 836 949 q 821 771 832 774 q 801 769 810 769 q 781 781 784 769 q 771 829 777 809 q 757 870 766 850 q 735 904 748 891 q 704 925 723 917 q 659 933 684 933 l 543 933 q 495 930 514 933 q 470 916 477 926 q 464 904 467 910 q 459 887 462 897 q 455 870 456 877 q 450 847 454 864 q 446 823 447 831 l 393 554 q 400 546 392 549 q 422 540 408 542 q 450 538 435 538 l 524 538 q 591 546 567 538 q 631 576 614 555 q 669 643 648 597 q 686 655 673 655 q 712 648 707 655 l 656 358 q 629 352 650 352 q 613 364 613 352 q 608 408 612 390 q 600 435 605 426 q 591 449 595 445 q 581 456 587 454 q 477 467 560 467 q 372 446 376 467 l 327 212 q 326 205 327 212 q 323 190 324 198 q 319 171 321 182 q 316 150 317 161 q 314 129 315 139 q 313 109 313 118 q 315 94 313 100 q 331 76 317 83 q 362 66 345 69 q 399 63 380 63 l 492 63 q 632 113 576 63 q 667 150 650 128 q 699 195 684 171 q 734 256 715 220 q 758 265 739 265 q 781 262 768 265 q 796 256 794 259 q 771 207 793 250 q 740 146 748 163 q 714 96 731 130 q 688 39 698 62 q 671 -3 678 16 l 180 -3 q 95 -3 138 -3 q 22 -4 51 -4 q -12 -5 -7 -5 z "},"F":{"ha":790,"x_min":-15,"x_max":839,"o":"m -14 -6 q -15 3 -15 -3 q -12 22 -15 11 q -1 50 -8 42 q 94 77 83 57 q 112 128 104 97 q 131 218 120 159 l 239 772 q 244 798 241 780 q 249 824 248 817 q 253 845 250 831 q 256 866 255 859 q 257 883 256 873 q 258 900 258 893 q 256 914 257 907 q 253 920 256 917 q 246 925 250 922 q 237 929 241 927 q 225 931 232 930 q 212 933 218 932 q 199 935 207 935 q 188 937 192 936 q 178 938 184 937 q 170 938 172 938 q 170 955 168 944 q 175 978 171 966 q 182 994 178 989 q 381 989 244 989 q 502 991 406 989 q 702 996 597 994 q 839 1000 808 999 q 836 777 836 949 q 821 771 832 774 q 801 769 810 769 q 781 781 784 769 q 771 829 777 809 q 757 870 766 850 q 735 904 748 891 q 704 925 723 917 q 659 933 684 933 l 543 933 q 495 930 514 933 q 470 916 477 926 q 464 904 467 910 q 459 887 462 897 q 455 870 456 877 q 450 847 454 864 q 446 823 447 831 l 391 548 q 408 536 391 541 q 449 532 426 532 l 522 532 q 589 540 565 532 q 629 570 612 549 q 667 637 646 591 q 685 649 672 649 q 711 642 705 649 l 655 352 q 628 347 649 347 q 611 358 611 347 q 604 413 610 392 q 593 440 598 433 q 580 450 587 446 q 476 460 559 460 q 370 439 374 460 l 328 218 q 323 192 327 210 q 319 166 320 174 q 315 145 317 159 q 312 124 313 132 q 310 107 311 117 q 310 90 309 97 q 312 77 311 83 q 408 50 315 58 q 408 21 412 42 q 397 -6 404 1 q 186 5 305 5 q -14 -6 84 5 z "},"G":{"ha":1021,"x_min":78,"x_max":998,"o":"m 78 416 q 103 589 78 507 q 172 735 128 672 q 273 850 215 799 q 396 935 330 902 q 531 986 462 968 q 667 1004 600 1004 q 960 960 768 1004 q 952 853 960 948 q 941 744 943 758 q 930 730 940 736 q 908 723 920 723 q 890 728 895 723 q 886 759 889 743 q 875 796 882 775 q 857 837 867 817 q 828 875 846 856 q 788 908 810 894 q 734 931 766 922 q 667 939 703 939 q 553 914 608 939 q 451 841 497 889 q 369 729 404 793 q 315 581 334 665 q 295 404 295 496 q 299 340 295 372 q 311 274 302 309 q 333 208 320 239 q 367 149 346 177 q 413 100 387 121 q 473 68 438 80 q 549 56 509 56 q 635 75 608 56 q 650 101 646 83 q 658 142 652 111 q 672 220 664 174 q 686 295 681 267 q 691 321 690 314 q 694 344 692 328 q 694 372 696 360 q 682 394 693 385 q 653 407 670 403 q 624 411 635 410 q 602 412 612 412 q 600 417 600 412 q 600 430 599 422 q 603 445 601 437 q 608 459 605 453 q 613 468 610 466 q 681 465 635 467 q 764 460 727 462 q 833 459 801 459 q 886 461 859 459 q 946 465 913 463 q 998 468 979 467 q 998 463 998 466 q 998 452 998 458 q 994 433 996 441 q 990 418 992 425 q 986 412 988 412 q 952 406 977 412 q 916 393 928 400 q 905 380 911 390 q 895 356 900 370 q 887 328 890 342 q 852 148 858 174 q 851 123 850 140 q 852 104 852 106 q 841 86 850 96 q 819 67 831 75 q 796 54 807 59 q 664 5 730 22 q 507 -11 598 -11 q 351 14 422 -11 q 229 81 279 39 q 145 179 180 123 q 94 294 111 234 q 78 416 78 354 z "},"H":{"ha":1064,"x_min":-15,"x_max":1114,"o":"m -14 -6 q -15 3 -15 -3 q -12 22 -15 11 q -1 50 -8 42 q 94 77 83 57 q 112 128 104 97 q 131 218 120 159 l 239 772 q 244 798 241 780 q 249 824 248 817 q 253 845 250 831 q 256 866 255 859 q 257 883 256 873 q 258 900 258 893 q 256 914 257 907 q 172 941 253 935 q 170 953 170 945 q 173 969 171 961 q 177 986 174 978 q 182 997 180 994 q 381 986 275 986 q 580 997 482 986 q 579 969 583 989 q 569 941 576 949 q 474 914 485 934 q 435 772 455 879 l 395 559 l 396 554 q 446 552 413 553 q 508 550 479 551 q 564 549 536 549 q 728 554 575 549 q 733 560 733 557 l 772 772 q 777 798 774 780 q 782 824 781 817 q 786 845 783 831 q 789 866 788 859 q 790 883 789 873 q 790 900 791 893 q 789 914 790 907 q 705 941 786 935 q 705 969 701 949 q 715 997 709 989 q 914 986 807 986 q 1113 997 1015 986 q 1114 985 1114 992 q 1114 981 1114 983 q 1110 958 1114 970 q 1102 941 1106 946 q 1007 914 1018 934 q 968 772 988 879 l 861 218 q 856 192 860 210 q 851 166 852 174 q 848 145 850 159 q 845 124 846 132 q 843 107 844 117 q 843 90 842 97 q 844 77 844 83 q 929 50 848 56 q 928 21 932 42 q 918 -6 924 1 q 720 5 826 5 q 521 -6 618 5 q 521 21 517 1 q 532 50 525 42 q 627 77 616 57 q 665 218 646 112 l 713 467 l 712 474 q 549 477 610 477 q 378 471 387 477 l 375 465 l 328 218 q 323 192 327 210 q 319 166 320 174 q 315 145 317 159 q 312 124 313 132 q 310 107 311 117 q 310 90 309 97 q 312 77 311 83 q 396 50 315 56 q 395 21 399 42 q 385 -6 391 1 q 186 5 293 5 q -14 -6 84 5 z "},"I":{"ha":531,"x_min":-15,"x_max":581,"o":"m -14 -6 q -15 3 -15 -3 q -12 22 -15 11 q -1 50 -8 42 q 94 77 83 57 q 112 128 104 97 q 131 218 120 159 l 239 772 q 244 798 241 780 q 249 824 248 817 q 253 845 250 831 q 256 866 255 859 q 257 883 256 873 q 258 900 258 893 q 256 914 257 907 q 172 941 253 935 q 170 953 170 945 q 173 969 171 961 q 177 986 174 978 q 182 997 180 994 q 381 986 275 986 q 580 997 482 986 q 581 987 581 994 q 579 969 581 979 q 569 941 575 949 q 474 914 485 934 q 435 772 455 879 l 328 218 q 323 192 327 210 q 319 166 320 174 q 315 145 317 159 q 312 124 313 132 q 310 107 311 117 q 310 90 309 97 q 312 77 311 83 q 396 50 315 56 q 395 21 399 42 q 385 -6 391 1 q 186 5 293 5 q -14 -6 84 5 z "},"J":{"ha":505,"x_min":-164,"x_max":572,"o":"m -164 -301 q -161 -292 -164 -295 q 17 -111 -48 -231 q 121 203 83 9 l 231 772 q 235 798 232 780 q 240 824 239 817 q 244 845 241 831 q 247 866 246 859 q 248 883 248 873 q 249 900 249 893 q 247 914 248 907 q 163 941 243 935 q 162 958 161 947 q 166 981 163 969 q 173 997 170 992 q 372 986 265 986 q 570 997 473 986 q 572 985 572 993 q 571 969 572 979 q 560 941 567 949 q 465 914 476 934 q 426 772 446 879 l 317 215 q 276 79 304 144 q 212 -38 248 13 q 135 -134 177 -89 q 52 -211 92 -179 q -28 -269 12 -243 q -97 -308 -68 -294 q -148 -328 -127 -321 q -155 -321 -151 -326 q -161 -310 -159 -316 q -164 -301 -164 -304 z "},"K":{"ha":1036,"x_min":-15,"x_max":1095,"o":"m -14 -6 q -15 3 -15 -3 q -12 22 -15 11 q -1 50 -8 42 q 94 77 83 57 q 112 128 104 97 q 131 218 120 159 l 239 772 q 244 798 241 780 q 249 824 248 817 q 253 845 250 831 q 256 866 255 859 q 257 883 256 873 q 258 900 258 893 q 256 914 257 907 q 172 941 253 935 q 170 953 170 945 q 173 969 171 961 q 177 986 174 978 q 182 997 180 994 q 381 986 275 986 q 580 997 482 986 q 579 969 583 989 q 569 941 576 949 q 474 914 485 934 q 435 772 455 879 l 384 507 q 555 644 495 589 q 609 692 574 661 q 659 736 645 724 q 696 771 672 749 q 739 814 720 794 q 780 858 758 833 q 804 908 800 880 q 802 921 806 916 q 792 931 799 927 q 778 937 785 935 q 760 941 770 939 q 744 942 751 942 q 732 943 738 943 q 731 969 728 951 q 739 997 734 986 q 794 993 755 996 q 865 988 833 990 q 920 986 897 986 q 1095 997 1002 986 q 1095 991 1095 994 q 1092 968 1095 982 q 1082 944 1088 949 q 1057 940 1069 943 q 1015 931 1044 938 q 959 910 987 924 q 911 878 931 897 q 572 566 700 685 q 564 542 558 552 q 635 433 601 484 q 715 315 669 381 q 785 212 760 249 q 822 161 803 184 q 856 121 841 138 q 888 92 871 104 q 916 71 904 79 q 940 57 927 63 q 960 49 954 52 q 976 45 967 46 q 987 43 985 43 q 994 43 989 43 q 992 19 996 37 q 986 -3 989 2 q 958 -6 973 -4 q 928 -8 942 -7 q 888 -9 914 -9 q 764 6 814 -9 q 677 51 713 20 q 604 138 642 82 q 575 182 594 153 q 533 248 557 211 q 488 320 510 284 q 441 394 465 355 q 402 454 416 433 q 389 460 398 460 q 374 452 380 460 l 328 218 q 323 192 327 210 q 319 166 320 174 q 315 145 317 159 q 312 124 313 132 q 310 107 311 117 q 310 90 309 97 q 312 77 311 83 q 396 50 315 56 q 395 21 399 42 q 385 -6 391 1 q 186 5 293 5 q -14 -6 84 5 z "},"L":{"ha":823,"x_min":-14,"x_max":796,"o":"m -12 -5 q -14 5 -14 -1 q -12 23 -14 13 q -1 51 -8 43 q 94 77 83 58 q 112 128 104 97 q 131 218 120 159 l 239 772 q 244 798 241 780 q 249 824 248 817 q 253 845 250 831 q 256 866 255 859 q 257 883 256 873 q 258 900 258 893 q 256 914 257 907 q 172 941 253 935 q 170 953 170 945 q 173 969 171 961 q 177 986 174 978 q 182 997 180 994 q 381 986 275 986 q 580 997 482 986 q 579 969 583 989 q 569 941 576 949 q 474 914 485 934 q 435 772 455 879 l 327 212 q 326 205 327 212 q 323 190 324 198 q 319 171 321 182 q 316 150 317 161 q 314 129 315 139 q 313 109 313 118 q 315 94 313 100 q 331 76 317 83 q 362 66 345 69 q 399 63 380 63 l 492 63 q 632 113 576 63 q 667 150 650 128 q 699 195 684 171 q 734 256 715 220 q 758 265 739 265 q 781 262 768 265 q 796 256 794 259 q 771 207 793 250 q 740 146 748 163 q 714 96 731 130 q 688 39 698 62 q 671 -3 678 16 l 186 -3 q 98 -3 143 -3 q 23 -4 53 -4 q -12 -5 -6 -5 z "},"M":{"ha":1293,"x_min":-41,"x_max":1318,"o":"m -41 -6 q -41 3 -41 -3 q -40 20 -41 9 q -32 48 -37 37 q 37 63 -9 48 q 98 102 83 77 q 119 161 104 113 q 140 235 134 210 q 192 454 159 313 q 255 726 224 595 q 289 875 285 857 q 288 908 292 897 q 268 924 284 916 q 234 937 252 932 q 203 941 216 941 q 202 954 201 945 q 205 972 203 963 q 210 988 208 981 q 214 997 212 996 q 264 993 238 996 q 313 989 290 991 q 364 987 336 987 q 443 991 392 987 q 512 997 494 996 q 653 358 548 842 q 658 355 656 355 q 661 357 659 355 q 664 361 663 359 q 665 364 665 363 q 920 822 825 642 q 955 893 935 851 q 986 963 975 935 l 998 991 q 1066 988 1006 989 q 1149 986 1126 986 q 1236 991 1177 986 q 1314 997 1296 996 q 1318 979 1318 994 q 1317 970 1317 975 q 1310 939 1316 948 q 1289 938 1303 939 q 1258 932 1275 936 q 1233 923 1240 928 q 1213 902 1219 914 q 1202 861 1206 890 q 1158 594 1199 846 q 1099 229 1116 343 q 1087 104 1087 148 q 1088 77 1087 88 q 1122 56 1091 63 q 1171 50 1154 50 q 1172 22 1174 40 q 1164 -6 1169 5 q 1082 0 1152 -5 q 976 6 1012 6 q 907 4 947 6 q 821 -2 867 1 q 753 -6 776 -5 q 753 19 749 -2 q 762 50 757 40 q 818 57 783 50 q 864 78 853 64 q 873 94 869 84 q 882 114 878 104 q 887 131 885 123 q 891 154 888 138 q 897 192 893 170 q 902 223 900 213 l 991 748 q 992 756 991 751 q 995 769 994 762 q 994 782 996 777 q 989 787 993 787 q 980 777 987 787 l 593 60 q 561 21 585 44 q 521 -3 538 -3 q 509 0 518 -3 l 349 787 q 281 482 316 639 q 218 201 247 325 q 208 143 213 179 q 203 98 203 107 q 231 72 204 83 q 282 55 258 60 q 316 50 307 50 q 315 23 317 41 q 307 -6 313 5 q 232 0 290 -5 q 137 6 173 6 q 79 4 109 6 q 17 -2 50 1 q -41 -6 -16 -5 z "},"N":{"ha":1076,"x_min":-28,"x_max":1160,"o":"m -27 14 q -24 27 -26 20 q -21 38 -22 33 q -17 46 -19 43 q -15 50 -16 50 q 50 60 7 50 q 104 89 93 71 q 128 152 114 106 q 151 241 142 199 q 184 415 166 323 q 221 600 203 507 q 254 774 239 692 q 264 858 264 833 q 264 861 264 859 q 254 909 264 886 q 217 932 248 922 q 169 941 186 941 q 165 954 165 943 q 169 979 165 964 q 176 997 172 993 q 218 993 188 996 q 276 988 248 990 q 333 986 304 986 q 488 997 406 986 q 536 878 498 956 q 613 732 574 800 q 718 547 651 664 q 816 374 785 431 q 831 435 820 382 l 885 717 q 909 893 909 848 q 908 909 909 904 q 891 926 906 919 q 858 936 877 933 q 824 941 839 939 q 801 943 810 943 q 800 954 800 944 q 804 978 801 964 q 812 998 807 992 q 890 991 836 997 q 980 986 944 986 q 1079 992 1016 986 q 1159 998 1143 998 q 1160 994 1160 996 q 1156 970 1160 985 q 1144 941 1152 951 q 1111 940 1131 941 q 1060 929 1090 938 q 1022 906 1030 920 q 997 826 1015 890 q 971 721 979 762 l 871 210 q 837 -1 860 148 q 801 -7 831 -7 q 765 27 783 -7 l 340 781 l 235 237 q 223 152 227 197 q 220 104 220 122 q 221 90 220 96 q 249 68 223 77 q 298 55 275 58 q 330 51 321 51 q 330 22 334 41 q 321 -6 326 3 q 243 0 305 -5 q 146 6 182 6 q 54 1 110 6 q -27 -6 -2 -5 q -28 1 -28 -3 q -27 14 -28 5 z "},"O":{"ha":1061,"x_min":74,"x_max":1022,"o":"m 74 393 q 98 568 74 484 q 165 718 123 652 q 263 839 207 784 q 381 929 319 893 q 510 985 444 965 q 638 1004 576 1004 q 773 980 710 1004 q 881 915 836 956 q 958 821 926 874 q 1006 709 990 768 q 1022 591 1022 650 q 1003 437 1022 511 q 951 302 985 362 q 873 191 918 243 q 777 102 829 140 q 668 38 724 64 q 555 -2 612 12 q 444 -15 498 -15 q 298 18 367 -15 q 180 106 229 51 q 102 236 131 161 q 74 393 74 311 m 290 368 q 302 244 290 300 q 337 144 313 189 q 399 75 360 100 q 491 50 439 50 q 572 68 533 50 q 642 119 611 86 q 700 195 673 151 q 746 290 726 239 q 779 396 765 340 q 799 508 792 452 q 806 617 806 564 q 793 741 806 684 q 756 843 781 798 q 693 913 732 888 q 605 939 654 939 q 510 914 555 939 q 431 846 465 889 q 370 747 397 803 q 326 626 343 690 q 299 496 309 562 q 290 368 290 430 z "},"P":{"ha":838,"x_min":-15,"x_max":867,"o":"m -14 -6 q -15 3 -15 -3 q -12 22 -15 11 q -1 50 -8 42 q 94 77 83 57 q 112 128 104 97 q 131 218 120 159 l 239 772 q 244 798 241 780 q 249 824 248 817 q 253 845 250 831 q 256 866 255 859 q 257 883 256 873 q 258 900 258 893 q 256 914 257 907 q 253 920 256 917 q 246 925 250 922 q 237 929 241 927 q 225 931 232 930 q 212 933 218 932 q 199 935 207 935 q 188 937 192 936 q 178 938 184 937 q 170 938 172 938 q 170 955 168 944 q 175 978 171 966 q 182 994 178 989 q 381 989 244 989 q 480 991 408 989 q 597 994 553 994 q 717 970 662 994 q 808 907 772 947 q 859 814 844 868 q 867 750 867 783 q 863 700 867 726 q 825 603 852 648 q 762 527 798 558 q 681 474 725 496 q 591 441 636 452 q 503 431 546 431 q 432 453 464 431 q 422 469 428 456 q 417 488 417 482 q 419 495 417 492 q 425 498 422 498 q 470 492 443 492 q 579 549 523 492 q 650 679 636 606 q 659 753 659 717 q 658 775 659 764 q 642 857 654 821 q 603 912 629 892 q 543 933 578 933 q 495 930 514 933 q 470 916 477 926 q 464 904 467 910 q 459 887 462 897 q 455 870 456 877 q 450 847 454 864 q 446 823 447 831 l 328 218 q 323 192 327 210 q 319 166 320 174 q 315 145 317 159 q 312 124 313 132 q 310 107 311 117 q 310 90 309 97 q 312 77 311 83 q 396 50 315 56 q 395 21 399 42 q 385 -6 391 1 q 186 5 293 5 q -14 -6 84 5 z "},"Q":{"ha":1063,"x_min":75,"x_max":1043,"o":"m 75 393 q 100 568 75 484 q 166 718 124 652 q 264 839 208 784 q 383 929 320 893 q 512 985 446 965 q 640 1004 578 1004 q 774 980 711 1004 q 882 915 837 956 q 960 821 927 874 q 1008 709 992 768 q 1024 591 1024 650 q 999 415 1024 498 q 935 269 975 332 q 840 155 895 207 q 729 70 785 104 q 611 15 672 37 q 666 -18 632 3 q 718 -49 701 -39 q 765 -73 736 -59 q 817 -93 794 -87 q 871 -105 840 -100 q 938 -110 903 -110 q 1015 -100 978 -110 q 1043 -115 1034 -100 q 994 -146 1031 -125 q 901 -189 957 -168 q 806 -211 844 -211 q 729 -201 768 -211 q 658 -176 690 -191 q 587 -139 625 -161 q 515 -97 549 -118 q 438 -53 482 -77 q 352 -12 393 -29 q 236 56 288 15 q 148 150 184 98 q 94 263 113 201 q 75 393 75 326 m 292 368 q 303 244 292 300 q 338 144 315 189 q 401 75 361 100 q 492 50 440 50 q 564 64 530 50 q 627 103 599 78 q 681 164 656 129 q 726 240 707 199 q 761 329 745 282 q 786 424 777 375 q 802 522 796 473 q 807 617 807 570 q 794 741 807 684 q 758 843 782 798 q 695 913 734 888 q 607 939 656 939 q 511 914 556 939 q 433 846 467 889 q 372 747 399 803 q 327 626 345 690 q 301 496 310 562 q 292 368 292 430 z "},"R":{"ha":970,"x_min":-15,"x_max":959,"o":"m -14 -6 q -15 3 -15 -3 q -12 22 -15 11 q -1 50 -8 42 q 94 77 83 57 q 112 128 104 97 q 131 218 120 159 l 239 772 q 244 798 241 780 q 249 824 248 817 q 253 845 250 831 q 256 866 255 859 q 257 883 256 873 q 258 900 258 893 q 256 914 257 907 q 253 920 256 917 q 246 925 250 922 q 237 929 241 927 q 225 931 232 930 q 212 933 218 932 q 199 935 207 935 q 188 937 192 936 q 178 938 184 937 q 170 938 172 938 q 170 955 168 944 q 175 978 171 966 q 182 994 178 989 q 381 989 244 989 q 480 991 408 989 q 597 994 553 994 q 715 972 663 994 q 800 911 767 951 q 846 816 834 872 q 852 760 852 789 q 844 690 852 727 q 826 637 840 663 q 794 592 812 612 q 754 555 777 572 q 711 524 732 537 q 667 501 689 511 q 627 485 644 491 q 596 476 610 479 q 640 387 615 438 q 674 317 665 336 q 703 266 684 298 q 745 196 721 234 q 788 139 765 165 q 832 98 811 114 q 874 71 854 82 q 911 53 894 59 q 940 45 928 47 q 958 42 951 42 q 959 28 959 37 q 958 15 959 22 q 954 -6 956 -3 q 928 -8 940 -7 q 903 -11 916 -10 q 865 -12 891 -12 q 778 -6 819 -12 q 710 10 738 1 q 657 35 682 20 q 618 62 632 50 q 590 94 604 75 q 571 122 576 113 q 557 148 566 132 q 557 149 557 149 l 414 427 q 393 450 404 450 l 374 450 l 328 218 q 323 192 327 210 q 319 166 320 174 q 315 145 317 159 q 312 124 313 132 q 310 107 311 117 q 310 90 309 97 q 312 77 311 83 q 396 50 315 56 q 395 21 399 42 q 385 -6 391 1 q 186 5 293 5 q -14 -6 84 5 m 384 509 l 449 509 q 561 550 511 509 q 634 675 611 592 q 647 743 643 708 q 649 781 649 762 q 648 812 649 797 q 633 874 644 847 q 600 917 623 901 q 543 933 576 933 q 495 930 514 933 q 470 916 477 926 q 464 904 467 910 q 459 887 462 897 q 455 870 456 877 q 450 847 454 864 q 446 823 447 831 l 384 509 z "},"S":{"ha":743,"x_min":33,"x_max":727,"o":"m 33 24 q 33 42 33 33 q 38 156 33 85 q 50 280 44 243 q 72 294 55 286 q 95 301 89 301 q 110 289 110 301 q 110 284 110 286 q 115 233 110 262 q 136 169 121 202 q 171 110 151 136 q 223 65 192 83 q 290 48 254 48 q 343 56 318 48 q 391 81 368 64 q 430 126 414 98 q 454 194 447 155 q 457 222 457 208 q 451 262 457 241 q 413 328 441 296 q 366 378 385 360 q 313 425 347 397 q 295 439 300 435 q 283 450 291 443 q 256 473 265 465 q 230 496 246 481 q 205 522 214 512 q 184 548 197 532 q 165 578 172 565 q 153 611 159 592 q 144 648 146 629 q 144 689 143 667 q 149 736 144 711 q 196 844 160 793 q 281 931 233 895 q 388 987 330 966 q 500 1008 446 1008 q 561 1004 529 1008 q 612 995 593 1000 q 671 981 631 991 q 727 966 710 970 q 694 717 715 857 q 676 707 685 707 q 637 718 637 707 q 637 732 637 725 q 634 774 637 753 q 620 835 630 804 q 593 890 609 865 q 551 930 576 914 q 494 945 525 945 q 451 939 472 945 q 409 918 430 932 q 372 877 388 904 q 349 814 356 850 q 347 791 347 803 q 354 747 347 769 q 394 680 365 713 q 446 626 424 647 q 506 574 468 605 q 524 558 512 568 q 558 531 547 541 q 588 502 569 522 q 617 468 607 483 q 638 430 627 454 q 654 383 650 406 q 659 329 659 360 q 652 263 659 298 q 604 151 640 203 q 518 62 568 98 q 409 5 468 26 q 292 -15 349 -15 q 33 24 181 -15 z "},"T":{"ha":897,"x_min":81,"x_max":962,"o":"m 81 736 l 172 1013 q 190 1018 180 1018 q 209 1014 197 1018 q 231 1004 220 1009 q 269 994 243 998 q 330 989 295 989 l 548 989 l 795 989 q 857 994 829 989 q 899 1004 885 998 q 925 1014 912 1009 q 945 1018 938 1018 q 962 1013 956 1018 l 945 736 q 927 729 942 733 q 903 726 913 726 q 891 733 891 726 q 892 749 892 741 q 880 825 892 789 q 840 896 867 869 q 779 923 812 923 l 648 923 l 511 218 q 505 192 509 210 q 500 166 502 174 q 497 145 499 159 q 494 124 494 132 q 492 107 493 117 q 492 90 492 97 q 494 77 492 83 q 578 50 497 56 q 577 21 581 42 q 568 -6 573 1 q 370 5 475 5 q 170 -6 268 5 q 169 10 168 0 q 173 33 170 20 q 180 50 176 45 q 275 77 264 57 q 315 218 295 112 l 452 923 l 321 923 q 249 896 286 923 q 181 825 211 869 q 134 733 151 782 q 119 726 130 726 q 105 727 113 726 q 90 731 96 729 q 81 736 83 734 z "},"U":{"ha":1042,"x_min":128,"x_max":1141,"o":"m 129 255 q 129 275 128 264 q 149 453 129 350 l 211 772 q 216 798 212 780 q 220 824 219 817 q 224 845 222 831 q 227 866 227 859 q 229 883 228 873 q 229 900 229 893 q 227 914 229 907 q 143 941 224 935 q 142 958 141 947 q 146 981 143 969 q 153 997 150 992 q 352 986 245 986 q 551 997 454 986 q 551 969 555 989 q 541 941 547 949 q 446 914 456 934 q 406 772 427 879 l 354 497 q 341 423 345 452 q 333 361 336 395 q 331 317 331 338 q 331 298 331 307 q 339 239 332 269 q 524 95 368 95 q 593 108 558 95 q 662 150 627 121 q 727 221 697 178 q 782 326 757 263 q 822 465 807 389 l 871 721 q 883 791 878 755 q 890 859 888 827 q 890 880 890 871 q 888 905 890 896 q 791 941 882 933 q 791 969 787 949 q 801 997 795 989 q 974 986 914 986 q 1066 991 1010 986 q 1140 997 1122 996 q 1141 987 1141 994 q 1139 969 1141 979 q 1129 941 1135 949 q 1121 940 1128 941 q 1109 940 1114 940 q 1096 938 1105 939 q 1080 936 1086 937 q 1064 932 1073 935 q 1048 928 1055 930 q 1035 922 1042 925 q 1023 915 1027 919 q 1015 905 1018 910 q 985 826 1002 882 q 959 723 968 770 l 902 431 q 849 267 884 341 q 769 141 814 193 q 667 55 723 90 q 553 3 612 19 q 432 -14 494 -14 q 321 0 372 -14 q 229 44 270 14 q 163 119 187 75 q 129 255 132 174 z "},"V":{"ha":943,"x_min":86,"x_max":1081,"o":"m 87 958 q 92 981 88 969 q 100 997 96 992 q 296 986 191 986 q 497 997 399 986 q 496 969 500 990 q 485 941 492 949 q 477 940 484 941 q 467 940 471 940 q 454 938 463 939 q 441 936 446 937 q 428 932 435 935 q 415 927 420 930 q 404 921 410 924 q 396 912 399 917 q 391 901 393 907 q 390 884 390 893 q 404 787 390 851 l 513 280 q 796 785 774 743 q 812 814 800 792 q 829 848 823 836 q 842 878 835 861 q 850 907 850 900 q 745 941 850 932 q 747 969 742 949 q 758 997 751 989 q 792 994 766 996 q 826 990 818 991 q 853 988 834 989 q 887 986 871 987 q 922 986 903 986 q 1008 991 957 986 q 1080 997 1060 996 q 1081 987 1081 994 q 1080 969 1081 979 q 1069 941 1076 949 q 1060 940 1067 941 q 1048 940 1053 940 q 1034 938 1043 939 q 1019 936 1025 937 q 1003 932 1012 935 q 989 928 995 930 q 977 922 983 926 q 966 914 970 918 q 884 789 937 880 q 739 538 806 654 q 588 279 672 423 q 450 45 503 136 q 411 4 438 25 q 370 -16 383 -16 q 362 -14 365 -16 q 358 -5 360 -12 q 355 5 356 2 l 199 768 q 190 810 195 783 q 180 858 184 838 q 173 891 176 878 q 159 915 170 905 q 133 930 148 925 q 108 938 119 936 q 87 941 97 940 q 86 950 86 945 q 87 958 86 954 z "},"W":{"ha":1320,"x_min":88,"x_max":1451,"o":"m 90 941 q 88 951 88 945 q 91 969 88 958 q 101 997 95 989 q 300 986 193 986 q 498 997 401 986 q 500 986 500 994 q 498 969 500 978 q 494 953 496 961 q 488 941 491 945 q 397 882 397 933 q 406 787 397 853 l 464 378 q 759 941 706 843 q 786 980 770 963 q 813 997 802 997 q 825 972 821 997 l 938 322 q 1165 785 1141 736 q 1180 815 1170 794 q 1196 848 1190 836 q 1208 878 1202 861 q 1217 907 1217 899 q 1114 941 1217 932 q 1114 958 1112 947 q 1119 981 1115 969 q 1126 997 1122 992 q 1160 994 1135 996 q 1195 990 1186 991 q 1222 988 1203 989 q 1256 986 1240 987 q 1291 986 1272 986 q 1378 991 1326 986 q 1450 997 1431 996 q 1451 988 1451 994 q 1449 970 1451 981 q 1438 941 1444 949 q 1428 940 1436 941 q 1413 939 1419 940 q 1397 937 1407 939 q 1379 934 1387 936 q 1362 930 1371 932 q 1347 923 1354 927 q 1335 914 1340 919 q 1253 789 1287 861 q 882 60 1135 552 q 846 7 867 31 q 812 -16 824 -16 q 789 5 798 -16 l 679 629 q 391 66 503 283 q 358 13 378 42 q 327 -16 337 -16 q 304 5 313 -16 l 200 768 q 184 888 198 791 q 170 912 182 902 q 141 929 157 923 q 112 937 125 935 q 90 941 100 940 z "},"X":{"ha":991,"x_min":-87,"x_max":1089,"o":"m -87 10 q -83 33 -87 20 q -75 50 -79 45 q -52 52 -66 50 q -11 59 -37 54 q 43 81 16 65 q 90 119 71 96 l 411 485 l 279 808 q 275 819 277 812 q 257 860 264 845 q 241 893 251 875 q 224 918 231 912 q 182 935 214 928 q 132 941 150 941 q 130 954 130 943 q 135 979 130 964 q 143 997 139 993 q 195 994 163 996 q 252 991 228 992 q 306 988 275 989 q 360 987 336 987 q 425 989 391 987 q 506 993 458 990 q 563 997 554 996 q 562 979 564 992 q 556 953 560 965 q 549 941 553 941 q 502 933 529 941 q 470 909 474 924 q 474 876 467 891 l 581 623 q 665 712 606 650 q 762 815 724 773 q 813 879 800 857 q 819 895 819 887 q 820 898 820 897 q 793 927 820 914 q 726 941 763 941 q 723 954 722 943 q 727 979 723 964 q 734 997 730 993 q 918 986 819 986 q 1088 997 1015 986 q 1089 989 1089 994 q 1086 966 1089 981 q 1076 941 1082 941 q 1062 940 1070 941 q 1034 935 1053 939 q 995 923 1014 930 q 950 899 975 915 q 905 861 926 883 l 605 555 q 727 272 665 411 q 801 115 789 134 q 843 75 814 90 q 892 54 871 59 q 928 50 913 50 q 927 21 930 39 q 917 -6 924 3 q 694 3 750 3 q 623 1 659 3 q 543 -2 586 0 q 471 -6 499 -5 q 473 24 467 -1 q 485 50 479 50 q 536 62 503 50 q 572 92 569 74 q 570 109 574 98 l 443 411 q 194 125 237 183 q 178 100 180 106 q 185 77 175 87 q 213 61 195 66 q 249 53 230 56 q 285 50 267 50 q 286 24 288 42 q 279 -6 284 6 q 95 3 143 3 q 32 1 62 3 q -33 -2 1 0 q -86 -6 -68 -5 q -87 6 -87 -1 q -87 10 -87 8 z "},"Y":{"ha":867,"x_min":104,"x_max":1002,"o":"m 105 941 q 104 950 104 945 q 106 969 104 958 q 116 997 110 989 q 315 986 208 986 q 513 997 416 986 q 513 969 517 989 q 503 941 509 949 q 495 940 502 941 q 485 940 488 940 q 473 938 481 939 q 459 936 465 937 q 446 932 453 935 q 433 927 438 930 q 422 921 428 924 q 414 912 417 917 q 410 901 411 907 q 410 895 409 898 q 412 885 410 891 q 416 876 414 880 l 518 543 q 545 572 520 541 q 611 661 570 604 q 685 765 652 718 q 759 870 718 812 q 772 905 770 888 q 763 921 774 914 q 732 932 751 928 q 700 938 712 937 q 676 941 688 940 q 677 969 673 949 q 686 997 681 989 q 727 993 701 996 q 766 989 754 990 q 798 987 777 988 q 842 986 819 986 q 895 988 869 986 q 950 993 921 990 q 1001 997 979 996 q 1002 986 1002 993 q 1001 969 1002 979 q 991 941 998 949 q 982 940 990 941 q 969 939 974 940 q 955 937 965 939 q 938 935 945 936 q 922 930 931 933 q 905 924 912 927 q 891 915 899 920 q 879 903 884 909 q 707 681 840 855 q 536 449 574 507 q 522 420 524 433 l 484 218 q 467 129 471 161 q 465 99 465 113 q 467 77 465 87 q 551 50 470 56 q 552 33 553 43 q 547 10 551 22 q 541 -6 544 -1 q 342 5 448 5 q 143 -6 241 5 q 143 21 140 1 q 153 50 147 42 q 248 77 237 57 q 264 116 256 91 q 275 156 271 140 q 288 218 278 172 l 328 427 q 326 458 330 439 q 307 526 319 481 q 279 617 294 570 q 251 708 264 665 q 227 781 237 752 l 218 808 q 191 891 197 874 q 179 911 187 902 q 160 925 170 920 q 139 933 151 930 q 120 939 128 937 q 105 941 112 941 z "},"Z":{"ha":915,"x_min":-33,"x_max":955,"o":"m -32 33 l 696 918 l 438 918 q 396 915 416 918 q 361 906 376 911 q 329 891 345 901 q 303 874 313 882 q 280 851 292 866 q 260 826 267 836 q 241 799 252 817 q 226 771 231 780 q 211 742 221 762 q 196 713 200 721 q 176 705 190 705 q 152 707 164 705 q 137 712 139 709 q 242 997 218 925 q 328 989 256 993 q 425 986 399 986 l 621 987 q 949 1003 777 989 q 954 983 953 1002 q 955 971 955 977 q 953 953 955 960 q 877 858 951 949 q 698 636 803 766 q 488 379 593 507 q 310 161 383 250 l 237 71 l 539 71 q 682 123 623 71 q 731 177 709 148 q 781 256 753 206 q 802 265 786 265 q 827 262 813 265 q 843 256 841 259 q 782 134 831 229 q 718 1 733 39 l -1 0 q -19 7 -10 0 q -31 22 -27 14 q -33 30 -33 26 q -32 33 -33 32 z "},"[":{"ha":395,"x_min":3,"x_max":524,"o":"m 5 -146 l 258 1129 q 271 1143 263 1143 q 516 1152 431 1143 q 524 1134 524 1144 q 520 1118 524 1126 q 509 1105 515 1110 q 495 1096 503 1099 q 342 1065 449 1076 q 336 1063 338 1065 q 331 1055 334 1061 l 105 -84 q 115 -95 104 -92 q 141 -101 116 -95 q 180 -111 165 -107 q 216 -124 194 -115 q 254 -143 239 -133 q 279 -173 279 -158 q 267 -200 279 -191 q 15 -161 71 -163 q 7 -156 10 -161 q 5 -146 3 -151 z "},"\\":{"ha":587,"x_min":185,"x_max":459,"o":"m 185 1137 q 190 1142 186 1139 q 198 1146 193 1144 q 206 1147 202 1147 q 247 1127 227 1147 q 269 1092 267 1106 l 456 -6 q 440 -42 459 -23 q 408 -60 422 -60 q 390 -56 396 -60 l 185 1137 z "},"]":{"ha":391,"x_min":-90,"x_max":418,"o":"m -90 -179 q -78 -156 -90 -167 q -50 -137 -65 -144 q 81 -84 18 -103 q 95 -73 93 -81 l 316 1049 q 306 1063 319 1061 q 163 1096 208 1075 q 140 1137 140 1108 q 143 1146 140 1142 q 149 1151 146 1149 q 153 1152 152 1152 q 402 1138 312 1138 q 414 1133 410 1138 q 417 1122 418 1127 l 169 -146 q 167 -149 168 -146 q 164 -153 165 -151 q 158 -157 162 -155 q 151 -159 155 -159 q -80 -200 10 -172 q -82 -199 -81 -200 q -84 -197 -83 -198 q -86 -193 -85 -195 q -89 -189 -87 -191 q -90 -184 -90 -187 q -90 -179 -90 -182 z "},"^":{"ha":486,"x_min":30,"x_max":456,"o":"m 30 751 q 59 779 33 757 q 117 830 85 802 q 194 911 150 859 q 274 1019 239 962 q 277 1026 275 1022 q 280 1032 279 1031 q 283 1036 281 1034 q 287 1038 285 1038 q 292 1039 289 1039 q 307 1035 302 1039 q 316 1019 312 1031 q 325 992 321 1007 q 340 947 329 977 q 368 885 351 918 q 400 834 378 866 q 439 779 422 802 q 456 753 456 755 q 445 725 454 743 q 429 706 436 706 q 357 761 411 706 q 267 876 302 815 q 135 761 212 817 q 39 706 58 706 q 30 751 30 706 z "},"_":{"ha":713,"x_min":-56,"x_max":613,"o":"m -54 -53 q -53 -44 -54 -50 q -48 -25 -52 -39 q -41 -2 -45 -12 q -32 17 -37 9 q -20 26 -26 26 l 610 26 q 612 25 611 26 q 613 23 612 24 q 613 20 613 22 q 613 17 613 19 q 613 14 613 15 q 590 -59 613 -9 q 585 -65 588 -63 q 579 -68 581 -67 l 576 -68 l -47 -68 q -50 -67 -48 -68 q -53 -63 -51 -67 q -54 -53 -56 -60 z "},"`":{"ha":304,"x_min":15,"x_max":274,"o":"m 15 899 q 38 943 15 926 q 83 960 60 960 q 111 957 98 960 q 130 950 125 954 q 215 846 160 922 q 274 755 270 770 q 260 738 273 745 q 211 759 250 741 q 129 801 173 777 q 50 852 84 825 q 15 899 15 880 z "},"a":{"ha":736,"x_min":16,"x_max":690,"o":"m 16 173 q 37 304 16 239 q 94 424 58 369 q 176 526 129 478 q 274 606 223 573 q 378 657 325 639 q 479 676 431 676 q 565 667 516 676 q 640 649 614 658 l 547 199 q 543 174 545 194 q 541 149 541 155 q 546 127 541 137 q 562 117 551 117 q 622 156 583 117 q 669 210 662 195 q 683 193 675 210 q 690 169 690 177 q 652 120 680 150 q 591 60 625 90 q 518 9 557 31 q 450 -12 479 -12 q 383 14 409 -12 q 357 87 357 39 q 360 116 357 95 q 366 144 361 125 q 331 96 353 122 q 278 46 308 71 q 214 5 249 22 q 146 -11 178 -11 q 51 41 85 -11 q 16 173 16 93 m 206 229 q 220 149 206 176 q 260 122 235 122 q 317 166 286 122 q 375 280 348 210 q 417 423 402 349 l 447 575 q 395 593 431 593 q 301 539 345 593 q 232 401 257 486 q 206 229 206 317 z "},"b":{"ha":700,"x_min":53,"x_max":658,"o":"m 53 161 q 62 244 53 201 l 179 843 q 193 923 193 904 q 101 951 193 951 q 100 974 98 956 q 107 995 102 991 q 257 1019 165 1000 q 378 1048 350 1038 q 387 1019 387 1042 q 368 906 387 1000 l 286 506 q 349 578 308 540 q 438 647 389 617 q 521 676 487 676 q 594 657 564 676 q 641 600 625 638 q 658 507 658 562 q 638 371 658 439 q 585 248 618 303 q 507 143 551 192 q 415 62 463 95 q 319 10 368 28 q 227 -9 270 -9 q 103 38 154 -9 q 53 161 53 85 m 229 186 q 229 158 229 172 q 230 123 229 140 q 244 77 233 95 q 275 59 256 59 q 316 73 296 59 q 355 112 337 87 q 390 169 373 137 q 420 238 407 201 q 443 313 433 275 q 458 387 453 351 q 464 454 464 424 q 422 543 464 543 q 350 498 389 543 q 281 385 311 453 q 238 252 251 317 q 229 186 231 218 z "},"c":{"ha":567,"x_min":22,"x_max":555,"o":"m 22 197 q 44 337 22 266 q 104 468 66 408 q 189 575 142 528 q 292 649 237 622 q 401 676 347 676 q 479 666 442 676 q 533 643 517 656 q 555 568 555 609 q 530 505 555 533 q 471 476 505 476 q 395 532 424 476 q 390 541 393 533 q 384 551 386 548 q 379 561 382 553 q 372 571 375 568 q 365 580 370 574 q 357 589 361 586 q 349 595 353 591 q 339 600 344 598 q 328 601 334 601 q 274 548 301 601 q 230 414 247 495 q 212 256 212 334 q 218 191 212 218 q 237 148 224 164 q 266 123 249 131 q 306 116 283 116 q 326 118 315 116 q 347 125 337 121 q 367 136 357 130 q 387 148 378 142 q 405 162 395 155 q 421 175 414 169 q 435 188 428 182 q 446 199 441 195 q 453 207 450 203 q 456 211 456 211 q 470 196 464 211 q 476 172 476 181 q 450 139 468 159 q 403 93 432 119 q 342 44 374 67 q 273 6 311 22 q 203 -9 235 -9 q 137 4 169 -9 q 80 41 106 16 q 38 106 54 65 q 22 197 22 146 z "},"d":{"ha":733,"x_min":15,"x_max":707,"o":"m 15 173 q 41 319 15 246 q 112 450 68 391 q 210 557 155 509 q 325 636 265 606 q 441 675 385 666 q 467 676 450 676 l 500 843 q 504 864 501 851 q 508 887 507 878 q 512 907 510 897 q 513 923 513 917 q 422 951 513 951 q 421 974 418 956 q 427 995 423 991 q 578 1019 486 1000 q 699 1048 671 1038 q 707 1019 707 1042 q 688 906 707 1000 l 545 199 q 542 174 544 194 q 539 149 539 155 q 540 138 539 144 q 544 128 541 133 q 550 120 546 123 q 560 117 555 117 q 621 156 581 117 q 667 210 660 195 q 681 193 674 210 q 688 169 688 177 q 651 120 678 150 q 590 60 624 90 q 516 9 555 31 q 449 -12 477 -12 q 374 24 398 -12 q 355 87 355 51 q 364 144 355 109 q 329 96 352 122 q 277 46 306 71 q 212 5 248 22 q 144 -11 176 -11 q 49 41 83 -11 q 15 173 15 93 m 205 229 q 219 149 205 176 q 259 122 233 122 q 317 172 283 122 q 379 293 351 222 q 416 423 407 363 q 432 532 432 512 q 422 579 432 564 q 393 593 413 593 q 321 561 356 593 q 260 478 286 529 q 220 360 235 427 q 205 229 205 294 z "},"e":{"ha":593,"x_min":24,"x_max":570,"o":"m 24 211 q 40 322 24 265 q 84 431 56 380 q 149 527 111 481 q 228 605 186 572 q 315 657 270 637 q 404 676 361 676 q 443 673 423 676 q 481 664 462 670 q 516 646 500 657 q 544 621 532 635 q 564 584 557 606 q 570 538 570 563 q 551 465 570 500 q 499 402 531 429 q 427 352 467 375 q 348 314 388 329 q 273 291 308 300 q 214 283 237 283 q 211 245 211 274 q 215 201 211 222 q 228 160 219 180 q 257 128 237 140 q 302 116 276 116 q 323 119 313 116 q 344 126 334 121 q 365 136 354 130 q 384 149 375 142 q 402 163 393 156 q 419 177 412 171 q 433 191 426 184 q 444 202 439 197 q 451 210 448 206 l 454 214 q 471 196 464 214 q 477 169 477 178 q 438 127 469 155 q 366 67 407 98 q 278 14 325 37 q 197 -9 231 -9 q 105 17 144 -9 q 45 92 66 42 q 24 211 24 142 m 218 340 q 270 360 240 340 q 327 409 300 379 q 373 480 354 439 q 391 562 391 522 q 352 621 391 621 q 311 598 332 621 q 276 544 291 576 q 248 472 260 511 q 228 399 235 433 q 218 340 220 365 z "},"f":{"ha":478,"x_min":-212,"x_max":642,"o":"m -212 -252 q -196 -200 -212 -222 q -155 -178 -180 -178 q -92 -214 -118 -178 q -87 -220 -91 -215 q -82 -228 -83 -226 q -78 -234 -81 -229 q -72 -241 -74 -239 q -66 -247 -70 -243 q -59 -252 -62 -250 q -53 -255 -56 -253 q -45 -258 -49 -258 q -36 -259 -41 -259 q 14 -212 -2 -259 q 57 -24 31 -165 q 77 81 69 43 l 161 569 l 63 569 q 60 574 60 569 q 85 613 60 587 q 132 638 109 638 l 173 638 q 218 775 187 709 q 286 889 248 841 q 366 974 323 937 q 447 1028 408 1010 q 516 1046 486 1046 q 564 1042 541 1046 q 603 1031 587 1038 q 628 1019 619 1025 q 642 970 642 998 q 625 918 642 940 q 584 896 609 896 q 521 932 547 896 q 516 939 520 933 q 511 946 513 944 q 507 952 510 947 q 501 959 503 957 q 495 965 499 961 q 489 970 492 968 q 482 974 486 971 q 474 977 478 976 q 465 977 469 977 q 409 905 432 977 q 348 638 386 833 l 498 638 q 506 621 506 638 q 504 608 506 615 q 500 593 503 600 q 495 580 498 587 q 490 569 492 574 l 334 569 q 252 87 288 277 q 195 -81 234 -2 q 109 -214 157 -161 q 10 -297 62 -267 q -87 -328 -42 -328 q -154 -320 -123 -328 q -199 -301 -184 -311 q -212 -252 -212 -279 z "},"g":{"ha":668,"x_min":-86,"x_max":685,"o":"m -86 -165 q -79 -126 -86 -145 q -61 -93 -71 -107 q -34 -66 -52 -79 q -2 -44 -16 -52 q 35 -25 12 -35 q 71 -11 58 -16 q 105 1 83 -7 q 119 6 115 5 q 51 42 62 32 q 43 50 49 44 q 35 57 37 55 q 31 67 33 60 q 28 84 28 74 q 68 131 28 102 q 159 184 108 160 q 247 217 211 208 q 201 232 222 223 q 158 253 179 241 q 119 281 136 265 q 89 317 102 298 q 69 362 76 337 q 62 417 62 388 q 99 553 62 490 q 200 653 137 616 q 336 690 263 690 q 391 683 363 690 q 437 670 420 677 q 479 653 454 664 q 512 656 485 651 q 571 668 539 661 q 608 676 603 675 q 656 651 627 670 q 685 621 685 633 q 682 609 685 615 q 672 598 678 602 q 661 593 667 593 l 548 593 q 552 588 549 593 q 557 580 555 584 q 564 569 559 576 q 571 554 568 562 q 578 537 574 547 q 584 516 582 527 q 588 492 587 506 q 590 465 590 479 q 575 387 590 425 q 538 323 560 350 q 487 272 516 296 q 432 235 457 249 q 382 211 407 220 q 350 200 371 206 q 316 190 329 194 q 293 177 304 186 q 283 158 283 169 q 299 140 283 149 q 340 121 315 131 q 395 101 365 112 q 456 74 426 90 q 512 41 487 59 q 553 -3 538 23 q 569 -60 569 -30 q 539 -164 569 -113 q 458 -254 509 -215 q 335 -317 408 -293 q 182 -340 262 -340 q -13 -290 61 -340 q -86 -165 -86 -240 m 89 -126 q 103 -190 89 -162 q 140 -234 117 -217 q 194 -259 164 -251 q 259 -268 224 -268 q 325 -258 291 -268 q 386 -224 359 -248 q 412 -170 412 -201 q 388 -125 412 -149 q 325 -82 364 -102 q 249 -47 286 -62 q 173 -21 211 -33 q 110 -68 130 -43 q 89 -126 89 -93 m 233 417 q 233 399 233 408 q 235 363 233 380 q 244 317 237 339 q 266 282 252 296 q 300 268 279 269 q 302 268 301 268 q 359 294 333 268 q 404 366 388 323 q 422 454 420 409 q 422 467 422 461 q 420 512 422 490 q 411 568 418 541 q 389 613 404 595 q 354 631 374 630 q 351 631 353 631 q 292 600 317 631 q 250 518 264 566 q 233 417 236 470 z "},"h":{"ha":758,"x_min":22,"x_max":721,"o":"m 22 0 q 106 439 31 41 q 184 843 182 837 q 197 923 197 907 q 105 951 197 951 q 104 974 102 956 q 111 995 107 991 q 262 1019 170 1000 q 382 1048 355 1038 q 391 1019 391 1042 q 384 969 391 1011 q 372 906 376 927 q 286 473 289 486 q 282 453 284 465 q 277 430 279 442 q 274 412 275 417 q 342 526 297 465 q 440 631 387 587 q 528 676 493 676 q 572 671 553 676 q 603 655 591 665 q 623 628 615 644 q 634 592 631 612 q 637 545 637 572 q 635 510 637 530 q 628 465 633 490 q 621 422 624 439 q 613 380 618 405 q 607 351 608 355 l 578 199 q 575 174 577 194 q 572 149 572 155 q 574 135 572 142 q 581 123 576 128 q 593 117 586 117 q 654 156 614 117 q 700 210 693 195 q 714 193 707 210 q 721 169 721 177 q 684 120 711 150 q 623 60 657 90 q 550 9 589 31 q 481 -12 511 -12 q 414 14 441 -12 q 387 95 387 41 q 390 124 387 104 q 396 161 393 144 q 401 185 399 178 l 435 364 q 446 424 439 379 q 453 479 453 468 q 447 501 453 491 q 429 511 441 511 q 385 478 413 511 q 327 396 357 446 q 269 276 297 346 q 226 137 241 205 l 196 0 q 155 -6 185 -3 q 112 -9 125 -9 q 66 -6 98 -9 q 22 0 35 -3 z "},"i":{"ha":467,"x_min":16,"x_max":425,"o":"m 16 495 q 53 544 26 514 q 112 604 79 574 q 183 655 145 633 q 250 676 221 676 q 323 648 296 676 q 351 569 351 620 q 337 479 351 547 l 281 199 q 278 174 280 194 q 275 149 275 155 q 277 138 275 144 q 280 128 278 133 q 287 120 283 123 q 296 117 291 117 q 337 139 311 117 q 382 182 363 161 q 404 210 400 203 q 417 193 410 210 q 425 169 425 177 q 398 132 416 154 q 353 84 379 109 q 298 38 326 59 q 239 2 269 16 q 185 -12 208 -12 q 117 14 144 -12 q 90 95 90 41 q 96 141 90 109 q 104 185 101 173 l 159 465 q 162 479 160 469 q 165 500 164 489 q 167 515 167 511 q 161 536 167 526 q 144 547 155 547 q 84 508 123 547 q 38 454 45 469 q 23 471 31 454 q 16 495 16 487 m 203 908 q 219 970 203 941 q 262 1017 235 999 q 321 1034 290 1034 q 366 1022 346 1034 q 397 988 386 1010 q 408 941 408 967 q 373 852 408 891 q 290 813 338 813 q 228 841 253 813 q 203 908 203 868 z "},"j":{"ha":430,"x_min":-132,"x_max":443,"o":"m -132 -295 q -50 -223 -85 -258 q 10 -151 -16 -188 q 54 -67 35 -114 q 87 29 73 -21 q 115 151 100 79 l 175 465 q 179 490 176 471 q 182 515 182 510 q 176 536 182 526 q 159 547 170 547 q 99 508 138 547 q 53 454 60 469 q 39 471 45 454 q 32 495 32 487 q 68 544 42 514 q 127 604 94 574 q 198 655 160 633 q 265 676 237 676 q 338 648 311 676 q 366 569 366 620 q 352 479 366 547 q 295 180 317 294 q 246 23 278 91 q 164 -113 214 -45 q 73 -203 134 -153 q -43 -288 12 -253 q -119 -328 -97 -322 q -128 -317 -124 -328 q -132 -295 -132 -306 m 238 909 q 273 999 238 960 q 355 1038 309 1038 q 418 1010 393 1038 q 443 943 443 983 q 408 853 443 892 q 326 814 372 814 q 263 842 288 814 q 238 909 238 869 z "},"k":{"ha":757,"x_min":22,"x_max":711,"o":"m 22 0 q 106 439 31 41 q 184 843 182 837 q 197 923 197 907 q 105 951 197 951 q 104 974 102 956 q 111 995 107 991 q 262 1019 170 1000 q 382 1048 355 1038 q 391 1019 391 1042 q 384 969 391 1011 q 372 906 376 927 l 298 513 q 331 556 306 530 q 391 609 355 582 q 474 656 427 637 q 566 676 522 676 q 660 649 630 676 q 690 568 690 621 q 673 510 690 539 q 631 458 657 481 q 570 412 605 434 q 501 374 536 390 q 431 347 466 358 q 457 280 442 314 q 494 209 473 246 q 539 147 515 171 q 587 123 564 123 q 616 134 600 123 q 648 160 633 144 q 673 187 663 176 q 690 208 683 199 q 705 193 699 208 q 711 169 711 178 q 681 124 705 153 q 626 66 657 96 q 554 15 594 37 q 484 -6 515 -6 q 429 10 456 -6 q 380 54 402 26 q 339 113 358 81 q 304 183 320 145 q 277 252 288 222 q 258 313 267 282 l 196 0 q 155 -6 185 -3 q 112 -9 125 -9 q 66 -6 98 -9 q 22 0 35 -3 m 269 374 q 369 391 317 374 q 458 443 420 409 q 495 515 495 476 q 492 534 495 524 q 479 554 490 545 q 453 563 469 563 q 400 547 428 563 q 350 507 372 531 q 309 456 328 482 q 280 407 290 429 q 269 374 269 385 z "},"l":{"ha":426,"x_min":47,"x_max":396,"o":"m 47 95 q 52 141 47 109 q 60 185 57 173 l 189 843 q 194 871 190 852 q 199 902 197 889 q 201 923 201 916 q 110 951 201 951 q 109 974 106 956 q 116 995 111 991 q 267 1019 174 1000 q 387 1048 359 1038 q 396 1019 396 1042 q 376 906 396 1000 l 238 199 q 232 149 232 163 q 232 142 232 146 q 234 135 233 138 q 237 128 235 132 q 241 122 239 125 q 246 119 243 120 q 253 117 250 117 q 313 156 274 117 q 360 210 353 195 q 374 193 367 210 q 381 169 381 177 q 344 120 371 150 q 282 60 317 90 q 209 9 248 31 q 142 -12 170 -12 q 95 -2 115 -12 q 60 34 74 9 q 47 95 47 58 z "},"m":{"ha":1137,"x_min":16,"x_max":1099,"o":"m 16 495 q 53 544 26 514 q 112 604 79 574 q 183 655 145 633 q 250 676 221 676 q 323 648 296 676 q 351 569 351 620 q 337 479 351 547 l 322 412 q 390 526 345 465 q 488 631 435 587 q 576 676 541 676 q 620 671 602 676 q 651 655 639 665 q 671 628 664 644 q 682 592 679 612 q 685 545 685 572 q 675 447 685 511 q 726 526 696 486 q 788 599 755 566 q 853 654 821 633 q 911 676 886 676 q 996 644 972 676 q 1019 545 1019 612 q 1018 514 1019 532 q 1013 479 1016 496 q 1007 442 1010 462 q 1001 407 1004 422 q 994 375 998 392 q 989 351 991 359 q 973 279 986 336 q 956 199 960 222 q 950 149 950 169 q 950 142 950 146 q 952 135 951 138 q 955 128 953 132 q 959 122 957 125 q 964 119 961 120 q 971 117 968 117 q 1012 139 986 117 q 1056 182 1038 161 q 1078 210 1075 203 q 1088 201 1083 210 q 1096 183 1093 193 q 1099 169 1099 174 q 1062 120 1089 150 q 1001 60 1035 90 q 927 9 966 31 q 860 -12 888 -12 q 792 14 819 -12 q 765 95 765 41 q 770 141 765 109 q 779 185 775 173 l 817 364 q 828 424 821 379 q 836 479 836 468 q 834 490 836 485 q 830 500 833 496 q 822 508 827 505 q 812 511 817 511 q 767 478 795 511 q 709 396 739 446 q 651 276 680 346 q 608 137 623 205 l 578 0 q 538 -6 568 -3 q 494 -9 508 -9 q 449 -6 479 -9 q 405 0 418 -3 l 484 364 q 494 424 487 379 q 501 479 501 468 q 495 501 501 491 q 477 511 489 511 q 433 478 461 511 q 375 396 405 446 q 317 276 345 346 q 274 137 289 205 l 244 0 q 203 -6 233 -3 q 160 -9 174 -9 q 115 -6 146 -9 q 71 0 83 -3 l 159 465 q 162 479 160 469 q 165 500 164 489 q 167 515 167 511 q 161 536 167 526 q 144 547 155 547 q 84 508 123 547 q 38 454 45 469 q 23 471 31 454 q 16 495 16 487 z "},"n":{"ha":806,"x_min":16,"x_max":769,"o":"m 16 495 q 53 544 26 514 q 112 604 79 574 q 183 655 145 633 q 250 676 221 676 q 323 648 296 676 q 351 569 351 620 q 337 479 351 547 q 335 465 336 473 q 331 447 333 456 q 327 430 328 438 q 323 417 325 422 l 322 412 q 390 526 345 465 q 488 631 435 587 q 576 676 541 676 q 620 671 602 676 q 651 655 639 665 q 671 628 664 644 q 682 592 679 612 q 685 545 685 572 q 683 510 685 530 q 676 465 681 490 q 669 422 672 439 q 661 380 666 405 q 655 351 656 355 l 627 199 q 623 174 625 194 q 621 149 621 155 q 622 138 621 144 q 625 128 623 133 q 632 120 627 123 q 642 117 636 117 q 702 156 663 117 q 748 210 741 195 q 758 201 753 210 q 766 183 764 193 q 769 169 769 174 q 732 120 760 150 q 671 60 705 90 q 598 9 637 31 q 530 -12 559 -12 q 462 14 489 -12 q 435 95 435 41 q 440 141 435 109 q 449 185 446 173 l 484 364 q 494 424 487 379 q 501 479 501 468 q 495 501 501 491 q 477 511 489 511 q 433 478 461 511 q 375 396 405 446 q 317 276 345 346 q 274 137 289 205 l 244 0 q 203 -6 233 -3 q 160 -9 174 -9 q 115 -6 146 -9 q 71 0 83 -3 l 159 465 q 162 479 160 469 q 165 500 164 489 q 167 515 167 511 q 161 536 167 526 q 144 547 155 547 q 84 508 123 547 q 38 454 45 469 q 23 471 31 454 q 16 495 16 487 z "},"o":{"ha":685,"x_min":22,"x_max":634,"o":"m 22 214 q 39 323 22 267 q 83 430 55 380 q 149 526 111 481 q 230 605 187 572 q 320 657 273 637 q 411 676 367 676 q 483 670 450 676 q 544 647 515 663 q 592 605 572 631 q 623 540 611 580 q 634 447 634 500 q 617 338 634 394 q 571 232 600 282 q 504 138 543 182 q 421 61 465 93 q 330 10 378 28 q 238 -9 282 -9 q 82 50 142 -9 q 22 214 22 108 m 211 189 q 262 51 211 51 q 338 94 302 51 q 396 202 374 138 q 432 338 419 267 q 446 470 446 410 q 446 491 446 483 q 445 513 446 498 q 443 538 444 528 q 439 561 441 548 q 433 583 437 574 q 424 600 429 591 q 411 612 419 608 q 395 616 404 616 q 318 572 354 616 q 260 464 283 529 q 224 325 237 398 q 211 189 211 252 z "},"p":{"ha":747,"x_min":-83,"x_max":706,"o":"m -83 -307 q -75 -281 -81 -285 q -15 -258 -35 -281 q 9 -193 -1 -239 l 122 349 l 50 277 q 42 295 45 282 q 39 317 39 309 q 46 341 39 329 q 62 360 54 353 l 138 432 l 184 669 q 227 674 195 671 q 275 676 259 676 q 322 672 292 676 q 363 664 353 669 q 342 562 358 634 q 442 639 378 602 q 559 676 506 676 q 667 626 629 676 q 706 494 706 575 q 686 369 706 433 q 634 251 667 306 q 557 149 601 197 q 465 66 513 100 q 366 12 416 32 q 269 -7 315 -7 q 229 0 245 -7 l 190 -190 q 185 -232 185 -210 q 191 -252 185 -240 q 206 -267 196 -264 q 277 -271 225 -271 q 279 -294 281 -272 q 271 -317 277 -315 q 244 -317 261 -317 q 218 -316 227 -316 q -78 -330 34 -316 q -83 -315 -83 -328 q -83 -307 -83 -311 m 271 98 q 312 59 281 59 q 388 102 349 59 q 452 207 426 145 q 495 336 479 269 q 512 450 512 402 q 453 549 512 549 q 330 486 393 549 l 277 224 q 268 136 268 172 q 271 98 268 114 z "},"q":{"ha":683,"x_min":16,"x_max":631,"o":"m 16 172 q 36 294 16 231 q 88 411 55 356 q 166 515 121 466 q 263 600 212 564 q 372 655 315 635 q 485 676 430 676 q 631 643 577 676 l 548 210 l 470 -200 q 467 -232 467 -221 q 472 -254 467 -245 q 494 -267 477 -262 q 543 -273 512 -273 q 545 -300 549 -273 q 538 -317 542 -315 q 476 -317 527 -317 q 416 -316 425 -316 q 186 -331 326 -316 q 185 -306 184 -329 q 193 -283 186 -283 q 255 -263 229 -279 q 286 -220 281 -248 l 352 126 q 317 82 339 105 q 268 38 296 60 q 208 3 241 17 q 143 -11 174 -11 q 86 5 111 -11 q 46 48 61 22 q 24 106 32 75 q 16 172 16 138 m 206 237 q 221 150 206 178 q 258 122 236 122 q 315 167 283 122 q 375 280 348 212 q 416 414 403 348 q 432 513 425 464 q 434 530 434 520 q 434 536 434 533 q 430 563 433 550 q 418 585 427 576 q 395 593 409 593 q 302 541 346 593 q 232 405 258 488 q 206 237 206 322 z "},"r":{"ha":650,"x_min":16,"x_max":671,"o":"m 16 495 q 53 544 26 514 q 112 604 79 574 q 183 655 145 633 q 250 676 221 676 q 323 648 296 676 q 351 569 351 620 q 337 479 351 547 q 334 461 336 473 q 329 436 332 450 q 323 411 326 423 q 318 390 320 398 q 316 382 316 382 q 378 519 334 450 q 473 632 422 588 q 564 676 525 676 q 610 672 595 676 q 648 656 626 668 q 671 590 671 627 q 645 511 671 540 q 584 481 618 481 q 559 486 570 481 q 532 499 547 490 q 515 509 517 508 q 506 514 512 511 q 497 518 500 517 q 489 520 495 519 q 474 521 483 521 q 430 487 458 521 q 374 401 403 454 q 317 277 345 349 q 274 137 289 205 l 244 0 q 203 -6 233 -3 q 160 -9 174 -9 q 115 -6 146 -9 q 71 0 83 -3 l 159 465 q 162 479 160 469 q 165 500 164 489 q 167 515 167 511 q 161 536 167 526 q 144 547 155 547 q 84 508 123 547 q 38 454 45 469 q 23 471 31 454 q 16 495 16 487 z "},"s":{"ha":551,"x_min":-1,"x_max":518,"o":"m -1 94 q 19 150 -1 125 q 71 175 39 175 q 117 158 97 175 q 161 107 136 142 q 176 87 170 94 q 190 72 182 79 q 205 59 197 64 q 222 52 212 55 q 242 50 231 50 q 288 72 267 50 q 310 115 310 94 q 302 147 310 130 q 283 179 295 164 q 254 211 271 193 q 221 241 237 228 q 186 273 205 255 q 155 304 168 290 q 141 319 153 307 q 127 335 130 332 q 116 350 125 338 q 104 368 106 361 q 95 386 101 374 q 87 410 90 399 q 83 435 85 420 q 81 467 81 450 q 154 616 81 557 q 336 676 226 676 q 501 629 441 676 q 514 601 510 619 q 518 569 518 583 q 497 517 518 541 q 443 492 476 492 q 354 562 401 492 q 339 584 345 576 q 323 600 333 591 q 303 613 314 609 q 280 617 293 617 q 237 597 255 617 q 220 548 220 578 q 236 505 220 528 q 271 464 252 481 q 321 419 290 446 q 366 378 352 391 q 389 355 382 362 q 410 330 396 348 q 431 297 425 312 q 444 257 438 281 q 450 206 450 233 q 412 91 450 142 q 311 15 373 41 q 175 -11 248 -11 q 86 3 131 -11 q 16 36 42 16 q -1 94 -1 58 z "},"t":{"ha":494,"x_min":50,"x_max":491,"o":"m 50 574 q 74 613 50 587 q 122 638 98 638 l 178 638 l 200 759 q 284 816 212 774 q 366 858 356 858 q 391 849 379 858 l 352 638 l 485 638 q 491 621 491 638 q 486 594 491 609 q 476 569 481 578 l 339 569 l 267 199 q 260 149 260 163 q 262 135 260 142 q 270 123 264 128 q 281 117 275 117 q 342 156 303 117 q 389 210 382 195 q 402 193 395 210 q 410 169 410 177 q 372 120 399 150 q 311 60 345 90 q 238 9 277 31 q 170 -12 199 -12 q 102 14 130 -12 q 75 95 75 41 q 89 185 75 126 l 164 569 l 53 569 q 50 574 50 569 z "},"u":{"ha":802,"x_min":11,"x_max":759,"o":"m 11 495 q 46 544 20 514 q 106 604 73 574 q 177 655 139 633 q 244 676 215 676 q 317 648 290 676 q 345 569 345 620 q 331 479 345 547 l 296 300 q 279 185 279 191 q 281 170 279 177 q 289 158 283 163 q 302 153 295 153 q 348 192 319 153 q 408 287 377 230 q 467 419 439 344 q 509 560 496 494 l 530 664 q 570 670 541 667 q 614 673 600 673 q 640 672 623 673 q 676 668 658 671 q 703 664 694 666 l 616 199 q 610 149 610 169 q 612 135 610 142 q 619 123 614 128 q 631 117 624 117 q 692 156 652 117 q 738 210 731 195 q 748 201 743 210 q 756 183 753 193 q 759 169 759 174 q 722 120 749 150 q 660 60 694 90 q 587 9 626 31 q 519 -12 548 -12 q 452 14 479 -12 q 425 95 425 41 q 435 170 425 112 q 453 250 444 215 q 375 129 425 191 q 273 27 325 67 q 190 -12 221 -12 q 115 17 134 -12 q 95 117 95 46 q 123 307 95 159 q 134 358 127 327 q 145 414 140 390 q 153 465 149 437 q 158 490 155 471 q 161 515 161 510 q 155 536 161 526 q 138 547 149 547 q 78 508 117 547 q 32 454 39 469 q 18 471 24 454 q 11 495 11 487 z "},"v":{"ha":700,"x_min":14,"x_max":677,"o":"m 14 495 q 51 545 24 515 q 110 604 77 574 q 180 655 142 634 q 247 676 218 676 q 286 670 270 676 q 309 651 301 663 q 319 624 317 638 q 322 591 322 610 l 322 543 l 322 513 q 334 289 322 397 q 355 169 345 181 q 404 209 380 186 q 450 259 427 231 q 488 317 472 288 q 524 463 524 387 q 507 523 524 490 q 460 578 489 555 q 495 647 460 617 q 560 676 530 676 q 603 669 583 676 q 640 646 623 661 q 667 602 657 630 q 677 538 677 574 q 648 431 677 492 q 573 311 619 370 q 471 193 528 252 q 362 91 415 135 q 263 20 309 47 q 194 -7 218 -7 q 154 173 170 49 q 138 437 138 298 l 138 503 q 122 536 138 536 q 74 501 107 536 q 35 454 41 467 q 21 471 28 454 q 14 495 14 487 z "},"w":{"ha":1093,"x_min":12,"x_max":1070,"o":"m 12 495 q 49 545 23 515 q 108 604 75 574 q 179 655 141 634 q 245 676 217 676 q 284 670 269 676 q 308 651 300 663 q 318 624 315 638 q 321 591 321 610 l 321 543 l 321 513 q 332 296 321 398 q 354 182 344 195 q 413 242 381 201 q 467 328 444 284 q 519 486 506 408 q 546 527 524 505 q 596 568 569 550 q 650 598 624 586 q 690 611 677 611 q 709 347 690 506 q 722 261 715 301 q 734 197 728 221 q 742 169 739 172 q 814 225 775 186 q 881 310 853 263 q 917 454 917 372 q 899 522 917 488 q 854 578 882 555 q 888 647 854 617 q 953 676 922 676 q 996 669 976 676 q 1033 646 1016 661 q 1060 602 1050 630 q 1070 538 1070 574 q 1049 447 1070 498 q 994 346 1029 397 q 915 243 959 295 q 824 148 871 192 q 732 68 777 103 q 649 14 687 34 q 587 -6 610 -6 q 539 153 562 28 q 522 289 525 231 q 442 178 499 240 q 317 65 385 117 q 196 -7 249 14 q 154 175 171 50 q 137 437 137 300 l 137 503 q 121 536 137 536 q 73 501 106 536 q 33 454 39 467 q 19 471 26 454 q 12 495 12 487 z "},"x":{"ha":769,"x_min":-18,"x_max":754,"o":"m -18 89 q 3 155 -18 124 q 62 185 24 185 q 130 142 102 185 q 135 133 130 140 q 142 122 140 125 q 149 114 144 119 q 156 106 153 109 q 163 104 159 104 q 188 115 175 104 q 217 157 200 126 l 288 285 l 232 474 q 182 536 212 536 q 134 501 168 536 q 95 454 101 467 q 81 471 87 454 q 74 495 74 487 q 111 545 85 515 q 170 604 137 574 q 241 655 203 634 q 307 676 279 676 q 382 591 359 676 l 423 447 l 484 564 q 628 676 544 676 q 668 672 646 676 q 708 661 690 668 q 736 644 727 653 q 748 611 743 633 q 754 572 754 589 q 732 509 754 538 q 671 480 709 480 q 604 524 631 480 q 570 562 581 562 q 549 550 559 562 q 522 512 538 538 l 444 378 l 505 178 q 515 149 510 160 q 529 127 519 138 q 551 117 539 117 q 612 156 572 117 q 658 210 651 195 q 672 193 665 210 q 679 169 679 177 q 642 120 669 150 q 580 60 614 90 q 506 9 545 31 q 438 -12 467 -12 q 410 -6 422 -12 q 388 8 397 -1 q 370 30 378 16 q 357 57 362 44 q 345 87 351 70 q 309 215 345 94 l 250 101 q 105 -11 189 -11 q 5 16 44 -11 q -11 44 -4 24 q -18 89 -18 65 z "},"y":{"ha":754,"x_min":-115,"x_max":709,"o":"m -115 -235 q -100 -192 -115 -216 q -69 -159 -86 -169 q 0 -192 -43 -176 q 80 -208 43 -208 q 127 -202 106 -208 q 162 -190 149 -197 q 183 -174 174 -183 q 196 -160 193 -165 q 200 -151 199 -155 q 205 -133 203 -143 q 208 -110 207 -123 q 211 -86 210 -97 q 212 -57 212 -75 q 213 -30 213 -40 q 214 0 214 -20 q 214 27 214 20 q 214 54 214 34 q 214 77 214 74 q 207 222 214 145 q 188 370 201 298 q 154 489 176 442 q 107 536 133 536 q 78 524 94 536 q 51 497 62 511 q 30 469 40 483 q 20 454 20 455 q 4 473 12 456 q -1 495 -3 490 q 27 536 7 509 q 75 596 47 563 q 137 652 104 629 q 194 676 170 676 q 255 659 227 676 q 302 612 283 642 q 338 543 322 583 q 363 458 354 503 q 380 366 372 414 q 390 272 387 318 q 395 184 392 226 q 396 125 396 152 q 396 110 396 117 q 396 79 396 93 q 396 55 396 66 q 396 39 396 43 q 444 111 418 66 q 496 211 470 155 q 538 333 522 267 q 555 458 555 399 q 536 528 555 496 q 492 578 516 559 q 526 646 492 615 q 593 676 559 676 q 634 669 615 676 q 671 646 654 661 q 699 602 688 630 q 709 536 709 574 q 669 350 709 452 q 566 155 629 249 q 422 -28 503 62 q 262 -183 342 -117 q 107 -288 182 -248 q -16 -328 33 -328 q -66 -319 -45 -328 q -101 -288 -87 -309 q -115 -235 -115 -266 z "},"z":{"ha":664,"x_min":-24,"x_max":661,"o":"m -24 39 q 91 159 -24 50 q 321 376 205 269 q 438 485 437 484 q 409 477 431 481 q 375 473 388 473 q 262 495 307 473 q 251 501 258 497 q 237 507 243 505 q 223 514 231 510 q 208 520 214 517 q 193 525 201 523 q 178 529 185 528 q 164 530 171 530 q 133 519 149 530 q 109 498 117 509 q 90 472 100 488 q 78 454 79 456 q 60 467 68 454 q 51 491 53 479 q 84 545 63 515 q 134 606 106 575 q 195 657 161 636 q 256 677 228 677 q 331 669 299 677 q 399 644 362 661 q 524 616 463 616 q 629 676 565 616 q 638 675 634 676 q 645 672 642 674 q 651 668 648 670 q 654 663 653 666 q 657 657 656 659 q 659 651 658 655 q 660 645 659 646 q 660 639 660 643 q 661 634 661 635 q 547 515 661 625 q 316 297 433 406 q 199 189 199 189 q 228 196 206 191 q 262 200 249 200 q 375 178 330 200 q 391 170 378 176 q 412 160 405 163 q 431 152 419 157 q 454 145 444 147 q 473 143 464 143 q 504 154 488 143 q 528 175 519 164 q 548 202 537 186 q 559 218 558 218 q 576 206 569 218 q 586 182 584 193 q 552 128 574 158 q 503 67 531 98 q 442 16 475 37 q 381 -5 409 -5 q 306 4 338 -5 q 238 28 275 12 q 113 57 174 57 q 7 -3 72 57 q -1 -2 3 -3 q -8 1 -5 -1 q -14 5 -12 3 q -18 10 -16 7 q -20 16 -19 14 q -22 22 -21 18 q -23 28 -22 26 q -23 34 -23 30 q -24 39 -24 39 z "},"{":{"ha":373,"x_min":26,"x_max":459,"o":"m 58 -96 q 49 -79 58 -96 q 34 -22 41 -62 q 35 63 26 18 q 43 96 38 80 q 56 129 47 111 q 69 155 64 146 q 84 184 73 163 q 91 196 85 186 q 99 209 97 206 q 105 221 100 212 q 112 235 111 231 q 118 248 114 239 q 123 261 121 256 q 127 275 125 267 q 131 289 130 282 q 115 380 142 345 q 43 432 89 416 q 42 449 40 439 q 50 465 45 460 q 142 517 101 481 q 193 608 182 553 q 195 640 195 623 q 194 666 195 656 q 191 696 193 677 q 186 724 188 715 q 185 834 176 783 q 210 906 192 870 q 250 970 227 941 q 300 1025 273 999 q 353 1068 327 1050 q 403 1098 380 1086 q 444 1114 427 1110 q 455 1102 451 1114 q 454 1081 459 1090 q 415 1056 437 1072 q 372 1017 394 1040 q 332 963 349 994 q 309 902 315 932 q 303 850 303 874 q 304 814 302 825 q 312 777 307 803 q 318 742 316 754 q 319 704 319 730 q 313 650 319 677 q 291 587 307 618 q 254 532 275 555 q 212 490 234 509 q 171 461 190 471 q 137 449 151 451 q 173 430 154 446 q 210 388 193 414 q 235 326 228 361 q 235 247 242 290 q 185 121 222 185 q 179 110 184 119 q 173 99 174 102 q 167 89 172 96 q 161 77 163 81 q 156 66 159 74 q 150 54 152 59 q 145 42 149 50 q 140 27 142 34 q 136 13 138 21 q 132 -5 134 4 q 133 -66 127 -38 q 151 -119 138 -95 q 179 -159 165 -143 q 208 -184 194 -175 q 200 -205 209 -193 q 185 -217 192 -217 q 143 -196 166 -212 q 97 -155 120 -180 q 58 -96 75 -130 z "},"|":{"ha":301,"x_min":2,"x_max":331,"o":"m 3 -173 q 259 1140 154 630 q 306 1154 278 1154 q 323 1149 316 1154 q 330 1138 331 1145 l 74 -175 q 21 -189 55 -189 q 7 -183 12 -189 q 3 -173 2 -178 z "},"}":{"ha":373,"x_min":-65,"x_max":366,"o":"m -53 -217 q -62 -205 -60 -217 q -60 -184 -65 -193 q -22 -159 -43 -175 q 21 -119 -1 -142 q 60 -66 43 -96 q 83 -5 77 -35 q 88 34 87 16 q 88 66 90 51 q 85 93 87 82 q 80 119 83 103 q 74 154 75 142 q 72 193 72 166 q 78 247 73 219 q 109 325 86 288 q 159 388 132 363 q 212 430 186 414 q 256 449 238 446 q 219 468 239 452 q 182 509 199 484 q 157 572 165 534 q 157 650 149 610 q 172 708 163 682 q 190 749 182 734 q 211 786 198 764 q 230 820 224 808 q 245 854 237 832 q 259 902 254 877 q 259 964 264 935 q 241 1016 254 992 q 213 1056 227 1040 q 185 1081 199 1072 q 192 1102 184 1090 q 206 1114 199 1114 q 248 1094 225 1109 q 294 1052 271 1078 q 334 993 317 1027 q 358 920 351 960 q 357 834 366 880 q 310 720 347 784 q 300 703 309 718 q 290 683 292 688 q 282 666 288 679 q 273 647 276 654 q 267 629 271 640 q 262 608 264 618 q 278 517 252 553 q 349 465 304 481 q 349 449 352 460 q 343 432 346 435 q 251 380 292 416 q 200 289 211 345 q 197 266 198 278 q 197 245 197 254 q 198 223 197 236 q 201 203 200 210 q 205 182 202 197 q 206 63 216 113 q 175 -22 198 20 q 122 -96 152 -64 q 60 -155 93 -128 q -3 -197 26 -181 q -53 -217 -32 -212 z "},"~":{"ha":810,"x_min":84,"x_max":751,"o":"m 84 405 q 120 472 84 439 q 203 523 155 505 q 290 541 250 541 q 360 532 327 541 q 421 512 394 524 q 475 489 448 500 q 535 469 502 477 q 605 460 569 460 q 710 501 652 460 q 745 527 717 506 q 751 505 751 524 q 732 454 751 479 q 683 410 712 429 q 617 380 653 392 q 548 369 581 369 q 477 377 511 369 q 416 397 444 385 q 362 420 389 409 q 301 440 335 432 q 231 449 267 449 q 181 439 206 449 q 142 419 157 429 q 98 389 127 410 q 90 382 93 385 q 84 405 84 385 z "},"":{"ha":332,"x_min":0,"x_max":0,"o":""},"":{"ha":355,"x_min":-42,"x_max":312,"o":"m -42 -281 q 30 -3 -42 -245 q 132 331 102 238 q 144 355 137 345 q 157 364 151 364 q 182 352 172 364 q 193 321 193 340 q 181 164 193 298 q 157 -102 170 30 q 140 -256 144 -235 q 100 -330 132 -302 q 33 -358 68 -358 q -21 -337 0 -358 q -42 -281 -42 -317 m 101 528 q 143 625 101 583 q 232 667 185 667 q 290 641 267 667 q 312 576 312 616 q 272 481 312 522 q 182 441 232 441 q 160 444 171 441 q 140 452 149 447 q 124 466 132 458 q 112 483 117 473 q 104 504 106 492 q 101 528 101 516 z "},"":{"ha":611,"x_min":38,"x_max":570,"o":"m 38 197 q 59 337 38 266 q 119 468 81 408 q 204 575 157 528 q 307 649 252 622 q 416 676 363 676 q 495 666 458 676 q 548 643 532 656 q 570 568 570 609 q 564 534 570 551 q 546 505 557 517 q 518 484 534 492 q 486 476 503 476 q 410 532 439 476 q 405 541 409 533 q 399 551 401 548 q 394 561 398 553 q 387 571 390 568 q 380 580 385 574 q 372 589 376 586 q 363 595 368 591 q 354 600 359 598 q 343 601 349 601 q 302 569 323 601 q 264 488 281 537 q 238 376 248 439 q 227 256 227 314 q 251 149 227 181 q 321 116 274 116 q 341 118 330 116 q 362 125 352 121 q 382 136 372 130 q 401 148 393 142 q 419 162 410 155 q 436 175 429 169 q 450 188 443 182 q 460 199 456 195 q 468 207 465 203 q 471 211 471 211 q 485 196 479 211 q 491 172 491 181 q 465 139 483 159 q 418 93 447 119 q 357 44 389 67 q 288 6 326 22 q 218 -9 251 -9 q 152 4 184 -9 q 95 41 121 16 q 53 106 68 65 q 38 197 38 146 m 158 -54 l 423 713 q 436 713 429 713 q 454 712 444 713 q 470 708 464 711 q 476 702 476 705 l 211 -68 q 176 -64 195 -68 q 158 -54 157 -61 z "},"":{"ha":715,"x_min":-3,"x_max":656,"o":"m 0 32 q 57 94 12 50 q 113 153 102 138 q 180 349 157 230 q 185 463 188 388 l 86 463 q 99 497 81 469 q 126 526 117 526 l 184 526 q 185 589 181 570 q 233 729 201 665 q 304 836 265 793 q 390 909 344 879 q 480 952 436 939 q 564 965 524 965 q 590 963 579 965 q 611 956 601 962 q 625 949 621 951 q 640 938 629 947 q 652 928 651 928 q 656 907 656 920 q 653 882 656 895 q 643 854 650 868 q 628 830 637 841 q 606 812 619 819 q 580 806 593 806 q 548 813 562 806 q 526 832 534 821 q 510 854 518 843 q 490 873 502 865 q 460 881 477 881 q 412 854 434 881 q 375 787 389 828 q 351 691 360 745 q 347 661 349 677 q 345 633 345 646 q 344 604 344 621 q 344 578 344 588 q 345 551 345 568 q 347 526 346 534 l 569 526 q 567 492 580 515 q 542 463 553 469 l 348 463 q 342 406 345 426 q 318 330 334 366 q 282 265 302 293 q 244 218 262 237 q 208 184 226 199 q 304 206 251 206 q 347 196 321 206 q 395 174 372 186 q 446 152 417 162 q 500 142 475 142 q 529 148 515 142 q 552 159 543 153 q 572 178 562 165 q 587 196 583 191 q 597 212 590 201 q 609 211 602 214 q 618 201 615 208 q 621 173 624 194 q 598 135 612 156 q 562 87 585 114 q 514 39 539 60 q 458 3 490 18 q 395 -12 426 -12 q 350 -5 372 -12 q 310 11 328 1 q 271 33 292 21 q 231 54 250 44 q 188 70 212 64 q 140 77 164 77 q 130 75 136 77 q 117 69 125 73 q 103 60 109 64 q 86 49 96 56 q 71 37 77 41 q 54 24 65 33 q 40 12 43 15 q 26 0 36 9 q 15 -9 16 -9 q 2 6 7 -9 q 0 32 -3 21 z "},"":{"ha":811,"x_min":81,"x_max":760,"o":"m 81 232 l 172 309 q 159 463 144 378 q 247 637 180 564 l 190 721 q 193 734 186 725 q 210 753 199 743 q 236 771 222 762 q 263 783 250 779 l 321 700 q 473 747 393 747 q 617 685 560 747 l 715 768 q 732 765 720 773 q 750 738 742 757 q 760 702 759 720 l 659 617 q 670 463 686 545 q 591 300 652 371 l 650 212 q 646 196 654 209 q 634 183 642 190 q 617 170 626 176 q 598 158 608 163 q 578 151 587 153 l 521 233 q 361 180 444 180 q 214 241 271 180 l 125 165 q 111 167 118 161 q 92 195 101 176 q 81 232 82 214 m 294 480 q 286 384 283 429 q 301 305 289 338 q 336 252 314 271 q 384 233 357 233 q 476 294 434 233 q 536 443 518 355 q 542 569 549 513 q 510 660 535 625 q 450 694 486 694 q 355 631 399 694 q 294 480 311 568 z "},"":{"ha":949,"x_min":140,"x_max":1015,"o":"m 143 912 q 143 940 140 920 q 152 966 146 960 q 347 956 241 956 q 539 966 444 956 q 539 940 543 960 q 528 912 535 920 q 521 912 528 912 q 510 911 514 911 q 499 910 507 911 q 486 907 491 909 q 473 904 480 906 q 461 899 466 902 q 451 892 456 896 q 443 884 446 889 q 438 873 439 879 q 438 868 437 871 q 439 864 439 865 q 442 858 440 862 q 444 850 444 854 l 542 527 q 622 626 546 522 q 777 844 698 730 q 789 878 786 860 q 785 889 790 884 q 770 898 780 895 q 751 904 761 901 q 729 908 741 907 q 709 911 716 910 q 696 912 703 911 q 696 940 692 920 q 706 966 701 960 q 746 962 720 965 q 783 959 772 960 q 814 957 794 958 q 857 956 834 956 q 942 961 891 956 q 1012 966 993 966 q 1011 940 1015 960 q 1001 912 1008 920 q 993 912 1001 912 q 980 911 985 911 q 966 909 975 910 q 950 906 956 907 q 934 902 943 905 q 918 896 924 899 q 904 887 911 892 q 892 876 897 882 q 726 661 854 829 q 560 435 597 492 q 547 408 548 418 l 509 212 q 494 74 486 109 q 575 48 496 55 q 574 21 578 41 q 564 -6 570 1 q 372 5 475 5 q 179 -6 274 5 q 178 9 177 -1 q 182 32 178 20 q 190 48 185 43 q 281 74 271 55 q 290 92 286 82 q 298 118 294 102 q 304 143 302 134 q 312 178 307 153 q 319 212 317 203 l 358 414 q 355 444 360 425 q 321 565 347 479 q 273 717 295 650 l 252 785 q 238 826 245 802 q 226 864 231 849 q 210 887 221 877 q 185 902 199 897 q 162 909 172 907 q 143 912 151 911 m 176 206 q 199 262 176 237 l 665 262 q 670 252 670 262 q 650 196 670 214 l 184 196 q 176 206 176 196 m 201 340 q 224 396 201 371 l 691 396 q 696 385 696 396 q 676 330 696 347 l 210 330 q 201 340 201 330 z "},"":{"ha":307,"x_min":3,"x_max":332,"o":"m 5 -173 q 115 387 17 -124 q 161 401 134 401 q 179 397 172 401 q 185 385 186 393 l 75 -175 q 22 -189 57 -189 q 12 -186 16 -189 q 5 -180 7 -183 q 5 -173 3 -176 m 151 580 q 260 1140 163 629 q 307 1154 279 1154 q 325 1149 317 1154 q 331 1138 332 1145 l 221 578 q 169 564 203 564 q 154 569 159 564 q 151 580 149 574 z "},"":{"ha":659,"x_min":31,"x_max":637,"o":"m 35 -78 q 57 -32 39 -51 q 104 -14 75 -14 q 128 -20 117 -14 q 144 -31 139 -26 q 157 -47 149 -37 q 205 -63 169 -63 q 253 -55 229 -63 q 300 -28 278 -47 q 327 18 321 -9 q 326 55 330 35 q 310 99 321 76 q 287 143 298 123 q 256 190 275 164 q 225 230 237 215 q 196 267 214 245 q 189 275 193 269 q 160 311 170 299 q 134 346 150 323 q 111 384 118 369 q 94 422 103 399 q 82 466 85 446 q 80 513 80 487 q 86 568 80 540 q 127 663 94 609 q 202 762 161 716 q 283 844 244 808 q 347 896 321 880 q 245 747 269 827 q 201 649 213 705 q 197 597 197 623 q 200 551 197 572 q 213 507 204 530 q 230 468 221 485 q 253 430 239 451 q 278 396 267 410 q 304 363 288 382 q 328 334 312 353 q 346 314 340 321 q 363 292 352 307 q 381 269 374 278 q 396 246 387 260 q 410 221 405 232 q 420 196 414 210 q 427 169 425 182 q 429 142 429 157 q 426 113 429 127 q 425 109 426 111 q 424 105 425 106 q 422 101 423 103 q 422 96 422 98 q 385 56 418 93 q 334 -5 349 22 q 328 -19 330 -12 q 325 -36 326 -26 q 322 -51 323 -45 q 219 -115 276 -92 q 102 -138 162 -138 q 69 -132 89 -138 q 36 -117 49 -125 q 35 -78 31 -100 m 242 675 q 241 682 242 675 q 240 703 240 688 q 242 732 239 718 q 244 739 243 734 q 245 747 245 745 q 283 787 256 760 q 334 849 319 822 q 341 864 339 857 q 343 880 342 871 q 347 896 345 890 q 411 941 376 922 q 485 972 445 960 q 566 983 526 983 q 632 964 593 983 q 632 918 637 947 q 611 874 627 891 q 566 858 595 858 q 549 860 557 858 q 534 869 541 863 q 524 878 526 876 q 515 888 522 880 q 464 908 498 908 q 415 900 440 908 q 368 872 390 892 q 342 827 347 853 q 346 780 338 807 q 366 729 354 753 q 400 673 378 705 q 437 623 422 641 q 473 578 451 605 q 479 570 475 575 q 509 533 499 546 q 535 498 519 521 q 558 461 551 476 q 575 422 566 446 q 586 378 584 399 q 588 332 589 358 q 583 277 588 305 q 541 182 574 235 q 466 82 508 128 q 386 1 425 37 q 322 -51 347 -35 q 422 96 399 16 q 467 196 455 140 q 472 247 472 222 q 468 294 471 273 q 455 337 465 315 q 438 376 446 360 q 415 414 429 393 q 390 448 400 435 q 364 481 380 461 q 340 510 357 491 q 322 531 328 524 q 305 552 316 538 q 288 575 294 566 q 273 598 281 585 q 259 623 264 612 q 249 648 254 634 q 242 675 243 663 z "},"":{"ha":519,"x_min":22,"x_max":497,"o":"m 30 843 q 53 895 35 871 q 96 933 71 919 q 148 947 121 947 q 210 917 188 947 q 224 843 233 886 q 182 769 216 800 q 107 738 147 738 q 44 769 66 738 q 30 843 22 800 m 294 843 q 302 871 296 857 q 317 896 309 884 q 337 917 326 907 q 360 933 348 926 q 386 943 372 939 q 412 947 399 947 q 475 917 453 947 q 490 843 497 886 q 466 791 484 815 q 422 752 448 766 q 370 738 397 738 q 308 769 330 738 q 294 843 286 800 z "},"":{"ha":927,"x_min":84,"x_max":870,"o":"m 95 468 q 130 598 103 535 q 199 711 157 661 q 292 800 240 762 q 404 858 343 838 q 527 879 465 879 q 672 847 605 879 q 783 760 739 814 q 849 628 828 705 q 860 468 870 552 q 809 308 849 385 q 711 177 770 232 q 578 90 653 122 q 426 57 504 57 q 282 90 349 57 q 171 177 215 122 q 105 308 126 232 q 95 468 84 385 m 198 600 q 181 568 198 600 q 157 467 165 536 q 166 333 149 397 q 220 224 183 270 q 313 151 258 178 q 433 123 369 123 q 536 141 486 123 q 631 190 587 158 q 709 264 674 222 q 766 358 743 306 q 795 467 788 411 q 786 600 803 536 q 731 710 768 664 q 638 783 694 755 q 518 810 583 810 q 391 783 453 810 q 280 710 328 755 q 198 600 231 664 m 277 459 q 321 576 285 524 q 408 657 357 629 q 513 685 458 685 q 551 681 530 685 q 598 670 571 677 q 632 661 625 663 q 636 615 632 659 q 640 568 641 572 q 632 562 640 566 q 617 559 623 559 q 610 560 611 559 q 607 575 609 568 q 601 593 605 582 q 590 612 597 604 q 573 629 583 621 q 547 641 563 637 q 512 646 531 646 q 468 635 488 646 q 433 608 448 625 q 406 567 418 591 q 388 519 395 544 q 378 467 381 494 q 379 376 372 417 q 411 309 387 336 q 474 283 435 283 q 551 309 523 283 q 575 338 563 319 q 593 369 587 357 q 601 385 600 381 q 627 379 623 385 q 611 327 624 367 q 591 285 597 286 q 563 273 584 281 q 527 259 541 264 q 492 250 513 254 q 453 245 471 245 q 314 303 363 245 q 277 459 264 361 z "},"":{"ha":600,"x_min":83,"x_max":577,"o":"m 83 495 q 104 600 83 548 q 162 693 126 652 q 242 767 198 734 q 333 817 286 799 q 422 834 380 834 q 486 828 450 834 q 539 816 522 822 l 473 526 q 470 509 473 523 q 468 492 468 494 q 472 478 468 484 q 485 471 477 471 q 530 498 500 471 q 563 533 559 524 q 573 516 569 530 q 575 492 577 503 q 500 416 558 461 q 401 370 441 370 q 350 385 370 370 q 330 432 330 400 q 333 453 330 438 q 334 463 334 456 q 336 471 335 469 q 269 405 315 437 q 178 372 223 372 q 108 407 133 372 q 83 495 83 441 m 221 533 q 232 479 221 498 q 260 460 242 460 q 301 490 279 460 q 344 567 324 520 q 375 664 363 614 l 396 755 q 357 768 384 768 q 289 734 320 768 q 239 647 257 701 q 221 533 221 593 z "},"":{"ha":720,"x_min":35,"x_max":686,"o":"m 38 374 q 51 396 40 385 q 117 435 84 415 q 177 474 149 456 q 230 510 204 492 q 276 544 255 528 q 315 573 297 559 q 347 598 333 587 q 370 617 361 610 q 386 631 380 625 q 393 637 393 636 q 404 632 397 636 q 417 622 410 629 q 425 608 423 615 q 322 502 414 595 q 191 374 231 408 q 244 292 210 349 q 305 190 279 235 q 334 138 330 146 q 314 120 328 128 q 290 110 299 111 q 278 125 290 110 q 247 163 267 140 q 198 216 227 186 q 129 281 170 245 q 43 351 88 317 q 38 374 35 362 m 300 374 q 313 396 302 385 q 379 435 347 415 q 439 474 412 456 q 492 510 466 492 q 538 544 517 528 q 577 573 559 559 q 609 598 595 587 q 632 617 623 610 q 648 631 642 625 q 655 637 654 636 q 673 627 663 635 q 686 608 684 618 q 584 502 675 595 q 453 374 493 408 q 506 292 471 349 q 566 190 541 234 q 595 138 591 146 q 589 131 593 135 q 582 125 586 127 q 574 119 578 122 q 566 115 570 117 q 558 112 562 113 q 553 110 555 111 q 541 125 553 110 q 508 163 528 140 q 459 216 488 186 q 390 281 431 245 q 304 351 349 317 q 300 374 297 360 z "},"":{"ha":777,"x_min":90,"x_max":699,"o":"m 90 491 q 111 555 90 530 l 699 555 l 632 217 q 621 208 631 214 q 594 197 610 202 q 568 193 578 193 q 550 196 557 193 q 543 205 543 200 l 596 479 l 98 479 q 90 491 90 479 z "},"":{"ha":433,"x_min":96,"x_max":484,"o":"m 96 313 q 109 365 96 329 q 132 402 121 401 l 474 420 q 484 402 484 420 q 469 347 484 385 q 444 307 454 308 l 104 290 q 96 313 96 290 z "},"":{"ha":927,"x_min":98,"x_max":885,"o":"m 109 545 q 144 675 117 612 q 212 788 171 738 q 305 877 254 839 q 417 936 357 915 q 541 956 478 956 q 686 924 618 956 q 798 836 753 891 q 864 705 843 781 q 874 545 885 629 q 824 385 864 461 q 726 254 784 309 q 592 166 667 199 q 440 134 517 134 q 295 166 362 134 q 184 254 229 199 q 119 385 140 309 q 109 545 98 461 m 213 677 q 196 645 213 677 q 172 543 180 613 q 181 410 163 473 q 236 300 199 347 q 328 227 273 254 q 449 200 384 200 q 576 227 513 200 q 687 300 639 254 q 769 410 736 347 q 810 544 802 473 q 801 677 819 614 q 746 786 783 741 q 654 860 709 832 q 533 887 598 887 q 406 860 468 887 q 295 786 343 832 q 213 677 246 741 m 295 352 q 294 364 293 355 q 298 376 296 373 q 320 380 306 376 q 336 389 334 383 q 347 444 341 399 l 374 664 q 376 720 379 710 q 340 728 374 728 q 341 742 339 732 q 345 754 342 752 q 427 753 370 753 q 468 753 439 753 q 515 754 497 754 q 603 725 570 754 q 629 643 636 695 q 592 581 625 610 q 533 545 559 552 q 566 491 548 519 q 595 448 584 463 l 605 433 q 638 397 621 411 q 665 381 656 384 q 679 378 674 378 q 679 370 680 376 q 677 358 678 364 q 676 352 676 353 q 613 349 643 349 q 563 362 582 349 q 527 404 544 375 l 458 526 q 449 534 453 534 l 439 534 l 429 444 q 426 389 424 398 q 441 380 427 383 q 463 376 454 376 q 462 364 463 373 q 459 352 461 355 q 378 357 425 357 q 295 352 329 357 m 444 563 l 467 563 q 501 572 485 563 q 528 598 517 581 q 542 638 539 616 q 534 701 547 676 q 494 726 522 726 q 465 720 468 726 q 458 682 460 706 l 444 563 z "},"":{"ha":393,"x_min":18,"x_max":382,"o":"m 18 751 q 25 782 18 761 q 38 802 33 802 l 375 802 q 380 799 377 802 q 382 792 382 796 q 378 765 382 783 q 366 738 374 747 l 22 738 q 18 751 18 742 z "},"":{"ha":422,"x_min":119,"x_max":456,"o":"m 132 808 q 200 926 146 878 q 319 974 255 974 q 420 926 384 974 q 443 808 456 878 q 374 690 429 739 q 255 640 319 640 q 155 690 191 640 q 132 808 119 739 m 197 808 q 210 739 189 768 q 268 709 231 709 q 338 739 305 709 q 378 808 370 768 q 365 878 386 849 q 307 906 345 906 q 259 893 283 906 q 219 858 236 880 q 197 808 202 835 z "},"":{"ha":769,"x_min":14,"x_max":717,"o":"m 14 28 q 36 94 14 64 l 625 94 q 629 81 629 94 q 610 16 629 38 l 21 16 q 14 28 14 16 m 101 474 q 123 539 101 509 l 375 539 l 425 796 q 455 815 427 809 q 498 821 483 821 q 510 817 507 821 q 512 808 513 814 l 459 539 l 712 539 q 717 527 717 539 q 697 463 717 484 l 447 463 l 395 200 q 371 183 393 190 q 330 176 350 176 q 313 180 319 176 q 309 189 307 183 l 363 463 l 109 463 q 101 474 101 463 z "},"":{"ha":510,"x_min":63,"x_max":506,"o":"m 63 404 q 169 508 129 467 q 271 616 209 549 q 370 808 370 725 q 353 866 370 846 q 300 887 335 887 q 265 881 282 887 q 235 866 248 876 q 213 849 222 857 q 196 833 203 841 q 186 823 188 825 q 179 826 184 823 q 170 836 174 829 q 167 850 165 842 q 194 884 178 867 q 235 923 210 902 q 294 957 260 943 q 361 970 327 970 q 442 949 408 970 q 491 899 475 929 q 506 833 506 869 q 492 770 506 803 q 454 708 477 738 q 406 653 430 677 q 355 607 382 629 q 314 571 340 594 q 267 532 288 549 q 218 497 245 515 l 357 497 q 375 499 366 497 q 391 506 383 501 q 404 516 398 511 q 415 529 409 520 q 425 543 421 537 q 434 558 428 548 q 443 572 440 568 q 456 580 448 580 q 477 575 473 580 q 430 471 465 545 q 387 382 395 397 l 69 382 q 63 404 63 391 z "},"":{"ha":509,"x_min":63,"x_max":492,"o":"m 68 449 q 89 490 72 471 q 130 509 106 509 q 144 506 138 509 q 156 499 151 503 q 166 487 161 494 q 175 473 171 479 q 182 456 178 466 q 235 416 198 416 q 311 459 276 416 q 347 560 347 503 q 339 612 347 588 q 314 654 332 636 q 269 671 296 671 q 223 667 238 671 q 220 684 220 676 q 223 703 220 697 q 245 707 234 705 q 272 715 257 710 q 300 727 287 720 q 327 743 314 733 q 350 766 340 753 q 366 795 360 778 q 372 831 372 812 q 356 876 372 858 q 304 895 340 895 q 282 891 294 895 q 261 882 271 888 q 242 870 251 876 q 224 856 233 863 q 210 842 216 848 q 200 831 205 837 q 194 825 195 825 q 179 837 187 827 q 175 857 171 847 q 264 939 213 907 q 366 970 316 970 q 398 967 382 970 q 432 956 414 964 q 462 936 449 948 q 484 903 475 924 q 492 855 492 882 q 485 815 492 834 q 465 782 477 796 q 438 756 452 768 q 408 737 423 745 q 381 724 393 729 q 360 718 369 720 q 384 715 372 718 q 416 705 396 713 q 450 685 435 697 q 475 649 465 673 q 486 593 486 625 q 466 512 486 550 q 413 449 446 475 q 340 405 380 423 q 261 377 300 386 q 189 369 222 369 q 137 374 161 369 q 96 387 113 380 q 73 404 80 395 q 68 449 63 425 z "},"":{"ha":304,"x_min":30,"x_max":289,"o":"m 30 755 q 89 846 34 770 q 175 950 144 922 q 185 955 178 953 q 202 959 193 958 q 221 960 212 960 q 267 943 244 960 q 289 899 289 926 q 255 852 289 880 q 176 801 220 825 q 93 759 132 777 q 43 738 55 741 q 30 755 32 745 z "},"":{"ha":796,"x_min":1,"x_max":701,"o":"m 1 -191 q 42 7 1 -153 q 125 307 83 168 q 138 382 130 328 q 148 449 146 437 q 185 642 149 453 q 219 661 192 650 q 259 671 246 671 q 304 650 272 671 q 334 616 337 629 q 269 401 315 519 l 248 336 q 244 191 232 247 q 290 136 256 136 q 341 149 318 136 q 382 189 365 163 q 412 242 399 214 q 435 307 424 271 l 507 652 q 543 668 524 663 q 576 671 563 673 q 645 650 620 668 q 667 616 671 632 q 643 525 663 590 q 589 370 623 460 l 575 336 q 564 276 568 302 q 556 224 559 251 q 554 180 553 198 q 559 147 555 162 q 573 125 564 132 q 597 117 583 117 q 633 126 613 117 q 667 146 653 136 q 688 164 681 156 q 700 144 692 164 q 701 129 701 140 q 699 115 700 118 q 633 29 675 64 q 553 -6 591 -6 q 502 24 522 -5 q 473 99 481 54 q 470 193 466 143 q 433 130 448 155 q 395 75 417 105 q 352 28 372 45 q 307 -1 332 11 q 254 -14 281 -14 q 238 -11 245 -14 q 225 -3 231 -9 q 215 8 220 3 q 208 23 211 13 q 202 40 204 33 q 198 59 200 46 q 195 77 196 72 q 193 97 195 83 q 191 115 192 111 q 176 51 191 109 q 151 -63 162 -7 q 141 -186 140 -119 q 164 -288 142 -252 q 127 -321 155 -300 q 83 -342 99 -342 q 41 -327 58 -342 q 16 -288 24 -313 q 5 -240 8 -263 q 1 -191 1 -217 z "},"":{"ha":843,"x_min":102,"x_max":902,"o":"m 102 663 q 121 762 102 715 q 170 844 139 809 q 239 908 201 880 q 320 955 278 937 q 401 983 361 973 q 473 992 440 992 q 597 989 517 992 q 700 986 677 986 q 899 997 802 986 q 899 969 902 989 q 888 941 895 949 q 793 914 804 934 q 754 772 774 879 l 663 292 q 606 123 645 203 q 520 -9 568 44 q 421 -93 473 -62 q 323 -123 369 -123 q 257 -115 288 -123 q 212 -96 227 -106 q 199 -47 199 -75 q 215 5 199 -17 q 256 27 231 27 q 319 -9 293 27 q 324 -16 320 -10 q 329 -23 328 -21 q 333 -30 330 -24 q 339 -36 337 -35 q 345 -42 341 -38 q 352 -47 349 -45 q 358 -51 355 -49 q 366 -54 362 -53 q 375 -54 370 -54 q 425 -7 409 -54 q 468 181 441 40 q 488 286 480 248 l 587 808 q 602 922 606 901 q 574 937 599 937 q 531 925 553 937 q 487 891 509 913 q 447 839 465 869 q 419 770 429 810 q 408 690 408 731 q 429 561 408 610 q 500 488 450 512 q 504 483 502 487 q 506 476 506 478 q 481 444 506 459 q 425 419 456 428 q 369 411 393 411 q 271 427 316 411 q 195 469 226 443 q 143 528 165 494 q 112 595 122 561 q 102 663 102 629 z "},"":{"ha":357,"x_min":71,"x_max":281,"o":"m 71 376 q 111 469 71 429 q 199 509 151 509 q 258 484 235 509 q 281 422 281 459 q 242 327 281 371 q 157 283 203 283 q 95 310 119 283 q 71 376 71 337 z "},"":{"ha":611,"x_min":172,"x_max":423,"o":"m 172 -217 q 180 -187 172 -199 q 200 -175 189 -175 q 223 -184 212 -175 q 250 -202 235 -193 q 281 -211 264 -211 q 328 -194 310 -211 q 347 -151 347 -176 q 339 -122 347 -134 q 322 -103 332 -109 q 302 -98 313 -98 q 259 -110 286 -98 q 246 -103 256 -110 q 237 -92 237 -97 q 245 -80 237 -89 q 272 -50 253 -71 q 307 -6 290 -28 l 351 -6 l 316 -43 l 342 -43 q 397 -64 372 -43 q 423 -115 423 -84 q 413 -157 423 -136 q 386 -193 404 -177 q 346 -221 369 -209 q 297 -239 323 -233 q 242 -245 270 -245 q 206 -241 227 -245 q 178 -231 184 -236 q 172 -217 172 -224 z "},"":{"ha":425,"x_min":79,"x_max":408,"o":"m 81 379 q 82 401 79 383 q 89 418 85 418 q 126 425 100 418 q 159 439 152 431 q 176 476 165 446 q 190 522 187 507 l 238 769 q 240 820 243 800 q 224 840 237 840 q 157 816 210 840 q 149 827 152 817 q 148 846 145 838 q 151 857 148 854 q 258 904 198 876 q 353 948 317 931 q 390 965 389 965 l 391 965 q 402 952 395 965 q 408 935 408 939 q 368 807 382 878 l 312 521 q 309 438 300 450 q 338 424 315 429 q 372 418 361 418 q 372 409 373 418 q 368 390 370 399 q 364 379 365 380 q 224 385 232 385 q 81 379 220 385 z "},"":{"ha":538,"x_min":86,"x_max":532,"o":"m 86 526 q 112 633 86 578 q 178 732 138 689 q 270 803 218 775 q 369 831 321 831 q 433 824 405 831 q 484 801 460 817 q 519 754 507 784 q 532 680 532 724 q 505 573 532 629 q 437 475 478 518 q 344 405 396 433 q 244 378 292 378 q 163 394 198 378 q 107 445 127 411 q 86 526 86 479 m 224 509 q 225 491 224 500 q 228 469 225 481 q 234 446 230 456 q 245 430 237 437 q 262 423 252 423 q 316 451 291 423 q 358 521 342 479 q 384 609 374 563 q 393 696 393 656 q 391 724 393 710 q 386 753 390 739 q 375 778 382 768 q 357 787 368 787 q 302 760 328 787 q 260 689 276 732 q 234 599 243 647 q 224 509 224 551 z "},"":{"ha":720,"x_min":21,"x_max":673,"o":"m 21 138 q 123 245 32 152 q 254 374 215 338 q 201 455 236 397 q 142 556 167 513 q 113 608 117 600 q 126 622 117 615 q 143 632 135 629 q 157 637 151 636 q 169 622 157 637 q 201 583 180 606 q 249 531 221 560 q 318 466 277 502 q 404 396 359 429 q 408 374 410 387 q 395 351 406 362 q 329 312 361 332 q 269 273 296 292 q 217 237 242 255 q 170 203 191 219 q 132 174 149 188 q 100 149 114 160 q 77 129 86 137 q 61 116 67 121 q 54 110 55 111 q 35 120 47 111 q 21 138 23 129 m 283 138 q 332 190 288 144 q 432 292 375 235 q 516 374 489 349 q 464 455 498 397 q 404 556 429 513 q 375 608 379 600 q 395 627 381 618 q 417 637 409 635 q 423 630 418 636 q 436 613 428 623 q 456 589 444 604 q 484 559 469 575 q 518 523 498 543 q 560 483 538 503 q 609 440 582 463 q 665 396 637 417 q 670 374 673 387 q 656 351 668 362 q 591 312 623 332 q 531 273 558 292 q 478 237 503 255 q 431 203 452 219 q 392 174 410 188 q 360 149 374 160 q 337 129 347 137 q 321 116 328 121 q 315 110 315 111 q 296 120 307 111 q 283 138 285 128 z "},"":{"ha":1061,"x_min":77,"x_max":981,"o":"m 80 382 q 81 401 77 386 q 87 417 84 417 q 108 419 94 417 q 137 426 121 421 q 157 438 153 431 q 170 488 164 451 l 224 765 q 227 779 225 770 q 233 809 231 800 q 235 829 235 819 q 233 844 236 840 q 224 848 231 848 q 148 816 217 848 q 140 828 144 818 q 137 844 137 839 q 142 852 137 848 q 288 923 196 880 q 391 972 379 966 l 395 972 q 400 961 398 972 q 402 939 403 949 q 394 922 399 934 q 377 871 389 911 q 357 786 366 831 l 307 516 q 298 444 298 471 q 309 429 298 435 q 334 421 319 423 q 358 418 349 418 q 374 417 368 417 q 374 407 375 415 q 372 393 374 399 q 371 389 371 391 q 370 385 370 387 q 369 382 370 383 q 220 389 237 389 q 80 382 218 389 m 233 6 q 237 15 233 9 l 917 980 q 919 980 918 980 q 924 979 920 980 q 932 978 928 979 q 940 975 935 977 q 947 972 944 974 q 952 967 950 970 q 954 960 954 964 q 953 953 954 954 l 274 -12 q 270 -12 273 -12 q 260 -11 267 -12 q 248 -7 253 -9 q 238 -2 242 -5 q 233 6 233 1 m 538 189 l 933 587 q 960 602 949 602 q 974 593 967 602 q 980 578 981 584 l 912 229 l 962 229 q 970 214 970 229 q 964 189 970 203 q 953 165 959 174 l 899 165 l 869 5 q 802 -1 836 -1 q 765 1 783 -1 q 747 7 746 3 l 779 165 l 545 165 q 538 175 541 168 q 538 189 536 183 m 637 229 l 789 229 l 825 425 l 637 229 z "},"":{"ha":1124,"x_min":77,"x_max":1059,"o":"m 80 382 q 81 401 77 386 q 87 417 84 417 q 108 419 94 417 q 137 426 121 421 q 157 438 153 431 q 170 488 164 451 l 224 765 q 227 779 225 770 q 233 809 231 800 q 235 829 235 819 q 233 844 236 840 q 224 848 231 848 q 148 816 217 848 q 140 828 144 818 q 137 844 137 839 q 142 852 137 848 q 288 923 196 880 q 391 972 379 966 l 395 972 q 400 961 398 972 q 402 939 403 949 q 394 922 399 934 q 377 871 389 911 q 357 786 366 831 l 307 516 q 298 444 298 471 q 309 429 298 435 q 334 421 319 423 q 358 418 349 418 q 374 417 368 417 q 374 407 375 415 q 372 393 374 399 q 371 389 371 391 q 370 385 370 387 q 369 382 370 383 q 220 389 237 389 q 80 382 218 389 m 233 6 q 237 15 233 9 l 917 980 q 919 980 918 980 q 924 979 920 980 q 932 978 928 979 q 940 975 935 977 q 947 972 944 974 q 952 967 950 970 q 954 960 954 964 q 953 953 954 954 l 274 -12 q 270 -12 273 -12 q 260 -11 267 -12 q 248 -7 253 -9 q 238 -2 242 -5 q 233 6 233 1 m 616 18 q 721 122 681 81 q 823 231 762 163 q 923 423 923 339 q 905 481 923 460 q 852 501 888 501 q 818 496 835 501 q 788 481 801 490 q 766 464 775 472 q 748 447 756 456 q 739 438 740 439 q 726 446 734 438 q 720 465 718 454 q 746 499 730 481 q 788 537 763 517 q 846 571 812 557 q 914 584 880 584 q 978 572 949 584 q 1023 542 1006 561 q 1049 498 1040 522 q 1059 447 1059 474 q 1044 385 1059 418 q 1006 322 1030 353 q 959 268 983 292 q 908 221 935 243 q 866 186 892 209 q 819 146 840 163 q 771 111 798 130 l 909 111 q 930 115 920 111 q 947 123 941 119 q 962 137 954 127 q 974 152 970 146 q 985 170 977 157 q 995 186 993 183 q 1008 194 1000 194 q 1029 190 1025 194 q 982 86 1017 160 q 939 -3 947 12 l 622 -3 q 616 18 616 6 z "},"":{"ha":1072,"x_min":56,"x_max":994,"o":"m 60 449 q 81 490 64 471 q 122 509 98 509 q 152 495 140 509 q 175 456 164 481 q 227 416 191 416 q 303 459 268 416 q 339 560 339 503 q 332 612 339 588 q 307 654 325 636 q 262 671 289 671 q 215 667 231 671 q 212 684 212 676 q 215 703 212 697 q 248 710 231 705 q 287 724 265 714 q 325 747 309 734 q 353 783 342 761 q 364 831 364 804 q 348 876 364 858 q 296 895 332 895 q 275 891 286 895 q 254 882 264 888 q 234 870 243 876 q 217 856 225 863 q 203 842 208 848 q 192 831 197 837 q 186 825 187 825 q 172 837 180 827 q 167 857 163 847 q 257 939 205 907 q 358 970 309 970 q 391 967 375 970 q 424 956 407 964 q 455 936 441 948 q 476 903 468 924 q 485 855 485 882 q 474 808 485 830 q 447 771 463 786 q 412 744 431 755 q 378 726 393 732 q 352 718 363 720 q 376 715 364 718 q 408 705 389 713 q 443 685 428 697 q 468 649 457 673 q 479 593 479 625 q 458 512 479 550 q 406 449 438 475 q 333 405 373 423 q 254 377 293 386 q 180 369 215 369 q 110 379 142 369 q 64 404 77 390 q 60 449 56 425 m 239 6 q 242 15 239 9 l 923 980 q 925 980 924 980 q 930 979 926 980 q 938 978 935 979 q 946 975 941 977 q 953 972 950 974 q 958 967 956 970 q 960 960 960 964 q 959 953 960 954 l 280 -12 q 278 -12 279 -12 q 272 -11 276 -12 q 264 -10 268 -11 q 256 -8 260 -9 q 248 -5 251 -7 q 242 0 244 -3 q 239 6 239 3 m 549 189 l 945 587 q 972 602 960 602 q 986 593 979 602 q 992 578 994 584 l 924 229 l 974 229 q 981 214 981 229 q 976 189 981 203 q 965 165 970 174 l 912 165 l 881 5 q 814 -1 848 -1 q 778 1 795 -1 q 760 7 760 3 l 791 165 l 557 165 q 550 175 553 168 q 549 189 548 183 m 649 229 l 801 229 l 837 425 l 649 229 z "},"":{"ha":548,"x_min":-30,"x_max":479,"o":"m -30 -94 q -25 -34 -30 -60 q -6 18 -20 -9 q 34 71 7 45 q 102 122 61 96 q 152 148 111 127 q 217 185 193 170 q 275 258 275 222 q 264 296 275 277 q 243 322 253 314 q 224 336 234 330 q 228 346 224 340 q 236 358 231 353 q 244 366 240 363 q 275 357 255 366 q 319 333 296 349 q 365 298 343 317 q 400 254 386 279 q 414 205 414 229 q 411 177 414 191 q 405 152 409 163 q 395 130 401 141 q 382 111 389 119 q 368 95 376 103 q 352 81 359 87 q 335 68 345 75 q 320 57 326 62 q 305 47 313 53 q 292 39 296 42 q 216 -3 278 29 q 126 -59 155 -35 q 91 -99 102 -79 q 80 -144 80 -118 q 86 -176 80 -163 q 104 -196 92 -189 q 136 -203 117 -203 q 170 -191 151 -203 q 204 -165 189 -179 q 238 -138 219 -151 q 273 -126 258 -126 q 315 -139 298 -126 q 339 -171 332 -151 q 346 -213 347 -190 q 337 -258 346 -236 q 212 -313 293 -313 q 95 -282 151 -313 q 4 -199 38 -250 q -30 -94 -30 -148 m 281 569 q 303 621 287 597 q 345 661 320 646 q 395 676 369 676 q 457 644 435 676 q 471 569 479 612 q 449 518 466 542 q 407 481 432 495 q 357 468 382 468 q 296 498 318 468 q 281 569 274 528 z "},"":{"ha":933,"x_min":-96,"x_max":882,"o":"m -92 -6 q -93 17 -96 -2 q -84 48 -91 36 q -29 64 -68 48 q 22 96 10 80 q 92 201 50 133 l 534 939 q 565 977 545 956 q 596 997 586 997 q 613 993 605 997 q 623 986 622 989 l 764 223 q 773 163 768 197 q 781 115 779 128 q 795 84 785 97 q 818 65 806 71 q 844 55 829 58 q 866 50 859 51 q 879 50 873 50 q 879 19 882 40 q 870 -6 875 -1 q 789 0 857 -5 q 685 6 721 6 q 617 4 656 6 q 531 -2 577 1 q 471 -6 485 -5 q 472 24 467 -1 q 484 50 477 50 q 529 57 503 50 q 570 77 555 64 q 589 102 587 88 q 580 166 590 109 q 559 277 570 223 l 548 331 q 541 337 545 337 q 406 339 514 339 q 260 337 310 339 q 253 335 257 337 q 248 330 250 332 q 173 203 197 245 q 140 141 156 173 q 123 101 125 109 q 134 77 121 87 q 166 60 146 66 q 200 52 185 55 q 221 50 215 50 q 222 32 224 43 q 217 9 221 20 q 211 -6 214 -3 q 62 6 115 6 q 31 5 46 6 q 5 4 15 5 q -21 2 -5 4 q -44 0 -38 1 q -68 -3 -50 -1 q -92 -6 -87 -5 m 296 422 q 300 416 296 416 q 414 411 340 411 q 527 414 484 411 q 530 416 528 414 q 532 420 531 418 l 533 422 l 474 717 l 296 422 m 316 1225 q 331 1254 316 1242 q 363 1270 345 1265 q 401 1274 381 1274 q 439 1270 418 1274 q 470 1261 460 1267 q 565 1184 511 1237 q 629 1116 620 1131 q 616 1096 629 1106 q 558 1109 603 1098 q 458 1139 514 1121 q 359 1181 402 1157 q 316 1225 316 1204 z "},"":{"ha":933,"x_min":-96,"x_max":887,"o":"m -92 -6 q -93 17 -96 -2 q -84 48 -91 36 q -29 64 -68 48 q 22 96 10 80 q 92 201 50 133 l 534 939 q 565 977 545 956 q 596 997 586 997 q 613 993 605 997 q 623 986 622 989 l 764 223 q 773 163 768 197 q 781 115 779 128 q 795 84 785 97 q 818 65 806 71 q 844 55 829 58 q 866 50 859 51 q 879 50 873 50 q 879 19 882 40 q 870 -6 875 -1 q 789 0 857 -5 q 685 6 721 6 q 617 4 656 6 q 531 -2 577 1 q 471 -6 485 -5 q 472 24 467 -1 q 484 50 477 50 q 529 57 503 50 q 570 77 555 64 q 589 102 587 88 q 580 166 590 109 q 559 277 570 223 l 548 331 q 541 337 545 337 q 406 339 514 339 q 260 337 310 339 q 253 335 257 337 q 248 330 250 332 q 173 203 197 245 q 140 141 156 173 q 123 101 125 109 q 134 77 121 87 q 166 60 146 66 q 200 52 185 55 q 221 50 215 50 q 222 32 224 43 q 217 9 221 20 q 211 -6 214 -3 q 62 6 115 6 q 31 5 46 6 q 5 4 15 5 q -21 2 -5 4 q -44 0 -38 1 q -68 -3 -50 -1 q -92 -6 -87 -5 m 296 422 q 300 416 296 416 q 414 411 340 411 q 527 414 484 411 q 530 416 528 414 q 532 420 531 418 l 533 422 l 474 717 l 296 422 m 574 1116 q 638 1184 583 1131 q 733 1261 692 1237 q 764 1270 743 1267 q 802 1274 785 1274 q 840 1270 822 1274 q 872 1254 858 1265 q 887 1225 887 1242 q 844 1181 887 1204 q 745 1139 801 1157 q 644 1109 688 1121 q 587 1096 600 1098 q 574 1116 574 1106 z "},"":{"ha":933,"x_min":-96,"x_max":882,"o":"m -92 -6 q -93 17 -96 -2 q -84 48 -91 36 q -29 64 -68 48 q 22 96 10 80 q 92 201 50 133 l 534 939 q 565 977 545 956 q 596 997 586 997 q 613 993 605 997 q 623 986 622 989 l 764 223 q 773 163 768 197 q 781 115 779 128 q 795 84 785 97 q 818 65 806 71 q 844 55 829 58 q 866 50 859 51 q 879 50 873 50 q 879 19 882 40 q 870 -6 875 -1 q 789 0 857 -5 q 685 6 721 6 q 617 4 656 6 q 531 -2 577 1 q 471 -6 485 -5 q 472 24 467 -1 q 484 50 477 50 q 529 57 503 50 q 570 77 555 64 q 589 102 587 88 q 580 166 590 109 q 559 277 570 223 l 548 331 q 541 337 545 337 q 406 339 514 339 q 260 337 310 339 q 253 335 257 337 q 248 330 250 332 q 173 203 197 245 q 140 141 156 173 q 123 101 125 109 q 134 77 121 87 q 166 60 146 66 q 200 52 185 55 q 221 50 215 50 q 222 32 224 43 q 217 9 221 20 q 211 -6 214 -3 q 62 6 115 6 q 31 5 46 6 q 5 4 15 5 q -21 2 -5 4 q -44 0 -38 1 q -68 -3 -50 -1 q -92 -6 -87 -5 m 296 422 q 300 416 296 416 q 414 411 340 411 q 527 414 484 411 q 530 416 528 414 q 532 420 531 418 l 533 422 l 474 717 l 296 422 m 422 1123 q 485 1174 452 1147 q 546 1224 518 1200 q 597 1266 574 1247 q 629 1295 619 1285 q 650 1310 644 1310 q 654 1309 652 1310 q 657 1306 655 1308 q 660 1303 659 1305 q 664 1299 661 1302 q 667 1295 666 1296 q 711 1239 684 1273 q 767 1173 739 1206 q 812 1123 795 1141 q 793 1099 809 1104 q 718 1136 779 1103 q 629 1190 657 1168 q 521 1136 591 1168 q 432 1099 451 1104 q 424 1109 427 1101 q 422 1123 420 1116 z "},"":{"ha":933,"x_min":-96,"x_max":882,"o":"m -92 -6 q -93 17 -96 -2 q -84 48 -91 36 q -29 64 -68 48 q 22 96 10 80 q 92 201 50 133 l 534 939 q 565 977 545 956 q 596 997 586 997 q 613 993 605 997 q 623 986 622 989 l 764 223 q 773 163 768 197 q 781 115 779 128 q 795 84 785 97 q 818 65 806 71 q 844 55 829 58 q 866 50 859 51 q 879 50 873 50 q 879 19 882 40 q 870 -6 875 -1 q 789 0 857 -5 q 685 6 721 6 q 617 4 656 6 q 531 -2 577 1 q 471 -6 485 -5 q 472 24 467 -1 q 484 50 477 50 q 529 57 503 50 q 570 77 555 64 q 589 102 587 88 q 580 166 590 109 q 559 277 570 223 l 548 331 q 541 337 545 337 q 406 339 514 339 q 260 337 310 339 q 253 335 257 337 q 248 330 250 332 q 173 203 197 245 q 140 141 156 173 q 123 101 125 109 q 134 77 121 87 q 166 60 146 66 q 200 52 185 55 q 221 50 215 50 q 222 32 224 43 q 217 9 221 20 q 211 -6 214 -3 q 62 6 115 6 q 31 5 46 6 q 5 4 15 5 q -21 2 -5 4 q -44 0 -38 1 q -68 -3 -50 -1 q -92 -6 -87 -5 m 296 422 q 300 416 296 416 q 414 411 340 411 q 527 414 484 411 q 530 416 528 414 q 532 420 531 418 l 533 422 l 474 717 l 296 422 m 387 1117 q 416 1179 387 1147 q 454 1211 435 1199 q 494 1229 474 1223 q 538 1234 514 1234 q 588 1230 567 1234 q 632 1211 608 1225 q 667 1191 656 1197 q 701 1178 678 1185 q 745 1171 723 1171 q 846 1234 799 1171 q 855 1227 850 1233 q 860 1213 860 1221 q 831 1152 860 1183 q 773 1109 802 1122 q 709 1096 744 1096 q 659 1101 680 1096 q 614 1120 638 1106 q 580 1140 591 1134 q 546 1153 568 1146 q 501 1159 524 1159 q 401 1096 448 1159 q 395 1099 398 1097 q 390 1107 392 1102 q 387 1117 387 1112 z "},"":{"ha":933,"x_min":-96,"x_max":896,"o":"m -92 -6 q -93 17 -96 -2 q -84 48 -91 36 q -29 64 -68 48 q 22 96 10 80 q 92 201 50 133 l 534 939 q 565 977 545 956 q 596 997 586 997 q 613 993 605 997 q 623 986 622 989 l 764 223 q 773 163 768 197 q 781 115 779 128 q 795 84 785 97 q 818 65 806 71 q 844 55 829 58 q 866 50 859 51 q 879 50 873 50 q 879 19 882 40 q 870 -6 875 -1 q 789 0 857 -5 q 685 6 721 6 q 617 4 656 6 q 531 -2 577 1 q 471 -6 485 -5 q 472 24 467 -1 q 484 50 477 50 q 529 57 503 50 q 570 77 555 64 q 589 102 587 88 q 580 166 590 109 q 559 277 570 223 l 548 331 q 541 337 545 337 q 406 339 514 339 q 260 337 310 339 q 253 335 257 337 q 248 330 250 332 q 173 203 197 245 q 140 141 156 173 q 123 101 125 109 q 134 77 121 87 q 166 60 146 66 q 200 52 185 55 q 221 50 215 50 q 222 32 224 43 q 217 9 221 20 q 211 -6 214 -3 q 62 6 115 6 q 31 5 46 6 q 5 4 15 5 q -21 2 -5 4 q -44 0 -38 1 q -68 -3 -50 -1 q -92 -6 -87 -5 m 296 422 q 300 416 296 416 q 414 411 340 411 q 527 414 484 411 q 530 416 528 414 q 532 420 531 418 l 533 422 l 474 717 l 296 422 m 406 1204 q 448 1276 414 1246 q 521 1305 481 1305 q 582 1276 559 1305 q 596 1204 604 1246 q 555 1129 588 1162 q 484 1097 522 1097 q 421 1129 444 1097 q 406 1204 399 1162 m 699 1204 q 721 1255 704 1232 q 763 1292 738 1278 q 813 1305 787 1305 q 874 1276 852 1305 q 888 1204 896 1246 q 847 1129 880 1162 q 775 1097 814 1097 q 713 1129 735 1097 q 699 1204 690 1162 z "},"":{"ha":933,"x_min":-96,"x_max":882,"o":"m -92 -6 q -93 17 -96 -2 q -84 48 -91 36 q -29 64 -68 48 q 22 96 10 80 q 92 201 50 133 l 534 939 q 565 977 545 956 q 596 997 586 997 q 613 993 605 997 q 623 986 622 989 l 764 223 q 773 163 768 197 q 781 115 779 128 q 795 84 785 97 q 818 65 806 71 q 844 55 829 58 q 866 50 859 51 q 879 50 873 50 q 879 19 882 40 q 870 -6 875 -1 q 789 0 857 -5 q 685 6 721 6 q 617 4 656 6 q 531 -2 577 1 q 471 -6 485 -5 q 472 24 467 -1 q 484 50 477 50 q 529 57 503 50 q 570 77 555 64 q 589 102 587 88 q 580 166 590 109 q 559 277 570 223 l 548 331 q 541 337 545 337 q 406 339 514 339 q 260 337 310 339 q 253 335 257 337 q 248 330 250 332 q 173 203 197 245 q 140 141 156 173 q 123 101 125 109 q 134 77 121 87 q 166 60 146 66 q 200 52 185 55 q 221 50 215 50 q 222 32 224 43 q 217 9 221 20 q 211 -6 214 -3 q 62 6 115 6 q 31 5 46 6 q 5 4 15 5 q -21 2 -5 4 q -44 0 -38 1 q -68 -3 -50 -1 q -92 -6 -87 -5 m 296 422 q 300 416 296 416 q 414 411 340 411 q 527 414 484 411 q 530 416 528 414 q 532 420 531 418 l 533 422 l 474 717 l 296 422 m 490 1143 q 550 1247 500 1203 q 656 1291 600 1291 q 745 1247 713 1291 q 766 1143 778 1204 q 705 1038 755 1082 q 600 994 656 994 q 510 1038 543 994 q 490 1143 478 1082 m 554 1143 q 564 1085 547 1109 q 613 1061 581 1061 q 670 1085 644 1061 q 703 1143 696 1109 q 693 1200 710 1177 q 644 1224 676 1224 q 605 1213 624 1224 q 572 1184 585 1202 q 554 1143 559 1165 z "},"":{"ha":1301,"x_min":-99,"x_max":1248,"o":"m -94 -6 q -98 17 -98 0 q -92 48 -99 35 q -35 64 -76 48 q 20 96 6 80 q 43 125 33 111 q 61 148 54 139 q 79 174 67 157 q 98 201 90 191 l 574 888 q 586 916 586 908 q 572 931 586 925 q 548 938 558 938 q 547 966 544 947 q 555 994 551 986 q 764 989 617 989 q 996 994 797 989 q 1221 1000 1196 999 q 1238 777 1223 933 q 1224 771 1234 774 q 1204 769 1213 769 q 1183 781 1185 769 q 1169 829 1176 809 q 1151 870 1162 850 q 1126 904 1140 891 q 1093 925 1113 917 q 1048 933 1073 933 l 932 933 q 884 930 903 933 q 860 916 866 926 q 843 823 850 898 l 816 542 q 824 534 816 538 q 846 528 833 530 q 875 526 860 526 l 949 526 q 1015 534 991 526 q 1053 564 1038 543 q 1084 631 1067 585 q 1086 636 1085 634 q 1089 640 1088 638 q 1094 642 1091 642 q 1101 643 1097 643 q 1126 635 1121 643 l 1097 347 q 1072 340 1092 340 q 1054 352 1054 340 q 1042 407 1050 386 q 1027 434 1034 428 q 1013 444 1021 440 q 909 454 992 454 q 806 433 807 454 l 781 212 q 779 184 780 205 q 777 135 777 163 q 781 94 777 107 q 812 71 785 79 q 869 63 838 63 l 962 63 q 1097 113 1046 63 q 1141 168 1121 136 q 1186 256 1161 201 q 1207 265 1191 265 q 1232 262 1218 265 q 1248 256 1246 259 q 1230 214 1244 247 q 1210 166 1216 182 q 1191 122 1203 151 q 1173 75 1179 93 q 1159 35 1166 56 q 1147 -3 1152 13 l 656 -3 q 588 -3 623 -3 q 530 -4 553 -3 q 488 -4 507 -4 q 464 -5 469 -5 q 461 23 459 2 q 468 51 463 43 q 562 77 553 58 q 569 97 566 85 q 574 120 572 109 q 578 150 576 132 q 582 181 581 168 q 586 218 583 194 l 604 399 q 603 401 604 399 q 600 404 602 403 q 597 405 599 405 q 477 406 571 406 q 348 405 397 406 q 340 402 345 405 q 334 397 336 400 q 199 203 227 245 q 161 141 180 174 q 140 101 142 109 q 142 83 138 92 q 157 70 147 75 q 179 61 167 65 q 202 54 191 56 q 222 51 214 52 q 233 50 230 50 q 235 20 237 42 q 229 -6 233 -1 q 60 6 132 6 q 29 5 45 6 q 3 4 14 5 q -23 2 -7 4 q -45 0 -39 1 q -70 -3 -51 -1 q -94 -6 -90 -5 m 391 490 q 395 484 391 484 q 491 479 435 479 q 605 481 562 479 q 608 484 606 481 q 612 488 610 486 l 613 490 l 643 772 q 649 854 645 793 l 391 490 z "},"":{"ha":972,"x_min":78,"x_max":960,"o":"m 78 416 q 103 589 78 507 q 172 735 128 672 q 273 850 215 799 q 396 935 330 902 q 531 986 462 968 q 667 1004 600 1004 q 960 960 768 1004 q 952 853 960 948 q 941 744 943 758 q 930 730 940 736 q 908 723 920 723 q 890 728 895 723 q 886 759 889 743 q 876 796 883 775 q 857 837 868 817 q 828 875 846 856 q 788 908 810 894 q 735 931 766 922 q 667 939 703 939 q 553 914 608 939 q 451 841 497 889 q 369 729 404 793 q 315 581 334 665 q 295 404 295 496 q 299 340 295 372 q 311 274 302 309 q 333 208 320 239 q 367 149 346 177 q 413 100 387 121 q 473 68 438 80 q 549 56 509 56 q 648 73 601 56 q 730 121 694 91 q 794 191 762 146 q 843 266 827 236 q 864 307 860 296 q 911 289 895 307 q 865 169 907 271 q 808 60 823 68 q 672 6 743 24 q 507 -11 602 -11 q 351 14 422 -11 q 229 81 279 39 q 145 179 180 123 q 94 294 111 234 q 78 416 78 354 m 328 -227 q 337 -196 328 -208 q 358 -184 346 -184 q 378 -190 368 -184 q 395 -202 388 -195 q 416 -215 403 -210 q 444 -221 429 -221 q 493 -203 473 -221 q 512 -158 512 -185 q 498 -118 512 -133 q 467 -102 484 -102 q 420 -115 449 -102 q 407 -107 417 -115 q 396 -95 396 -100 q 405 -82 396 -92 q 433 -51 414 -73 q 471 -5 453 -28 l 518 -5 l 480 -43 l 507 -43 q 567 -65 539 -43 q 595 -119 595 -87 q 579 -174 595 -148 q 536 -218 563 -200 q 475 -247 510 -236 q 404 -258 440 -258 q 364 -253 387 -258 q 334 -242 340 -248 q 328 -227 328 -237 z "},"":{"ha":861,"x_min":-16,"x_max":839,"o":"m -12 -5 q -12 23 -16 3 q -1 51 -8 43 q 94 77 83 58 q 112 128 104 97 q 131 218 120 159 l 239 772 q 244 798 241 780 q 249 824 248 817 q 253 845 250 831 q 256 866 255 859 q 257 883 256 873 q 258 900 258 893 q 256 914 257 907 q 253 920 256 917 q 246 925 250 922 q 237 929 241 927 q 225 931 232 930 q 212 933 218 932 q 199 935 207 935 q 188 937 192 936 q 178 938 184 937 q 170 938 172 938 q 170 955 168 944 q 175 978 171 966 q 182 994 178 989 q 381 989 244 989 q 502 991 406 989 q 702 996 597 994 q 839 1000 808 999 q 836 777 836 949 q 821 771 832 774 q 801 769 810 769 q 781 781 784 769 q 771 829 777 809 q 757 870 766 850 q 735 904 748 891 q 704 925 723 917 q 659 933 684 933 l 543 933 q 495 930 514 933 q 470 916 477 926 q 464 904 467 910 q 459 887 462 897 q 455 870 456 877 q 450 847 454 864 q 446 823 447 831 l 393 554 q 400 546 392 549 q 422 540 408 542 q 450 538 435 538 l 524 538 q 591 546 567 538 q 631 576 614 555 q 669 643 648 597 q 686 655 673 655 q 712 648 707 655 l 656 358 q 629 352 650 352 q 613 364 613 352 q 608 408 612 390 q 600 435 605 426 q 591 449 595 445 q 581 456 587 454 q 477 467 560 467 q 372 446 376 467 l 327 212 q 326 205 327 212 q 323 190 324 198 q 319 171 321 182 q 316 150 317 161 q 314 129 315 139 q 313 109 313 118 q 315 94 313 100 q 331 76 317 83 q 362 66 345 69 q 399 63 380 63 l 492 63 q 632 113 576 63 q 667 150 650 128 q 699 195 684 171 q 734 256 715 220 q 758 265 739 265 q 781 262 768 265 q 796 256 794 259 q 771 207 793 250 q 740 146 748 163 q 714 96 731 130 q 688 39 698 62 q 671 -3 678 16 l 180 -3 q 95 -3 138 -3 q 22 -4 51 -4 q -12 -5 -7 -5 m 333 1206 q 341 1229 333 1219 q 362 1244 349 1238 q 389 1252 375 1249 q 417 1254 403 1254 q 441 1253 428 1254 q 467 1249 454 1251 q 486 1242 480 1246 q 553 1191 515 1225 q 616 1130 591 1157 q 646 1096 641 1103 q 632 1076 646 1086 q 575 1090 620 1078 q 475 1119 531 1101 q 376 1161 418 1137 q 333 1206 333 1185 z "},"":{"ha":861,"x_min":-16,"x_max":839,"o":"m -12 -5 q -12 23 -16 3 q -1 51 -8 43 q 94 77 83 58 q 112 128 104 97 q 131 218 120 159 l 239 772 q 244 798 241 780 q 249 824 248 817 q 253 845 250 831 q 256 866 255 859 q 257 883 256 873 q 258 900 258 893 q 256 914 257 907 q 253 920 256 917 q 246 925 250 922 q 237 929 241 927 q 225 931 232 930 q 212 933 218 932 q 199 935 207 935 q 188 937 192 936 q 178 938 184 937 q 170 938 172 938 q 170 955 168 944 q 175 978 171 966 q 182 994 178 989 q 381 989 244 989 q 502 991 406 989 q 702 996 597 994 q 839 1000 808 999 q 836 777 836 949 q 821 771 832 774 q 801 769 810 769 q 781 781 784 769 q 771 829 777 809 q 757 870 766 850 q 735 904 748 891 q 704 925 723 917 q 659 933 684 933 l 543 933 q 495 930 514 933 q 470 916 477 926 q 464 904 467 910 q 459 887 462 897 q 455 870 456 877 q 450 847 454 864 q 446 823 447 831 l 393 554 q 400 546 392 549 q 422 540 408 542 q 450 538 435 538 l 524 538 q 591 546 567 538 q 631 576 614 555 q 669 643 648 597 q 686 655 673 655 q 712 648 707 655 l 656 358 q 629 352 650 352 q 613 364 613 352 q 608 408 612 390 q 600 435 605 426 q 591 449 595 445 q 581 456 587 454 q 477 467 560 467 q 372 446 376 467 l 327 212 q 326 205 327 212 q 323 190 324 198 q 319 171 321 182 q 316 150 317 161 q 314 129 315 139 q 313 109 313 118 q 315 94 313 100 q 331 76 317 83 q 362 66 345 69 q 399 63 380 63 l 492 63 q 632 113 576 63 q 667 150 650 128 q 699 195 684 171 q 734 256 715 220 q 758 265 739 265 q 781 262 768 265 q 796 256 794 259 q 771 207 793 250 q 740 146 748 163 q 714 96 731 130 q 688 39 698 62 q 671 -3 678 16 l 180 -3 q 95 -3 138 -3 q 22 -4 51 -4 q -12 -5 -7 -5 m 479 1096 q 508 1130 484 1103 q 571 1191 533 1157 q 638 1242 610 1225 q 669 1251 648 1247 q 707 1254 690 1254 q 745 1250 727 1254 q 778 1234 763 1246 q 792 1206 792 1223 q 749 1161 792 1185 q 650 1119 706 1137 q 549 1090 593 1101 q 492 1076 505 1078 q 479 1096 479 1086 z "},"":{"ha":861,"x_min":-16,"x_max":839,"o":"m -12 -5 q -12 23 -16 3 q -1 51 -8 43 q 94 77 83 58 q 112 128 104 97 q 131 218 120 159 l 239 772 q 244 798 241 780 q 249 824 248 817 q 253 845 250 831 q 256 866 255 859 q 257 883 256 873 q 258 900 258 893 q 256 914 257 907 q 253 920 256 917 q 246 925 250 922 q 237 929 241 927 q 225 931 232 930 q 212 933 218 932 q 199 935 207 935 q 188 937 192 936 q 178 938 184 937 q 170 938 172 938 q 170 955 168 944 q 175 978 171 966 q 182 994 178 989 q 381 989 244 989 q 502 991 406 989 q 702 996 597 994 q 839 1000 808 999 q 836 777 836 949 q 821 771 832 774 q 801 769 810 769 q 781 781 784 769 q 771 829 777 809 q 757 870 766 850 q 735 904 748 891 q 704 925 723 917 q 659 933 684 933 l 543 933 q 495 930 514 933 q 470 916 477 926 q 464 904 467 910 q 459 887 462 897 q 455 870 456 877 q 450 847 454 864 q 446 823 447 831 l 393 554 q 400 546 392 549 q 422 540 408 542 q 450 538 435 538 l 524 538 q 591 546 567 538 q 631 576 614 555 q 669 643 648 597 q 686 655 673 655 q 712 648 707 655 l 656 358 q 629 352 650 352 q 613 364 613 352 q 608 408 612 390 q 600 435 605 426 q 591 449 595 445 q 581 456 587 454 q 477 467 560 467 q 372 446 376 467 l 327 212 q 326 205 327 212 q 323 190 324 198 q 319 171 321 182 q 316 150 317 161 q 314 129 315 139 q 313 109 313 118 q 315 94 313 100 q 331 76 317 83 q 362 66 345 69 q 399 63 380 63 l 492 63 q 632 113 576 63 q 667 150 650 128 q 699 195 684 171 q 734 256 715 220 q 758 265 739 265 q 781 262 768 265 q 796 256 794 259 q 771 207 793 250 q 740 146 748 163 q 714 96 731 130 q 688 39 698 62 q 671 -3 678 16 l 180 -3 q 95 -3 138 -3 q 22 -4 51 -4 q -12 -5 -7 -5 m 349 1123 q 473 1223 410 1171 q 557 1295 536 1275 q 578 1310 572 1310 q 582 1309 580 1310 q 585 1306 583 1308 q 588 1303 587 1305 q 591 1299 589 1302 q 595 1295 593 1296 q 626 1254 607 1278 q 666 1206 646 1230 q 707 1159 687 1182 q 739 1123 727 1136 q 721 1099 737 1104 q 681 1117 713 1101 q 613 1154 650 1133 q 557 1190 576 1175 q 449 1136 519 1168 q 360 1099 378 1104 q 352 1109 355 1101 q 349 1123 348 1116 z "},"":{"ha":861,"x_min":-16,"x_max":839,"o":"m -12 -5 q -12 23 -16 3 q -1 51 -8 43 q 94 77 83 58 q 112 128 104 97 q 131 218 120 159 l 239 772 q 244 798 241 780 q 249 824 248 817 q 253 845 250 831 q 256 866 255 859 q 257 883 256 873 q 258 900 258 893 q 256 914 257 907 q 253 920 256 917 q 246 925 250 922 q 237 929 241 927 q 225 931 232 930 q 212 933 218 932 q 199 935 207 935 q 188 937 192 936 q 178 938 184 937 q 170 938 172 938 q 170 955 168 944 q 175 978 171 966 q 182 994 178 989 q 381 989 244 989 q 502 991 406 989 q 702 996 597 994 q 839 1000 808 999 q 836 777 836 949 q 821 771 832 774 q 801 769 810 769 q 781 781 784 769 q 771 829 777 809 q 757 870 766 850 q 735 904 748 891 q 704 925 723 917 q 659 933 684 933 l 543 933 q 495 930 514 933 q 470 916 477 926 q 464 904 467 910 q 459 887 462 897 q 455 870 456 877 q 450 847 454 864 q 446 823 447 831 l 393 554 q 400 546 392 549 q 422 540 408 542 q 450 538 435 538 l 524 538 q 591 546 567 538 q 631 576 614 555 q 669 643 648 597 q 686 655 673 655 q 712 648 707 655 l 656 358 q 629 352 650 352 q 613 364 613 352 q 608 408 612 390 q 600 435 605 426 q 591 449 595 445 q 581 456 587 454 q 477 467 560 467 q 372 446 376 467 l 327 212 q 326 205 327 212 q 323 190 324 198 q 319 171 321 182 q 316 150 317 161 q 314 129 315 139 q 313 109 313 118 q 315 94 313 100 q 331 76 317 83 q 362 66 345 69 q 399 63 380 63 l 492 63 q 632 113 576 63 q 667 150 650 128 q 699 195 684 171 q 734 256 715 220 q 758 265 739 265 q 781 262 768 265 q 796 256 794 259 q 771 207 793 250 q 740 146 748 163 q 714 96 731 130 q 688 39 698 62 q 671 -3 678 16 l 180 -3 q 95 -3 138 -3 q 22 -4 51 -4 q -12 -5 -7 -5 m 349 1204 q 391 1276 357 1246 q 464 1305 424 1305 q 525 1276 503 1305 q 539 1204 547 1246 q 498 1129 531 1162 q 426 1097 465 1097 q 363 1129 386 1097 q 349 1204 341 1162 m 642 1204 q 683 1276 649 1246 q 755 1305 716 1305 q 817 1276 794 1305 q 831 1204 839 1246 q 790 1129 823 1162 q 718 1097 757 1097 q 672 1113 692 1097 q 644 1152 652 1128 q 642 1204 636 1177 z "},"":{"ha":531,"x_min":-17,"x_max":583,"o":"m -14 -6 q -13 21 -17 1 q -1 50 -8 42 q 94 77 83 57 q 112 128 104 97 q 131 218 120 159 l 239 772 q 244 798 241 780 q 249 824 248 817 q 253 845 250 831 q 256 866 255 859 q 257 883 256 873 q 258 900 258 893 q 256 914 257 907 q 172 941 253 935 q 170 953 170 945 q 173 969 171 961 q 177 986 174 978 q 182 997 180 994 q 381 986 275 986 q 580 997 482 986 q 579 969 583 989 q 569 941 576 949 q 474 914 485 934 q 435 772 455 879 l 328 218 q 323 192 327 210 q 319 166 320 174 q 315 145 317 159 q 312 124 313 132 q 310 107 311 117 q 310 90 309 97 q 312 77 311 83 q 396 50 315 56 q 395 21 399 42 q 385 -6 391 1 q 186 5 293 5 q -14 -6 84 5 m 194 1206 q 209 1234 194 1223 q 241 1250 223 1246 q 279 1254 259 1254 q 317 1251 296 1254 q 348 1242 338 1247 q 443 1164 389 1217 q 507 1096 498 1112 q 494 1076 507 1086 q 437 1090 481 1078 q 336 1119 393 1101 q 237 1161 280 1137 q 194 1206 194 1185 z "},"":{"ha":531,"x_min":-17,"x_max":591,"o":"m -14 -6 q -13 21 -17 1 q -1 50 -8 42 q 94 77 83 57 q 112 128 104 97 q 131 218 120 159 l 239 772 q 244 798 241 780 q 249 824 248 817 q 253 845 250 831 q 256 866 255 859 q 257 883 256 873 q 258 900 258 893 q 256 914 257 907 q 172 941 253 935 q 170 953 170 945 q 173 969 171 961 q 177 986 174 978 q 182 997 180 994 q 381 986 275 986 q 580 997 482 986 q 579 969 583 989 q 569 941 576 949 q 474 914 485 934 q 435 772 455 879 l 328 218 q 323 192 327 210 q 319 166 320 174 q 315 145 317 159 q 312 124 313 132 q 310 107 311 117 q 310 90 309 97 q 312 77 311 83 q 396 50 315 56 q 395 21 399 42 q 385 -6 391 1 q 186 5 293 5 q -14 -6 84 5 m 279 1096 q 342 1164 288 1112 q 438 1242 397 1217 q 469 1251 448 1247 q 507 1254 490 1254 q 545 1250 527 1254 q 577 1234 563 1246 q 591 1206 591 1223 q 563 1170 591 1189 q 493 1135 534 1151 q 407 1106 452 1120 q 332 1085 363 1093 q 292 1076 301 1078 q 279 1096 279 1086 z "},"":{"ha":531,"x_min":-17,"x_max":593,"o":"m -14 -6 q -13 21 -17 1 q -1 50 -8 42 q 94 77 83 57 q 112 128 104 97 q 131 218 120 159 l 239 772 q 244 798 241 780 q 249 824 248 817 q 253 845 250 831 q 256 866 255 859 q 257 883 256 873 q 258 900 258 893 q 256 914 257 907 q 172 941 253 935 q 170 953 170 945 q 173 969 171 961 q 177 986 174 978 q 182 997 180 994 q 381 986 275 986 q 580 997 482 986 q 579 969 583 989 q 569 941 576 949 q 474 914 485 934 q 435 772 455 879 l 328 218 q 323 192 327 210 q 319 166 320 174 q 315 145 317 159 q 312 124 313 132 q 310 107 311 117 q 310 90 309 97 q 312 77 311 83 q 396 50 315 56 q 395 21 399 42 q 385 -6 391 1 q 186 5 293 5 q -14 -6 84 5 m 203 1123 q 287 1190 243 1154 q 364 1254 331 1226 q 411 1295 397 1282 q 432 1310 426 1310 q 435 1309 434 1310 q 439 1306 437 1308 q 442 1303 441 1305 q 445 1299 443 1302 q 449 1295 448 1296 q 480 1254 461 1278 q 520 1206 500 1230 q 561 1159 541 1182 q 593 1123 581 1136 q 575 1099 591 1104 q 500 1136 561 1103 q 411 1190 439 1168 q 343 1155 386 1175 q 263 1118 300 1134 q 214 1099 226 1102 q 205 1109 209 1101 q 203 1123 202 1116 z "},"":{"ha":531,"x_min":-17,"x_max":678,"o":"m -14 -6 q -13 21 -17 1 q -1 50 -8 42 q 94 77 83 57 q 112 128 104 97 q 131 218 120 159 l 239 772 q 244 798 241 780 q 249 824 248 817 q 253 845 250 831 q 256 866 255 859 q 257 883 256 873 q 258 900 258 893 q 256 914 257 907 q 172 941 253 935 q 170 953 170 945 q 173 969 171 961 q 177 986 174 978 q 182 997 180 994 q 381 986 275 986 q 580 997 482 986 q 579 969 583 989 q 569 941 576 949 q 474 914 485 934 q 435 772 455 879 l 328 218 q 323 192 327 210 q 319 166 320 174 q 315 145 317 159 q 312 124 313 132 q 310 107 311 117 q 310 90 309 97 q 312 77 311 83 q 396 50 315 56 q 395 21 399 42 q 385 -6 391 1 q 186 5 293 5 q -14 -6 84 5 m 189 1204 q 230 1276 196 1246 q 302 1305 263 1305 q 363 1276 341 1305 q 378 1204 386 1246 q 337 1129 370 1162 q 265 1097 304 1097 q 203 1129 225 1097 q 189 1204 180 1162 m 480 1204 q 522 1276 488 1246 q 595 1305 555 1305 q 656 1276 633 1305 q 670 1204 678 1246 q 629 1129 662 1162 q 557 1097 596 1097 q 494 1129 517 1097 q 480 1204 472 1162 z "},"":{"ha":1085,"x_min":-14,"x_max":1051,"o":"m -11 -5 q -11 23 -14 3 q 0 51 -7 43 q 95 77 85 58 q 114 128 106 97 q 132 218 121 159 l 241 772 q 246 798 242 780 q 251 824 250 817 q 254 845 252 831 q 257 866 256 859 q 259 883 258 873 q 259 900 260 893 q 258 914 258 907 q 254 920 257 917 q 247 925 252 922 q 238 929 243 927 q 226 931 233 930 q 214 933 219 932 q 201 935 209 935 q 189 937 193 936 q 179 938 185 937 q 172 938 173 938 q 173 966 168 945 q 184 994 178 987 q 382 989 245 989 q 493 991 416 989 q 597 994 570 993 q 773 969 694 994 q 908 901 852 945 q 1000 792 964 856 q 1043 649 1036 728 q 1034 477 1051 570 q 970 292 1015 374 q 867 155 926 210 q 730 64 807 100 q 569 12 652 28 q 393 -5 486 -5 l -11 -5 m 80 458 q 75 464 76 458 q 75 474 74 470 q 90 516 82 508 l 587 516 q 594 513 591 516 q 595 505 596 509 q 578 458 588 472 l 80 458 m 316 129 q 315 123 316 129 q 315 109 315 118 q 316 94 315 100 q 344 68 319 78 q 397 59 369 59 q 670 157 570 59 q 812 473 769 254 q 823 669 833 583 q 778 813 814 755 q 683 903 742 872 q 545 933 623 933 q 497 930 515 933 q 471 916 478 926 q 466 904 468 910 q 460 887 463 897 q 456 870 458 877 q 452 847 455 864 q 447 823 449 831 l 328 212 q 327 205 328 212 q 324 190 326 198 q 321 171 323 182 q 318 150 319 161 q 316 129 317 139 z "},"":{"ha":1076,"x_min":-28,"x_max":1160,"o":"m -27 -6 q -28 3 -28 -3 q -27 14 -28 8 q -24 27 -26 20 q -21 38 -22 33 q -17 46 -19 43 q -15 50 -16 50 q 50 60 7 50 q 104 89 93 71 q 128 152 114 106 q 151 241 142 199 q 184 415 166 323 q 221 600 203 507 q 254 774 239 692 q 264 861 265 836 q 254 909 264 886 q 217 932 248 922 q 169 941 186 941 q 165 954 165 943 q 169 979 165 964 q 176 997 172 993 q 218 993 188 996 q 276 988 248 990 q 333 986 304 986 q 488 997 406 986 q 536 878 498 956 q 613 732 574 800 q 718 547 651 664 q 816 374 785 431 q 831 435 820 382 l 885 717 q 908 909 916 881 q 891 926 906 919 q 858 936 877 933 q 824 941 839 939 q 801 943 810 943 q 800 954 800 944 q 804 978 801 964 q 812 998 807 992 q 890 991 836 997 q 980 986 944 986 q 1079 992 1016 986 q 1159 998 1143 998 q 1156 970 1160 989 q 1144 941 1152 951 q 1111 940 1131 941 q 1060 929 1090 938 q 1022 906 1030 920 q 997 826 1015 890 q 971 721 979 762 l 871 210 q 837 -1 860 148 q 801 -7 831 -7 q 765 27 783 -7 l 340 781 l 235 237 q 223 152 227 197 q 221 90 219 106 q 249 68 223 77 q 298 55 275 58 q 330 51 321 51 q 330 22 334 41 q 321 -6 326 3 q 243 0 305 -5 q 146 6 182 6 q 54 1 110 6 q -27 -6 -2 -5 m 418 1117 q 447 1179 418 1147 q 505 1221 476 1208 q 569 1234 534 1234 q 620 1230 599 1234 q 664 1211 640 1225 q 699 1191 687 1197 q 732 1178 710 1185 q 777 1171 754 1171 q 878 1234 830 1171 q 887 1227 882 1233 q 891 1213 891 1221 q 863 1152 891 1183 q 805 1109 834 1122 q 741 1096 776 1096 q 691 1101 711 1096 q 646 1120 670 1106 q 611 1140 623 1134 q 577 1153 600 1146 q 533 1159 555 1159 q 432 1096 479 1159 q 427 1099 429 1097 q 421 1107 424 1102 q 418 1117 418 1112 z "},"":{"ha":1061,"x_min":74,"x_max":1022,"o":"m 74 393 q 98 568 74 484 q 165 718 123 652 q 263 839 207 784 q 381 929 319 893 q 510 985 444 965 q 638 1004 576 1004 q 773 980 710 1004 q 881 915 836 956 q 958 821 926 874 q 1006 709 990 768 q 1022 591 1022 650 q 1003 437 1022 511 q 951 302 985 362 q 873 191 918 243 q 777 102 829 140 q 668 38 724 64 q 555 -2 612 12 q 444 -15 498 -15 q 298 18 367 -15 q 180 106 229 51 q 102 236 131 161 q 74 393 74 311 m 290 368 q 302 244 290 300 q 337 144 313 189 q 399 75 360 100 q 491 50 439 50 q 572 68 533 50 q 642 119 611 86 q 700 195 673 151 q 746 290 726 239 q 779 396 765 340 q 799 508 792 452 q 806 617 806 564 q 793 741 806 684 q 756 843 781 798 q 693 913 732 888 q 605 939 654 939 q 510 914 555 939 q 431 846 465 889 q 370 747 397 803 q 326 626 343 690 q 299 496 309 562 q 290 368 290 430 m 374 1206 q 388 1234 374 1223 q 420 1250 402 1246 q 458 1254 438 1254 q 496 1251 475 1254 q 527 1242 517 1247 q 623 1164 568 1217 q 686 1096 677 1112 q 673 1076 686 1086 q 616 1090 661 1078 q 515 1119 572 1101 q 416 1161 459 1137 q 374 1206 374 1185 z "},"":{"ha":1061,"x_min":74,"x_max":1022,"o":"m 74 393 q 98 568 74 484 q 165 718 123 652 q 263 839 207 784 q 381 929 319 893 q 510 985 444 965 q 638 1004 576 1004 q 773 980 710 1004 q 881 915 836 956 q 958 821 926 874 q 1006 709 990 768 q 1022 591 1022 650 q 1003 437 1022 511 q 951 302 985 362 q 873 191 918 243 q 777 102 829 140 q 668 38 724 64 q 555 -2 612 12 q 444 -15 498 -15 q 298 18 367 -15 q 180 106 229 51 q 102 236 131 161 q 74 393 74 311 m 290 368 q 302 244 290 300 q 337 144 313 189 q 399 75 360 100 q 491 50 439 50 q 572 68 533 50 q 642 119 611 86 q 700 195 673 151 q 746 290 726 239 q 779 396 765 340 q 799 508 792 452 q 806 617 806 564 q 793 741 806 684 q 756 843 781 798 q 693 913 732 888 q 605 939 654 939 q 510 914 555 939 q 431 846 465 889 q 370 747 397 803 q 326 626 343 690 q 299 496 309 562 q 290 368 290 430 m 560 1096 q 624 1164 570 1112 q 720 1242 679 1217 q 733 1247 724 1244 q 751 1251 742 1249 q 771 1253 761 1253 q 789 1254 781 1254 q 826 1250 808 1254 q 859 1234 844 1246 q 873 1206 873 1223 q 861 1183 873 1195 q 829 1161 849 1171 q 784 1139 810 1150 q 732 1120 759 1128 q 679 1103 705 1111 q 630 1089 652 1095 q 593 1080 608 1084 q 574 1076 578 1077 q 560 1096 560 1086 z "},"":{"ha":1061,"x_min":74,"x_max":1022,"o":"m 74 393 q 98 568 74 484 q 165 718 123 652 q 263 839 207 784 q 381 929 319 893 q 510 985 444 965 q 638 1004 576 1004 q 773 980 710 1004 q 881 915 836 956 q 958 821 926 874 q 1006 709 990 768 q 1022 591 1022 650 q 1003 437 1022 511 q 951 302 985 362 q 873 191 918 243 q 777 102 829 140 q 668 38 724 64 q 555 -2 612 12 q 444 -15 498 -15 q 298 18 367 -15 q 180 106 229 51 q 102 236 131 161 q 74 393 74 311 m 290 368 q 302 244 290 300 q 337 144 313 189 q 399 75 360 100 q 491 50 439 50 q 572 68 533 50 q 642 119 611 86 q 700 195 673 151 q 746 290 726 239 q 779 396 765 340 q 799 508 792 452 q 806 617 806 564 q 793 741 806 684 q 756 843 781 798 q 693 913 732 888 q 605 939 654 939 q 510 914 555 939 q 431 846 465 889 q 370 747 397 803 q 326 626 343 690 q 299 496 309 562 q 290 368 290 430 m 433 1123 q 557 1223 494 1171 q 642 1295 621 1275 q 663 1310 656 1310 q 666 1309 664 1310 q 669 1306 667 1308 q 672 1303 671 1305 q 676 1299 673 1302 q 679 1295 678 1296 q 751 1205 705 1261 q 823 1123 798 1149 q 806 1099 821 1104 q 730 1136 791 1103 q 642 1190 669 1168 q 533 1136 603 1168 q 444 1099 463 1104 q 436 1109 439 1101 q 433 1123 433 1116 z "},"":{"ha":1061,"x_min":74,"x_max":1022,"o":"m 74 393 q 98 568 74 484 q 165 718 123 652 q 263 839 207 784 q 381 929 319 893 q 510 985 444 965 q 638 1004 576 1004 q 773 980 710 1004 q 881 915 836 956 q 958 821 926 874 q 1006 709 990 768 q 1022 591 1022 650 q 1003 437 1022 511 q 951 302 985 362 q 873 191 918 243 q 777 102 829 140 q 668 38 724 64 q 555 -2 612 12 q 444 -15 498 -15 q 298 18 367 -15 q 180 106 229 51 q 102 236 131 161 q 74 393 74 311 m 290 368 q 302 244 290 300 q 337 144 313 189 q 399 75 360 100 q 491 50 439 50 q 572 68 533 50 q 642 119 611 86 q 700 195 673 151 q 746 290 726 239 q 779 396 765 340 q 799 508 792 452 q 806 617 806 564 q 793 741 806 684 q 756 843 781 798 q 693 913 732 888 q 605 939 654 939 q 510 914 555 939 q 431 846 465 889 q 370 747 397 803 q 326 626 343 690 q 299 496 309 562 q 290 368 290 430 m 408 1117 q 437 1179 408 1147 q 476 1211 456 1199 q 516 1229 496 1223 q 559 1234 536 1234 q 609 1230 588 1234 q 653 1211 629 1225 q 680 1195 671 1200 q 703 1184 688 1191 q 734 1174 719 1177 q 766 1171 749 1171 q 867 1234 820 1171 q 876 1227 871 1233 q 881 1213 881 1221 q 852 1152 881 1183 q 794 1109 823 1122 q 730 1096 765 1096 q 680 1101 701 1096 q 635 1120 659 1106 q 601 1140 612 1134 q 567 1153 589 1146 q 522 1159 545 1159 q 422 1096 469 1159 q 416 1099 419 1097 q 411 1107 413 1102 q 408 1117 408 1112 z "},"":{"ha":1061,"x_min":74,"x_max":1022,"o":"m 74 393 q 98 568 74 484 q 165 718 123 652 q 263 839 207 784 q 381 929 319 893 q 510 985 444 965 q 638 1004 576 1004 q 773 980 710 1004 q 881 915 836 956 q 958 821 926 874 q 1006 709 990 768 q 1022 591 1022 650 q 1003 437 1022 511 q 951 302 985 362 q 873 191 918 243 q 777 102 829 140 q 668 38 724 64 q 555 -2 612 12 q 444 -15 498 -15 q 298 18 367 -15 q 180 106 229 51 q 102 236 131 161 q 74 393 74 311 m 290 368 q 302 244 290 300 q 337 144 313 189 q 399 75 360 100 q 491 50 439 50 q 572 68 533 50 q 642 119 611 86 q 700 195 673 151 q 746 290 726 239 q 779 396 765 340 q 799 508 792 452 q 806 617 806 564 q 793 741 806 684 q 756 843 781 798 q 693 913 732 888 q 605 939 654 939 q 510 914 555 939 q 431 846 465 889 q 370 747 397 803 q 326 626 343 690 q 299 496 309 562 q 290 368 290 430 m 438 1204 q 479 1276 446 1246 q 553 1305 513 1305 q 613 1276 591 1305 q 628 1204 635 1246 q 587 1129 620 1162 q 515 1097 553 1097 q 469 1113 488 1097 q 441 1152 449 1128 q 438 1204 433 1177 m 730 1204 q 771 1276 738 1246 q 844 1305 805 1305 q 905 1276 883 1305 q 920 1204 928 1246 q 879 1129 912 1162 q 807 1097 846 1097 q 745 1129 767 1097 q 730 1204 722 1162 z "},"":{"ha":656,"x_min":36,"x_max":607,"o":"m 36 170 l 268 374 q 271 378 271 376 q 269 385 271 384 l 117 591 q 138 626 117 606 q 165 646 158 646 q 169 645 168 646 q 170 643 170 644 q 172 640 170 641 l 328 427 q 334 425 331 425 l 337 426 l 575 638 q 584 643 580 643 q 600 620 592 643 q 607 576 607 597 l 376 372 q 374 369 374 369 q 375 366 374 368 l 526 161 q 510 126 526 146 q 485 105 494 105 q 474 110 477 105 l 319 321 q 315 323 316 323 q 309 321 312 323 l 66 110 q 59 105 62 105 q 44 129 52 105 q 36 170 36 152 z "},"":{"ha":1061,"x_min":74,"x_max":1022,"o":"m 74 393 q 98 568 74 484 q 165 718 123 652 q 263 839 207 784 q 381 929 319 893 q 510 985 444 965 q 638 1004 576 1004 q 773 980 710 1004 q 881 915 836 956 q 958 821 926 874 q 1006 709 990 768 q 1022 591 1022 650 q 1003 437 1022 511 q 951 302 985 362 q 873 191 918 243 q 777 102 829 140 q 668 38 724 64 q 555 -2 612 12 q 444 -15 498 -15 q 298 18 367 -15 q 180 106 229 51 q 102 236 131 161 q 74 393 74 311 m 121 18 l 897 1007 q 924 991 908 1004 q 935 971 940 977 l 157 -20 q 130 -2 145 -16 q 121 18 115 12 m 290 368 q 302 244 290 300 q 337 144 313 189 q 399 75 360 100 q 491 50 439 50 q 572 68 533 50 q 642 119 611 86 q 700 195 673 151 q 746 290 726 239 q 779 396 765 340 q 799 508 792 452 q 806 617 806 564 q 793 741 806 684 q 756 843 781 798 q 693 913 732 888 q 605 939 654 939 q 510 914 555 939 q 431 846 465 889 q 370 747 397 803 q 326 626 343 690 q 299 496 309 562 q 290 368 290 430 z "},"":{"ha":1042,"x_min":126,"x_max":1143,"o":"m 163 119 q 129 255 132 174 q 149 453 126 336 l 211 772 q 216 798 212 780 q 220 824 219 817 q 224 845 222 831 q 227 866 227 859 q 229 883 228 873 q 229 900 229 893 q 227 914 229 907 q 143 941 224 935 q 142 958 141 947 q 146 981 143 969 q 153 997 150 992 q 352 986 245 986 q 551 997 454 986 q 551 969 555 989 q 541 941 547 949 q 446 914 456 934 q 406 772 427 879 l 354 497 q 341 423 345 452 q 333 361 336 395 q 331 298 330 327 q 339 239 333 269 q 524 95 368 95 q 593 108 558 95 q 662 150 627 121 q 727 221 697 178 q 782 326 757 263 q 822 465 807 389 l 871 721 q 883 791 878 755 q 889 858 888 827 q 888 905 891 890 q 791 941 882 933 q 791 969 787 949 q 801 997 795 989 q 974 986 914 986 q 1066 991 1010 986 q 1140 997 1122 996 q 1140 969 1143 989 q 1129 941 1136 949 q 1121 940 1128 941 q 1109 940 1114 940 q 1096 938 1105 939 q 1080 936 1086 937 q 1064 932 1073 935 q 1048 928 1055 930 q 1035 922 1042 925 q 1023 915 1027 919 q 1015 905 1018 910 q 985 826 1002 882 q 959 723 968 770 l 902 431 q 849 267 884 341 q 769 141 814 193 q 667 55 723 90 q 553 3 612 19 q 432 -14 494 -14 q 321 0 372 -14 q 229 44 270 14 q 163 119 187 75 m 453 1206 q 468 1234 453 1223 q 500 1250 482 1246 q 538 1254 518 1254 q 576 1251 555 1254 q 607 1242 597 1247 q 702 1164 648 1217 q 766 1096 757 1112 q 753 1076 766 1086 q 696 1090 740 1078 q 595 1119 652 1101 q 496 1161 539 1137 q 453 1206 453 1185 z "},"":{"ha":1042,"x_min":126,"x_max":1143,"o":"m 163 119 q 129 255 132 174 q 149 453 126 336 l 211 772 q 216 798 212 780 q 220 824 219 817 q 224 845 222 831 q 227 866 227 859 q 229 883 228 873 q 229 900 229 893 q 227 914 229 907 q 143 941 224 935 q 142 958 141 947 q 146 981 143 969 q 153 997 150 992 q 352 986 245 986 q 551 997 454 986 q 551 969 555 989 q 541 941 547 949 q 446 914 456 934 q 406 772 427 879 l 354 497 q 341 423 345 452 q 333 361 336 395 q 331 298 330 327 q 339 239 333 269 q 524 95 368 95 q 593 108 558 95 q 662 150 627 121 q 727 221 697 178 q 782 326 757 263 q 822 465 807 389 l 871 721 q 883 791 878 755 q 889 858 888 827 q 888 905 891 890 q 791 941 882 933 q 791 969 787 949 q 801 997 795 989 q 974 986 914 986 q 1066 991 1010 986 q 1140 997 1122 996 q 1140 969 1143 989 q 1129 941 1136 949 q 1121 940 1128 941 q 1109 940 1114 940 q 1096 938 1105 939 q 1080 936 1086 937 q 1064 932 1073 935 q 1048 928 1055 930 q 1035 922 1042 925 q 1023 915 1027 919 q 1015 905 1018 910 q 985 826 1002 882 q 959 723 968 770 l 902 431 q 849 267 884 341 q 769 141 814 193 q 667 55 723 90 q 553 3 612 19 q 432 -14 494 -14 q 321 0 372 -14 q 229 44 270 14 q 163 119 187 75 m 643 1096 q 707 1164 652 1112 q 802 1242 762 1217 q 833 1251 812 1247 q 871 1254 854 1254 q 909 1250 891 1254 q 942 1234 927 1246 q 956 1206 956 1223 q 927 1170 956 1189 q 857 1135 898 1151 q 771 1106 816 1120 q 696 1085 727 1093 q 656 1076 665 1078 q 643 1096 643 1086 z "},"":{"ha":1042,"x_min":126,"x_max":1143,"o":"m 163 119 q 129 255 132 174 q 149 453 126 336 l 211 772 q 216 798 212 780 q 220 824 219 817 q 224 845 222 831 q 227 866 227 859 q 229 883 228 873 q 229 900 229 893 q 227 914 229 907 q 143 941 224 935 q 142 958 141 947 q 146 981 143 969 q 153 997 150 992 q 352 986 245 986 q 551 997 454 986 q 551 969 555 989 q 541 941 547 949 q 446 914 456 934 q 406 772 427 879 l 354 497 q 341 423 345 452 q 333 361 336 395 q 331 298 330 327 q 339 239 333 269 q 524 95 368 95 q 593 108 558 95 q 662 150 627 121 q 727 221 697 178 q 782 326 757 263 q 822 465 807 389 l 871 721 q 883 791 878 755 q 889 858 888 827 q 888 905 891 890 q 791 941 882 933 q 791 969 787 949 q 801 997 795 989 q 974 986 914 986 q 1066 991 1010 986 q 1140 997 1122 996 q 1140 969 1143 989 q 1129 941 1136 949 q 1121 940 1128 941 q 1109 940 1114 940 q 1096 938 1105 939 q 1080 936 1086 937 q 1064 932 1073 935 q 1048 928 1055 930 q 1035 922 1042 925 q 1023 915 1027 919 q 1015 905 1018 910 q 985 826 1002 882 q 959 723 968 770 l 902 431 q 849 267 884 341 q 769 141 814 193 q 667 55 723 90 q 553 3 612 19 q 432 -14 494 -14 q 321 0 372 -14 q 229 44 270 14 q 163 119 187 75 m 488 1123 q 611 1223 548 1171 q 696 1295 675 1275 q 717 1310 711 1310 q 720 1309 718 1310 q 723 1306 722 1308 q 726 1303 725 1305 q 730 1299 728 1302 q 733 1295 732 1296 q 765 1254 745 1278 q 805 1206 785 1230 q 845 1159 825 1182 q 878 1123 865 1136 q 860 1099 876 1104 q 785 1136 846 1103 q 696 1190 724 1168 q 628 1155 671 1175 q 547 1118 585 1134 q 498 1099 510 1102 q 490 1109 494 1101 q 488 1123 487 1116 z "},"":{"ha":1042,"x_min":126,"x_max":1143,"o":"m 163 119 q 129 255 132 174 q 149 453 126 336 l 211 772 q 216 798 212 780 q 220 824 219 817 q 224 845 222 831 q 227 866 227 859 q 229 883 228 873 q 229 900 229 893 q 227 914 229 907 q 143 941 224 935 q 142 958 141 947 q 146 981 143 969 q 153 997 150 992 q 352 986 245 986 q 551 997 454 986 q 551 969 555 989 q 541 941 547 949 q 446 914 456 934 q 406 772 427 879 l 354 497 q 341 423 345 452 q 333 361 336 395 q 331 298 330 327 q 339 239 333 269 q 524 95 368 95 q 593 108 558 95 q 662 150 627 121 q 727 221 697 178 q 782 326 757 263 q 822 465 807 389 l 871 721 q 883 791 878 755 q 889 858 888 827 q 888 905 891 890 q 791 941 882 933 q 791 969 787 949 q 801 997 795 989 q 974 986 914 986 q 1066 991 1010 986 q 1140 997 1122 996 q 1140 969 1143 989 q 1129 941 1136 949 q 1121 940 1128 941 q 1109 940 1114 940 q 1096 938 1105 939 q 1080 936 1086 937 q 1064 932 1073 935 q 1048 928 1055 930 q 1035 922 1042 925 q 1023 915 1027 919 q 1015 905 1018 910 q 985 826 1002 882 q 959 723 968 770 l 902 431 q 849 267 884 341 q 769 141 814 193 q 667 55 723 90 q 553 3 612 19 q 432 -14 494 -14 q 321 0 372 -14 q 229 44 270 14 q 163 119 187 75 m 477 1204 q 499 1255 482 1232 q 541 1292 517 1278 q 591 1305 566 1305 q 652 1276 630 1305 q 667 1204 675 1246 q 626 1129 659 1162 q 554 1097 593 1097 q 492 1129 514 1097 q 477 1204 469 1162 m 769 1204 q 784 1243 773 1225 q 811 1276 795 1262 q 845 1297 826 1289 q 884 1305 865 1305 q 945 1276 922 1305 q 959 1204 967 1246 q 918 1129 951 1162 q 846 1097 885 1097 q 784 1129 806 1097 q 769 1204 762 1162 z "},"":{"ha":867,"x_min":102,"x_max":1004,"o":"m 105 941 q 106 969 102 949 q 116 997 110 989 q 315 986 208 986 q 513 997 416 986 q 513 969 517 989 q 503 941 509 949 q 495 940 502 941 q 485 940 488 940 q 473 938 481 939 q 459 936 465 937 q 446 932 453 935 q 433 927 438 930 q 422 921 428 924 q 414 912 417 917 q 410 901 411 907 q 410 895 409 898 q 412 885 410 891 q 416 876 414 880 l 518 543 q 545 572 520 541 q 611 661 570 604 q 685 765 652 718 q 759 870 718 812 q 772 905 770 888 q 763 921 774 914 q 732 932 751 928 q 700 938 712 937 q 676 941 688 940 q 677 969 673 949 q 686 997 681 989 q 727 993 701 996 q 766 989 754 990 q 798 987 777 988 q 842 986 819 986 q 895 988 869 986 q 950 993 921 990 q 1001 997 979 996 q 1001 969 1004 989 q 991 941 998 949 q 982 940 990 941 q 969 939 974 940 q 955 937 965 939 q 938 935 945 936 q 922 930 931 933 q 905 924 912 927 q 891 915 899 920 q 879 903 884 909 q 707 681 840 855 q 536 449 574 507 q 522 420 524 433 l 484 218 q 467 129 471 161 q 467 77 463 98 q 551 50 470 56 q 552 33 553 43 q 547 10 551 22 q 541 -6 544 -1 q 342 5 448 5 q 143 -6 241 5 q 143 21 140 1 q 153 50 147 42 q 248 77 237 57 q 264 116 256 91 q 275 156 271 140 q 288 218 278 172 l 328 427 q 326 458 330 439 q 307 526 319 481 q 279 617 294 570 q 251 708 264 665 q 227 781 237 752 l 218 808 q 191 891 197 874 q 179 911 187 902 q 160 925 170 920 q 139 933 151 930 q 120 939 128 937 q 105 941 112 941 m 555 1096 q 620 1164 565 1112 q 715 1242 674 1217 q 746 1251 725 1247 q 785 1254 767 1254 q 822 1250 804 1254 q 854 1234 840 1246 q 869 1206 869 1223 q 840 1170 869 1189 q 770 1135 810 1151 q 684 1106 729 1120 q 609 1085 640 1093 q 569 1076 578 1078 q 555 1096 555 1086 z "},"":{"ha":837,"x_min":-17,"x_max":831,"o":"m -14 -6 q -13 21 -17 1 q -1 50 -8 42 q 94 77 83 57 q 112 128 104 97 q 131 218 120 159 l 239 772 q 244 798 241 780 q 249 824 248 817 q 253 845 250 831 q 256 866 255 859 q 257 883 256 873 q 258 900 258 893 q 256 914 257 907 q 253 920 256 917 q 246 925 250 922 q 237 929 241 927 q 225 931 232 930 q 212 933 218 932 q 199 935 207 935 q 188 937 192 936 q 178 938 184 937 q 170 938 172 938 q 170 955 168 944 q 175 978 171 966 q 182 994 178 989 q 381 989 244 989 q 580 1000 482 989 q 579 972 583 993 q 569 944 576 951 q 474 917 485 937 q 438 783 456 885 q 441 766 438 766 q 445 767 443 766 q 449 768 447 768 q 548 772 470 772 q 670 749 614 772 q 763 685 726 725 q 815 591 800 646 q 819 477 831 536 q 790 394 810 433 q 742 326 770 355 q 679 273 713 296 q 608 234 645 249 q 533 211 570 219 q 459 203 495 203 q 382 232 403 203 q 378 241 380 235 q 376 255 376 248 q 375 265 375 261 q 377 272 375 269 q 381 275 378 275 q 426 269 399 269 q 536 326 479 269 q 607 456 592 383 q 614 553 617 507 q 598 634 610 599 q 559 690 585 669 q 500 711 534 711 q 427 686 446 711 q 415 661 420 676 q 404 611 411 645 q 403 607 404 608 q 402 604 403 606 q 402 601 402 602 l 328 218 q 323 192 327 210 q 319 166 320 174 q 315 145 317 159 q 312 124 313 132 q 310 107 311 117 q 310 90 309 97 q 312 77 311 83 q 396 50 315 56 q 395 21 399 42 q 385 -6 391 1 q 186 5 293 5 q -14 -6 84 5 z "},"":{"ha":793,"x_min":-214,"x_max":764,"o":"m -214 -252 q -198 -200 -214 -222 q -157 -178 -182 -178 q -94 -214 -120 -178 q -89 -220 -93 -215 q -84 -228 -85 -226 q -79 -234 -83 -229 q -73 -241 -75 -239 q -67 -247 -71 -243 q -61 -252 -64 -250 q -54 -255 -58 -253 q -46 -258 -50 -258 q -38 -259 -42 -259 q 14 -210 -3 -259 q 58 -14 31 -161 q 77 81 70 47 l 161 569 l 63 569 q 60 574 60 569 q 85 613 60 587 q 132 638 109 638 l 173 638 q 220 775 187 709 q 294 889 252 841 q 382 974 335 937 q 473 1028 429 1010 q 554 1046 517 1046 q 629 1033 591 1046 q 696 997 666 1020 q 745 937 726 973 q 764 858 764 901 q 757 804 764 830 q 740 756 750 777 q 713 714 729 735 q 683 679 697 694 q 649 648 668 664 q 617 624 630 633 q 588 604 604 614 q 566 589 572 593 q 542 543 542 572 q 548 512 542 529 q 569 471 555 494 q 591 437 583 448 q 617 401 599 426 q 689 287 667 333 q 712 191 712 241 q 680 94 712 140 q 595 21 648 48 q 484 -6 542 -6 q 393 -1 418 -6 q 347 16 367 3 q 321 78 321 38 q 332 114 321 98 q 358 138 342 130 q 390 146 374 146 q 416 136 405 146 q 436 111 428 125 q 453 81 444 96 q 477 56 462 66 q 512 45 492 45 q 554 63 534 45 q 575 115 575 81 q 562 156 575 131 q 537 198 549 180 q 498 248 524 216 q 465 290 473 281 q 410 379 428 340 q 393 467 393 418 q 396 494 393 480 q 406 520 400 508 q 420 544 412 532 q 438 567 429 557 q 459 589 448 577 q 479 609 470 600 q 500 629 489 618 q 518 648 511 640 q 602 837 602 737 q 602 855 602 845 q 599 883 601 865 q 591 919 597 902 q 577 951 585 935 q 555 977 569 967 q 522 986 541 986 q 347 638 404 986 q 250 87 279 237 q 194 -81 233 -2 q 107 -214 155 -161 q 8 -297 60 -267 q -89 -328 -43 -328 q -155 -320 -124 -328 q -200 -301 -186 -311 q -214 -252 -214 -279 z "},"":{"ha":736,"x_min":16,"x_max":690,"o":"m 16 173 q 37 304 16 239 q 94 424 58 369 q 176 526 129 478 q 274 606 223 573 q 378 657 325 639 q 479 676 431 676 q 565 667 516 676 q 640 649 614 658 l 547 199 q 543 174 545 194 q 541 149 541 155 q 546 127 541 137 q 562 117 551 117 q 622 156 583 117 q 669 210 662 195 q 683 193 675 210 q 690 169 690 177 q 652 120 680 150 q 591 60 625 90 q 518 9 557 31 q 450 -12 479 -12 q 383 14 409 -12 q 357 87 357 39 q 360 116 357 95 q 366 144 361 125 q 331 96 353 122 q 278 46 308 71 q 214 5 249 22 q 146 -11 178 -11 q 51 41 85 -11 q 16 173 16 93 m 206 229 q 220 149 206 176 q 260 122 235 122 q 317 166 286 122 q 375 280 348 210 q 417 423 402 349 l 447 575 q 395 593 431 593 q 301 539 345 593 q 232 401 257 486 q 206 229 206 317 m 317 914 q 340 959 317 942 q 385 976 363 976 q 414 973 400 976 q 432 965 428 970 q 517 861 463 937 q 576 771 572 785 q 563 753 575 761 q 528 767 555 755 q 466 797 501 779 q 397 836 430 816 q 340 878 363 857 q 317 914 317 899 z "},"":{"ha":736,"x_min":16,"x_max":690,"o":"m 16 173 q 37 304 16 239 q 94 424 58 369 q 176 526 129 478 q 274 606 223 573 q 378 657 325 639 q 479 676 431 676 q 565 667 516 676 q 640 649 614 658 l 547 199 q 543 174 545 194 q 541 149 541 155 q 546 127 541 137 q 562 117 551 117 q 622 156 583 117 q 669 210 662 195 q 683 193 675 210 q 690 169 690 177 q 652 120 680 150 q 591 60 625 90 q 518 9 557 31 q 450 -12 479 -12 q 383 14 409 -12 q 357 87 357 39 q 360 116 357 95 q 366 144 361 125 q 331 96 353 122 q 278 46 308 71 q 214 5 249 22 q 146 -11 178 -11 q 51 41 85 -11 q 16 173 16 93 m 206 229 q 220 149 206 176 q 260 122 235 122 q 317 166 286 122 q 375 280 348 210 q 417 423 402 349 l 447 575 q 395 593 431 593 q 301 539 345 593 q 232 401 257 486 q 206 229 206 317 m 423 771 q 482 861 427 785 q 568 965 537 937 q 586 973 572 970 q 614 976 600 976 q 643 969 628 976 q 670 948 659 962 q 682 914 682 933 q 666 884 682 901 q 624 850 649 867 q 569 816 599 833 q 512 785 539 799 q 464 763 484 772 q 437 753 444 754 q 423 771 425 761 z "},"":{"ha":736,"x_min":16,"x_max":690,"o":"m 16 173 q 37 304 16 239 q 94 424 58 369 q 176 526 129 478 q 274 606 223 573 q 378 657 325 639 q 479 676 431 676 q 565 667 516 676 q 640 649 614 658 l 547 199 q 543 174 545 194 q 541 149 541 155 q 546 127 541 137 q 562 117 551 117 q 622 156 583 117 q 669 210 662 195 q 683 193 675 210 q 690 169 690 177 q 652 120 680 150 q 591 60 625 90 q 518 9 557 31 q 450 -12 479 -12 q 383 14 409 -12 q 357 87 357 39 q 360 116 357 95 q 366 144 361 125 q 331 96 353 122 q 278 46 308 71 q 214 5 249 22 q 146 -11 178 -11 q 51 41 85 -11 q 16 173 16 93 m 206 229 q 220 149 206 176 q 260 122 235 122 q 317 166 286 122 q 375 280 348 210 q 417 423 402 349 l 447 575 q 395 593 431 593 q 301 539 345 593 q 232 401 257 486 q 206 229 206 317 m 321 766 q 314 779 316 768 q 315 801 313 789 q 354 842 324 810 q 426 921 383 874 q 500 1004 468 968 q 503 1008 501 1006 q 507 1011 505 1010 q 509 1014 508 1013 q 512 1016 511 1015 q 514 1018 513 1017 q 517 1019 515 1019 q 519 1019 518 1019 q 536 1004 528 1019 q 582 918 557 963 q 626 840 607 873 q 648 801 644 807 q 643 786 646 793 q 636 773 640 779 q 629 766 633 768 q 497 887 539 840 q 403 820 461 859 q 321 766 345 780 z "},"":{"ha":736,"x_min":16,"x_max":690,"o":"m 16 173 q 37 304 16 239 q 94 424 58 369 q 176 526 129 478 q 274 606 223 573 q 378 657 325 639 q 479 676 431 676 q 565 667 516 676 q 640 649 614 658 l 547 199 q 543 174 545 194 q 541 149 541 155 q 546 127 541 137 q 562 117 551 117 q 622 156 583 117 q 669 210 662 195 q 683 193 675 210 q 690 169 690 177 q 652 120 680 150 q 591 60 625 90 q 518 9 557 31 q 450 -12 479 -12 q 383 14 409 -12 q 357 87 357 39 q 360 116 357 95 q 366 144 361 125 q 331 96 353 122 q 278 46 308 71 q 214 5 249 22 q 146 -11 178 -11 q 51 41 85 -11 q 16 173 16 93 m 206 229 q 220 149 206 176 q 260 122 235 122 q 317 166 286 122 q 375 280 348 210 q 417 423 402 349 l 447 575 q 395 593 431 593 q 301 539 345 593 q 232 401 257 486 q 206 229 206 317 m 231 791 q 262 854 235 823 q 384 911 317 911 q 471 887 426 911 q 487 878 478 884 q 502 869 495 873 q 516 860 508 865 q 533 853 525 856 q 551 848 541 850 q 572 846 562 846 q 587 848 579 846 q 601 851 594 849 q 614 858 607 854 q 626 865 621 862 q 637 874 631 869 q 647 883 643 879 q 656 891 651 886 q 663 899 661 897 q 669 906 665 902 q 673 911 672 910 q 684 892 685 907 q 650 828 680 861 q 530 771 595 771 q 486 777 505 771 q 444 795 467 783 q 422 808 439 798 q 397 822 406 818 q 372 831 389 827 q 340 836 356 836 q 324 834 332 836 q 309 829 316 832 q 294 822 301 825 q 281 812 288 818 q 270 803 275 807 q 259 793 264 799 q 251 784 254 787 q 244 776 248 781 q 239 771 239 771 q 231 791 229 774 z "},"":{"ha":736,"x_min":16,"x_max":693,"o":"m 16 173 q 37 304 16 239 q 94 424 58 369 q 176 526 129 478 q 274 606 223 573 q 378 657 325 639 q 479 676 431 676 q 565 667 516 676 q 640 649 614 658 l 547 199 q 543 174 545 194 q 541 149 541 155 q 546 127 541 137 q 562 117 551 117 q 622 156 583 117 q 669 210 662 195 q 683 193 675 210 q 690 169 690 177 q 652 120 680 150 q 591 60 625 90 q 518 9 557 31 q 450 -12 479 -12 q 383 14 409 -12 q 357 87 357 39 q 360 116 357 95 q 366 144 361 125 q 331 96 353 122 q 278 46 308 71 q 214 5 249 22 q 146 -11 178 -11 q 51 41 85 -11 q 16 173 16 93 m 206 229 q 220 149 206 176 q 260 122 235 122 q 317 166 286 122 q 375 280 348 210 q 417 423 402 349 l 447 575 q 395 593 431 593 q 301 539 345 593 q 232 401 257 486 q 206 229 206 317 m 226 876 q 268 949 234 919 q 343 980 302 980 q 406 950 384 980 q 420 876 428 920 q 378 802 412 833 q 302 771 343 771 q 240 802 262 771 q 226 876 218 833 m 490 876 q 532 949 497 919 q 608 980 568 980 q 671 950 648 980 q 685 876 693 920 q 662 824 680 848 q 618 785 644 800 q 566 771 593 771 q 504 802 526 771 q 490 876 481 833 z "},"":{"ha":736,"x_min":16,"x_max":690,"o":"m 16 173 q 37 304 16 239 q 94 424 58 369 q 176 526 129 478 q 274 606 223 573 q 378 657 325 639 q 479 676 431 676 q 565 667 516 676 q 640 649 614 658 l 547 199 q 543 174 545 194 q 541 149 541 155 q 546 127 541 137 q 562 117 551 117 q 622 156 583 117 q 669 210 662 195 q 683 193 675 210 q 690 169 690 177 q 652 120 680 150 q 591 60 625 90 q 518 9 557 31 q 450 -12 479 -12 q 383 14 409 -12 q 357 87 357 39 q 360 116 357 95 q 366 144 361 125 q 331 96 353 122 q 278 46 308 71 q 214 5 249 22 q 146 -11 178 -11 q 51 41 85 -11 q 16 173 16 93 m 206 229 q 220 149 206 176 q 260 122 235 122 q 317 166 286 122 q 375 280 348 210 q 417 423 402 349 l 447 575 q 395 593 431 593 q 301 539 345 593 q 232 401 257 486 q 206 229 206 317 m 295 896 q 328 970 302 936 q 390 1023 354 1004 q 464 1043 427 1043 q 552 1000 520 1043 q 572 896 583 957 q 539 821 565 856 q 478 767 514 787 q 405 747 442 747 q 316 791 349 747 q 295 896 283 835 m 360 896 q 361 855 355 873 q 383 825 368 836 q 418 814 398 814 q 476 838 450 814 q 509 896 502 862 q 498 954 515 930 q 450 977 481 977 q 393 954 418 977 q 360 896 367 930 z "},"":{"ha":913,"x_min":1,"x_max":895,"o":"m 9 172 q 45 248 18 214 q 101 292 73 283 q 360 375 128 301 q 367 381 366 377 q 370 396 369 385 l 375 468 q 376 506 376 480 q 327 618 376 618 q 299 611 312 618 q 278 594 287 604 q 258 565 269 585 q 242 532 248 546 q 226 492 236 518 q 142 426 200 426 q 97 447 115 426 q 84 498 79 468 q 116 560 90 524 q 152 587 126 570 q 216 625 178 604 q 302 661 254 646 q 390 676 350 676 q 475 653 438 676 q 533 589 513 630 q 727 676 633 676 q 774 672 751 676 q 819 657 797 668 q 858 632 842 647 q 884 592 874 616 q 895 538 895 568 q 880 474 895 505 q 840 419 865 444 q 783 373 815 395 q 717 334 751 351 q 649 307 683 318 q 587 289 615 295 q 538 283 558 283 q 534 245 534 274 q 538 201 534 222 q 552 160 543 180 q 581 128 562 140 q 627 116 600 116 q 647 119 636 116 q 668 126 658 121 q 688 136 677 130 q 708 149 699 142 q 726 163 717 156 q 742 177 735 171 q 756 191 749 184 q 767 202 763 197 q 775 210 772 206 q 779 214 778 214 q 786 210 782 214 q 792 200 789 206 q 797 188 795 195 q 800 177 799 182 q 801 169 801 172 q 762 127 793 155 q 690 67 730 98 q 602 14 649 37 q 521 -9 554 -9 q 372 86 416 -9 q 261 28 348 68 q 144 -12 174 -12 q 62 15 97 -12 q 14 85 28 43 q 9 172 1 127 m 193 186 q 192 145 189 162 q 206 116 196 127 q 228 99 216 104 q 253 94 240 94 q 307 110 273 94 q 355 137 340 125 q 353 221 351 153 q 361 315 355 290 q 301 296 338 310 q 252 274 263 282 q 214 236 233 262 q 193 186 196 210 m 542 340 q 583 352 559 340 q 629 386 606 364 q 671 435 652 408 q 703 496 690 463 q 715 562 715 530 q 676 621 715 621 q 626 588 650 621 q 585 509 602 555 q 556 417 568 462 q 542 340 545 372 z "},"":{"ha":567,"x_min":22,"x_max":555,"o":"m 22 197 q 44 337 22 266 q 104 468 66 408 q 189 575 142 528 q 292 649 237 622 q 401 676 347 676 q 479 666 442 676 q 533 643 517 656 q 555 568 555 609 q 530 505 555 533 q 471 476 505 476 q 395 532 424 476 q 390 541 393 533 q 384 551 386 548 q 379 561 382 553 q 372 571 375 568 q 365 580 370 574 q 357 589 361 586 q 349 595 353 591 q 339 600 344 598 q 328 601 334 601 q 274 548 301 601 q 230 414 247 495 q 212 256 212 334 q 218 191 212 218 q 237 148 224 164 q 266 123 249 131 q 306 116 283 116 q 326 118 315 116 q 347 125 337 121 q 367 136 357 130 q 387 148 378 142 q 405 162 395 155 q 421 175 414 169 q 435 188 428 182 q 446 199 441 195 q 453 207 450 203 q 456 211 456 211 q 470 196 464 211 q 476 172 476 181 q 450 139 468 159 q 403 93 432 119 q 342 44 374 67 q 273 6 311 22 q 203 -9 235 -9 q 137 4 169 -9 q 80 41 106 16 q 38 106 54 65 q 22 197 22 146 m 36 -217 q 44 -187 36 -199 q 64 -175 53 -175 q 88 -184 76 -175 q 114 -202 100 -193 q 146 -211 128 -211 q 193 -194 174 -211 q 211 -151 211 -176 q 204 -122 211 -134 q 187 -103 197 -109 q 167 -98 178 -98 q 123 -110 150 -98 q 111 -103 120 -110 q 101 -92 101 -97 q 110 -80 101 -89 q 136 -50 118 -71 q 172 -6 155 -28 l 215 -6 l 180 -43 l 206 -43 q 262 -64 237 -43 q 288 -115 288 -84 q 262 -181 288 -151 q 195 -229 236 -212 q 107 -245 153 -245 q 70 -241 92 -245 q 42 -231 49 -236 q 36 -217 36 -224 z "},"":{"ha":593,"x_min":24,"x_max":570,"o":"m 24 211 q 40 322 24 265 q 84 431 56 380 q 149 527 111 481 q 228 605 186 572 q 315 657 270 637 q 404 676 361 676 q 443 673 423 676 q 481 664 462 670 q 516 646 500 657 q 544 621 532 635 q 564 584 557 606 q 570 538 570 563 q 551 465 570 500 q 499 402 531 429 q 427 352 467 375 q 348 314 388 329 q 273 291 308 300 q 214 283 237 283 q 211 245 211 274 q 215 201 211 222 q 228 160 219 180 q 257 128 237 140 q 302 116 276 116 q 323 119 313 116 q 344 126 334 121 q 365 136 354 130 q 384 149 375 142 q 402 163 393 156 q 419 177 412 171 q 433 191 426 184 q 444 202 439 197 q 451 210 448 206 q 454 214 454 214 q 471 196 464 214 q 477 169 477 178 q 438 127 469 155 q 366 67 407 98 q 278 14 325 37 q 197 -9 231 -9 q 105 17 144 -9 q 45 92 66 42 q 24 211 24 142 m 218 340 q 270 360 240 340 q 327 409 300 379 q 373 480 354 439 q 391 562 391 522 q 352 621 391 621 q 311 598 332 621 q 276 544 291 576 q 248 472 260 511 q 228 399 235 433 q 218 340 220 365 m 233 914 q 245 948 233 933 q 272 969 257 962 q 301 976 288 976 q 320 975 311 976 q 337 970 330 973 q 348 965 345 968 q 433 861 378 937 q 492 771 488 785 q 479 753 490 761 q 444 767 471 755 q 381 797 416 779 q 313 836 346 816 q 256 878 279 857 q 233 914 233 899 z "},"":{"ha":593,"x_min":24,"x_max":604,"o":"m 24 211 q 40 322 24 265 q 84 431 56 380 q 149 527 111 481 q 228 605 186 572 q 315 657 270 637 q 404 676 361 676 q 443 673 423 676 q 481 664 462 670 q 516 646 500 657 q 544 621 532 635 q 564 584 557 606 q 570 538 570 563 q 551 465 570 500 q 499 402 531 429 q 427 352 467 375 q 348 314 388 329 q 273 291 308 300 q 214 283 237 283 q 211 245 211 274 q 215 201 211 222 q 228 160 219 180 q 257 128 237 140 q 302 116 276 116 q 323 119 313 116 q 344 126 334 121 q 365 136 354 130 q 384 149 375 142 q 402 163 393 156 q 419 177 412 171 q 433 191 426 184 q 444 202 439 197 q 451 210 448 206 q 454 214 454 214 q 471 196 464 214 q 477 169 477 178 q 438 127 469 155 q 366 67 407 98 q 278 14 325 37 q 197 -9 231 -9 q 105 17 144 -9 q 45 92 66 42 q 24 211 24 142 m 218 340 q 270 360 240 340 q 327 409 300 379 q 373 480 354 439 q 391 562 391 522 q 352 621 391 621 q 311 598 332 621 q 276 544 291 576 q 248 472 260 511 q 228 399 235 433 q 218 340 220 365 m 345 771 q 373 817 347 779 q 434 901 399 856 q 490 965 469 945 q 507 973 494 970 q 536 976 521 976 q 581 959 559 976 q 604 914 604 942 q 569 868 604 896 q 491 815 535 840 q 408 773 446 791 q 358 753 370 755 q 345 771 347 761 z "},"":{"ha":593,"x_min":24,"x_max":574,"o":"m 24 211 q 40 322 24 265 q 84 431 56 380 q 149 527 111 481 q 228 605 186 572 q 315 657 270 637 q 404 676 361 676 q 443 673 423 676 q 481 664 462 670 q 516 646 500 657 q 544 621 532 635 q 564 584 557 606 q 570 538 570 563 q 551 465 570 500 q 499 402 531 429 q 427 352 467 375 q 348 314 388 329 q 273 291 308 300 q 214 283 237 283 q 211 245 211 274 q 215 201 211 222 q 228 160 219 180 q 257 128 237 140 q 302 116 276 116 q 323 119 313 116 q 344 126 334 121 q 365 136 354 130 q 384 149 375 142 q 402 163 393 156 q 419 177 412 171 q 433 191 426 184 q 444 202 439 197 q 451 210 448 206 q 454 214 454 214 q 471 196 464 214 q 477 169 477 178 q 438 127 469 155 q 366 67 407 98 q 278 14 325 37 q 197 -9 231 -9 q 105 17 144 -9 q 45 92 66 42 q 24 211 24 142 m 218 340 q 270 360 240 340 q 327 409 300 379 q 373 480 354 439 q 391 562 391 522 q 352 621 391 621 q 311 598 332 621 q 276 544 291 576 q 248 472 260 511 q 228 399 235 433 q 218 340 220 365 m 247 739 q 240 752 242 741 q 241 774 239 762 q 318 857 257 790 q 426 977 380 924 q 431 982 428 979 q 435 986 434 985 q 439 989 437 987 q 443 991 441 991 q 446 992 444 992 q 463 977 454 992 q 498 909 479 945 q 531 849 517 873 q 558 802 545 824 q 574 774 570 780 q 566 752 571 762 q 555 739 561 741 q 423 860 465 813 q 329 792 387 832 q 247 739 271 753 z "},"":{"ha":593,"x_min":24,"x_max":631,"o":"m 24 211 q 40 322 24 265 q 84 431 56 380 q 149 527 111 481 q 228 605 186 572 q 315 657 270 637 q 404 676 361 676 q 443 673 423 676 q 481 664 462 670 q 516 646 500 657 q 544 621 532 635 q 564 584 557 606 q 570 538 570 563 q 551 465 570 500 q 499 402 531 429 q 427 352 467 375 q 348 314 388 329 q 273 291 308 300 q 214 283 237 283 q 211 245 211 274 q 215 201 211 222 q 228 160 219 180 q 257 128 237 140 q 302 116 276 116 q 323 119 313 116 q 344 126 334 121 q 365 136 354 130 q 384 149 375 142 q 402 163 393 156 q 419 177 412 171 q 433 191 426 184 q 444 202 439 197 q 451 210 448 206 q 454 214 454 214 q 471 196 464 214 q 477 169 477 178 q 438 127 469 155 q 366 67 407 98 q 278 14 325 37 q 197 -9 231 -9 q 105 17 144 -9 q 45 92 66 42 q 24 211 24 142 m 164 876 q 187 928 170 905 q 230 966 204 952 q 281 980 255 980 q 344 950 322 980 q 358 876 366 920 q 316 802 351 833 q 241 771 281 771 q 178 802 201 771 q 164 876 156 833 m 218 340 q 270 360 240 340 q 327 409 300 379 q 373 480 354 439 q 391 562 391 522 q 352 621 391 621 q 311 598 332 621 q 276 544 291 576 q 248 472 260 511 q 228 399 235 433 q 218 340 220 365 m 427 876 q 471 949 435 919 q 547 980 506 980 q 609 950 587 980 q 623 876 631 920 q 600 824 618 848 q 557 785 583 800 q 505 771 531 771 q 442 802 464 771 q 427 876 420 833 z "},"":{"ha":467,"x_min":28,"x_max":437,"o":"m 28 495 q 65 544 39 514 q 124 604 91 574 q 195 655 157 633 q 262 676 233 676 q 335 648 308 676 q 363 569 363 620 q 349 479 363 547 l 294 199 q 292 185 293 196 q 289 163 290 174 q 288 149 288 153 q 290 135 288 142 q 297 123 292 128 q 309 117 302 117 q 369 156 330 117 q 416 210 409 195 q 430 193 422 210 q 437 169 437 177 q 399 120 427 150 q 338 60 372 90 q 265 9 304 31 q 197 -12 226 -12 q 130 14 157 -12 q 102 95 102 41 q 107 141 102 109 q 116 185 113 173 l 172 465 q 176 490 173 471 q 179 515 179 510 q 173 536 179 526 q 157 547 167 547 q 96 508 136 547 q 50 454 56 469 q 36 471 43 454 q 28 495 28 487 m 117 914 q 140 959 117 942 q 185 976 163 976 q 204 975 195 976 q 222 970 214 973 q 232 965 229 968 q 317 861 262 937 q 376 771 372 785 q 363 753 375 761 q 328 767 355 755 q 266 797 301 779 q 197 836 230 816 q 140 878 163 857 q 117 914 117 899 z "},"":{"ha":467,"x_min":28,"x_max":456,"o":"m 28 495 q 65 544 39 514 q 124 604 91 574 q 195 655 157 633 q 262 676 233 676 q 335 648 308 676 q 363 569 363 620 q 349 479 363 547 l 294 199 q 292 185 293 196 q 289 163 290 174 q 288 149 288 153 q 290 135 288 142 q 297 123 292 128 q 309 117 302 117 q 369 156 330 117 q 416 210 409 195 q 430 193 422 210 q 437 169 437 177 q 399 120 427 150 q 338 60 372 90 q 265 9 304 31 q 197 -12 226 -12 q 130 14 157 -12 q 102 95 102 41 q 107 141 102 109 q 116 185 113 173 l 172 465 q 176 490 173 471 q 179 515 179 510 q 173 536 179 526 q 157 547 167 547 q 96 508 136 547 q 50 454 56 469 q 36 471 43 454 q 28 495 28 487 m 197 771 q 256 861 201 785 q 342 965 311 937 q 360 973 347 970 q 389 976 374 976 q 417 969 402 976 q 445 948 433 962 q 456 914 456 933 q 422 868 456 896 q 343 815 387 840 q 260 773 298 791 q 211 753 222 755 q 197 771 199 761 z "},"":{"ha":467,"x_min":28,"x_max":441,"o":"m 28 495 q 65 544 39 514 q 124 604 91 574 q 195 655 157 633 q 262 676 233 676 q 335 648 308 676 q 363 569 363 620 q 349 479 363 547 l 294 199 q 292 185 293 196 q 289 163 290 174 q 288 149 288 153 q 290 135 288 142 q 297 123 292 128 q 309 117 302 117 q 369 156 330 117 q 416 210 409 195 q 430 193 422 210 q 437 169 437 177 q 399 120 427 150 q 338 60 372 90 q 265 9 304 31 q 197 -12 226 -12 q 130 14 157 -12 q 102 95 102 41 q 107 141 102 109 q 116 185 113 173 l 172 465 q 176 490 173 471 q 179 515 179 510 q 173 536 179 526 q 157 547 167 547 q 96 508 136 547 q 50 454 56 469 q 36 471 43 454 q 28 495 28 487 m 115 739 q 108 752 110 741 q 109 774 106 762 q 186 857 125 790 q 294 977 248 924 q 298 982 295 979 q 303 986 302 985 q 306 989 304 987 q 310 991 309 991 q 313 992 311 992 q 330 977 322 992 q 376 891 351 936 q 419 813 401 846 q 441 774 438 780 q 437 759 439 766 q 430 746 434 751 q 423 739 427 741 q 290 860 333 813 q 197 792 255 832 q 115 739 139 753 z "},"":{"ha":467,"x_min":28,"x_max":550,"o":"m 28 495 q 65 544 39 514 q 124 604 91 574 q 195 655 157 633 q 262 676 233 676 q 335 648 308 676 q 363 569 363 620 q 349 479 363 547 l 294 199 q 292 185 293 196 q 289 163 290 174 q 288 149 288 153 q 290 135 288 142 q 297 123 292 128 q 309 117 302 117 q 369 156 330 117 q 416 210 409 195 q 430 193 422 210 q 437 169 437 177 q 399 120 427 150 q 338 60 372 90 q 265 9 304 31 q 197 -12 226 -12 q 130 14 157 -12 q 102 95 102 41 q 107 141 102 109 q 116 185 113 173 l 172 465 q 176 490 173 471 q 179 515 179 510 q 173 536 179 526 q 157 547 167 547 q 96 508 136 547 q 50 454 56 469 q 36 471 43 454 q 28 495 28 487 m 87 875 q 129 946 95 916 q 201 976 162 976 q 262 946 240 976 q 277 875 285 916 q 255 823 272 847 q 214 783 239 798 q 164 768 190 768 q 102 800 124 768 q 87 875 79 832 m 355 875 q 397 946 363 916 q 470 976 430 976 q 514 962 495 976 q 542 925 533 949 q 545 875 550 902 q 523 823 540 847 q 482 783 507 798 q 432 768 458 768 q 386 783 406 768 q 358 823 366 798 q 355 875 350 847 z "},"":{"ha":696,"x_min":24,"x_max":644,"o":"m 32 151 q 28 169 32 151 q 25 226 24 187 q 33 307 25 265 q 69 408 43 355 q 133 508 95 460 q 216 593 172 555 q 311 653 260 631 q 408 676 361 676 q 470 671 438 676 q 408 863 470 779 l 260 766 q 247 814 238 806 l 376 901 q 218 1015 317 964 q 225 1036 220 1025 q 238 1046 231 1046 q 439 941 345 1018 l 623 1061 q 637 1035 631 1050 q 638 1015 644 1020 l 477 909 q 532 848 507 880 q 578 777 557 815 q 613 696 599 739 q 635 606 627 653 q 641 505 642 559 q 628 396 639 452 q 568 239 612 315 q 468 109 524 162 q 351 22 412 55 q 239 -11 290 -11 q 158 1 195 -11 q 97 35 122 14 q 56 86 73 57 q 32 151 39 115 m 223 316 q 212 128 202 205 q 260 51 221 51 q 331 90 297 51 q 390 190 365 128 q 429 327 414 252 q 452 467 442 393 q 459 555 463 541 q 391 616 446 616 q 331 589 359 616 q 282 518 302 563 q 247 423 262 473 q 223 316 233 373 z "},"":{"ha":806,"x_min":16,"x_max":769,"o":"m 16 495 q 53 544 26 514 q 112 604 79 574 q 183 655 145 633 q 250 676 221 676 q 323 648 296 676 q 351 569 351 620 q 337 479 351 547 q 335 465 336 473 q 331 447 333 456 q 327 430 328 438 q 323 417 325 422 q 322 412 322 412 q 390 526 345 465 q 488 631 435 587 q 576 676 541 676 q 620 671 602 676 q 651 655 639 665 q 671 628 664 644 q 682 592 679 612 q 685 545 685 572 q 683 510 685 530 q 676 465 681 490 q 669 422 672 439 q 661 380 666 405 q 655 351 656 355 l 627 199 q 623 174 625 194 q 621 149 621 155 q 622 138 621 144 q 625 128 623 133 q 632 120 627 123 q 642 117 636 117 q 702 156 663 117 q 748 210 741 195 q 758 201 753 210 q 766 183 764 193 q 769 169 769 174 q 732 120 760 150 q 671 60 705 90 q 598 9 637 31 q 530 -12 559 -12 q 462 14 489 -12 q 435 95 435 41 q 440 141 435 109 q 449 185 446 173 l 484 364 q 494 424 487 379 q 501 479 501 468 q 495 501 501 491 q 477 511 489 511 q 433 478 461 511 q 375 396 405 446 q 317 276 345 346 q 274 137 289 205 l 244 0 q 203 -6 233 -3 q 160 -9 174 -9 q 115 -6 146 -9 q 71 0 83 -3 l 159 465 q 162 479 160 469 q 165 500 164 489 q 167 515 167 511 q 161 536 167 526 q 144 547 155 547 q 84 508 123 547 q 38 454 45 469 q 23 471 31 454 q 16 495 16 487 m 237 791 q 268 854 241 823 q 390 911 323 911 q 477 887 432 911 q 499 874 485 883 q 523 860 514 865 q 547 851 532 855 q 578 846 562 846 q 594 848 586 846 q 610 853 602 850 q 624 860 617 857 q 637 869 631 864 q 649 879 644 875 q 660 889 654 883 q 668 898 665 895 q 674 906 670 901 q 679 911 679 911 q 690 892 691 907 q 656 828 686 861 q 536 771 602 771 q 492 777 511 771 q 450 795 473 783 q 435 804 444 798 q 420 813 426 809 q 404 821 414 817 q 387 829 395 826 q 368 833 378 831 q 347 836 357 836 q 332 834 339 836 q 318 830 324 833 q 304 824 311 827 q 292 816 298 820 q 281 808 287 812 q 271 799 275 803 q 262 790 267 795 q 255 782 258 785 q 250 775 253 779 q 245 771 246 772 q 237 791 235 774 z "},"":{"ha":685,"x_min":22,"x_max":634,"o":"m 22 214 q 39 323 22 267 q 83 430 55 380 q 149 526 111 481 q 230 605 187 572 q 320 657 273 637 q 411 676 367 676 q 483 670 450 676 q 544 647 515 663 q 592 605 572 631 q 623 540 611 580 q 634 447 634 500 q 617 338 634 394 q 571 232 600 282 q 504 138 543 182 q 421 61 465 93 q 330 10 378 28 q 238 -9 282 -9 q 82 50 142 -9 q 22 214 22 108 m 211 189 q 262 51 211 51 q 338 94 302 51 q 396 202 374 138 q 432 338 419 267 q 446 470 446 410 q 446 491 446 483 q 445 513 446 498 q 443 538 444 528 q 439 561 441 548 q 433 583 437 574 q 424 600 429 591 q 411 612 419 608 q 395 616 404 616 q 318 572 354 616 q 260 464 283 529 q 224 325 237 398 q 211 189 211 252 m 237 914 q 249 948 237 933 q 275 969 260 962 q 304 976 290 976 q 333 973 319 976 q 351 965 347 970 q 436 861 381 937 q 495 771 491 785 q 481 753 494 761 q 447 767 473 755 q 384 797 420 779 q 315 836 349 816 q 259 878 282 857 q 237 914 237 899 z "},"":{"ha":685,"x_min":22,"x_max":634,"o":"m 22 214 q 39 323 22 267 q 83 430 55 380 q 149 526 111 481 q 230 605 187 572 q 320 657 273 637 q 411 676 367 676 q 483 670 450 676 q 544 647 515 663 q 592 605 572 631 q 623 540 611 580 q 634 447 634 500 q 617 338 634 394 q 571 232 600 282 q 504 138 543 182 q 421 61 465 93 q 330 10 378 28 q 238 -9 282 -9 q 82 50 142 -9 q 22 214 22 108 m 211 189 q 262 51 211 51 q 338 94 302 51 q 396 202 374 138 q 432 338 419 267 q 446 470 446 410 q 446 491 446 483 q 445 513 446 498 q 443 538 444 528 q 439 561 441 548 q 433 583 437 574 q 424 600 429 591 q 411 612 419 608 q 395 616 404 616 q 318 572 354 616 q 260 464 283 529 q 224 325 237 398 q 211 189 211 252 m 352 771 q 411 861 357 785 q 497 965 466 937 q 515 973 501 970 q 543 976 528 976 q 572 969 557 976 q 599 948 587 962 q 611 914 611 933 q 577 868 611 896 q 498 815 543 840 q 415 773 454 791 q 366 753 377 755 q 352 771 354 761 z "},"":{"ha":685,"x_min":22,"x_max":634,"o":"m 22 214 q 39 323 22 267 q 83 430 55 380 q 149 526 111 481 q 230 605 187 572 q 320 657 273 637 q 411 676 367 676 q 483 670 450 676 q 544 647 515 663 q 592 605 572 631 q 623 540 611 580 q 634 447 634 500 q 617 338 634 394 q 571 232 600 282 q 504 138 543 182 q 421 61 465 93 q 330 10 378 28 q 238 -9 282 -9 q 82 50 142 -9 q 22 214 22 108 m 211 189 q 262 51 211 51 q 338 94 302 51 q 396 202 374 138 q 432 338 419 267 q 446 470 446 410 q 446 491 446 483 q 445 513 446 498 q 443 538 444 528 q 439 561 441 548 q 433 583 437 574 q 424 600 429 591 q 411 612 419 608 q 395 616 404 616 q 318 572 354 616 q 260 464 283 529 q 224 325 237 398 q 211 189 211 252 m 285 739 q 278 752 280 741 q 279 774 276 762 q 356 857 295 790 q 464 977 418 924 q 469 982 465 979 q 473 986 472 985 q 476 989 474 987 q 480 991 478 991 q 484 992 481 992 q 500 977 492 992 q 536 909 516 945 q 569 849 555 873 q 595 802 583 824 q 611 774 608 780 q 604 752 609 762 q 593 739 599 741 q 460 860 503 813 q 367 792 425 832 q 285 739 309 753 z "},"":{"ha":685,"x_min":22,"x_max":660,"o":"m 22 214 q 39 323 22 267 q 83 430 55 380 q 149 526 111 481 q 230 605 187 572 q 320 657 273 637 q 411 676 367 676 q 483 670 450 676 q 544 647 515 663 q 592 605 572 631 q 623 540 611 580 q 634 447 634 500 q 617 338 634 394 q 571 232 600 282 q 504 138 543 182 q 421 61 465 93 q 330 10 378 28 q 238 -9 282 -9 q 82 50 142 -9 q 22 214 22 108 m 205 791 q 237 854 209 823 q 358 911 292 911 q 446 887 400 911 q 468 874 454 883 q 491 860 482 865 q 516 851 500 855 q 547 846 531 846 q 563 848 555 846 q 578 853 570 850 q 592 860 586 857 q 606 869 599 864 q 617 879 612 875 q 628 889 622 883 q 636 898 633 895 q 643 906 639 901 q 648 911 647 911 q 658 892 660 907 q 625 828 654 861 q 505 771 570 771 q 460 777 479 771 q 418 795 441 783 q 397 808 414 798 q 371 822 380 818 q 347 831 363 827 q 315 836 330 836 q 298 834 307 836 q 283 829 290 832 q 269 822 275 825 q 256 812 262 818 q 244 803 249 807 q 234 793 239 799 q 225 784 228 787 q 218 776 222 781 q 214 771 214 771 q 205 791 203 774 m 211 189 q 262 51 211 51 q 338 94 302 51 q 396 202 374 138 q 432 338 419 267 q 446 470 446 410 q 446 491 446 483 q 445 513 446 498 q 443 538 444 528 q 439 561 441 548 q 433 583 437 574 q 424 600 429 591 q 411 612 419 608 q 395 616 404 616 q 318 572 354 616 q 260 464 283 529 q 224 325 237 398 q 211 189 211 252 z "},"":{"ha":685,"x_min":22,"x_max":634,"o":"m 22 214 q 39 323 22 267 q 83 430 55 380 q 149 526 111 481 q 230 605 187 572 q 320 657 273 637 q 411 676 367 676 q 483 670 450 676 q 544 647 515 663 q 592 605 572 631 q 623 540 611 580 q 634 447 634 500 q 617 338 634 394 q 571 232 600 282 q 504 138 543 182 q 421 61 465 93 q 330 10 378 28 q 238 -9 282 -9 q 82 50 142 -9 q 22 214 22 108 m 164 876 q 187 928 170 905 q 230 966 204 952 q 281 980 255 980 q 344 950 322 980 q 358 876 366 920 q 316 802 351 833 q 241 771 281 771 q 178 802 201 771 q 164 876 156 833 m 211 189 q 262 51 211 51 q 338 94 302 51 q 396 202 374 138 q 432 338 419 267 q 446 470 446 410 q 446 491 446 483 q 445 513 446 498 q 443 538 444 528 q 439 561 441 548 q 433 583 437 574 q 424 600 429 591 q 411 612 419 608 q 395 616 404 616 q 318 572 354 616 q 260 464 283 529 q 224 325 237 398 q 211 189 211 252 m 427 876 q 471 949 435 919 q 547 980 506 980 q 609 950 587 980 q 623 876 631 920 q 600 824 618 848 q 557 785 583 800 q 505 771 531 771 q 442 802 464 771 q 427 876 420 833 z "},"":{"ha":805,"x_min":69,"x_max":726,"o":"m 69 348 q 92 412 69 383 l 721 412 q 726 401 726 412 q 706 336 726 357 l 77 336 q 69 348 69 336 m 269 73 q 295 140 269 111 q 358 169 321 169 q 407 149 388 169 q 426 98 426 128 q 399 30 426 60 q 336 0 372 0 q 288 21 307 0 q 269 73 269 41 m 379 652 q 386 688 379 670 q 405 719 393 705 q 434 740 417 732 q 468 748 450 748 q 517 728 498 748 q 536 677 536 708 q 509 610 536 640 q 446 580 482 580 q 398 601 416 580 q 379 652 379 621 z "},"":{"ha":685,"x_min":22,"x_max":634,"o":"m 22 214 q 39 323 22 267 q 83 430 55 380 q 149 526 111 481 q 230 605 187 572 q 320 657 273 637 q 411 676 367 676 q 483 670 450 676 q 544 647 515 663 q 592 605 572 631 q 623 540 611 580 q 634 447 634 500 q 617 338 634 394 q 571 232 600 282 q 504 138 543 182 q 421 61 465 93 q 330 10 378 28 q 238 -9 282 -9 q 82 50 142 -9 q 22 214 22 108 m 123 -12 l 503 691 q 528 687 512 691 q 545 676 544 682 l 165 -28 q 142 -25 157 -30 q 123 -12 127 -20 m 211 189 q 262 51 211 51 q 338 94 302 51 q 396 202 374 138 q 432 338 419 267 q 446 470 446 410 q 446 491 446 483 q 445 513 446 498 q 443 538 444 528 q 439 561 441 548 q 433 583 437 574 q 424 600 429 591 q 411 612 419 608 q 395 616 404 616 q 318 572 354 616 q 260 464 283 529 q 224 325 237 398 q 211 189 211 252 z "},"":{"ha":802,"x_min":11,"x_max":759,"o":"m 11 495 q 46 544 20 514 q 106 604 73 574 q 177 655 139 633 q 244 676 215 676 q 317 648 290 676 q 345 569 345 620 q 331 479 345 547 l 296 300 q 279 185 279 191 q 281 170 279 177 q 289 158 283 163 q 302 153 295 153 q 348 192 319 153 q 408 287 377 230 q 467 419 439 344 q 509 560 496 494 l 530 664 q 570 670 541 667 q 614 673 600 673 q 640 672 623 673 q 676 668 658 671 q 703 664 694 666 l 616 199 q 610 149 610 169 q 612 135 610 142 q 619 123 614 128 q 631 117 624 117 q 692 156 652 117 q 738 210 731 195 q 748 201 743 210 q 756 183 753 193 q 759 169 759 174 q 722 120 749 150 q 660 60 694 90 q 587 9 626 31 q 519 -12 548 -12 q 452 14 479 -12 q 425 95 425 41 q 435 170 425 112 q 453 250 444 215 q 375 129 425 191 q 273 27 325 67 q 190 -12 221 -12 q 115 17 134 -12 q 95 117 95 46 q 123 307 95 159 q 134 358 127 327 q 145 414 140 390 q 153 465 149 437 q 158 490 155 471 q 161 515 161 510 q 155 536 161 526 q 138 547 149 547 q 78 508 117 547 q 32 454 39 469 q 18 471 24 454 q 11 495 11 487 m 267 914 q 289 959 267 942 q 334 976 311 976 q 354 975 344 976 q 371 970 363 973 q 381 965 378 968 q 467 861 412 937 q 526 771 522 785 q 512 753 524 761 q 463 773 500 755 q 380 815 425 791 q 301 868 336 840 q 267 914 267 896 z "},"":{"ha":802,"x_min":11,"x_max":759,"o":"m 11 495 q 46 544 20 514 q 106 604 73 574 q 177 655 139 633 q 244 676 215 676 q 317 648 290 676 q 345 569 345 620 q 331 479 345 547 l 296 300 q 279 185 279 191 q 281 170 279 177 q 289 158 283 163 q 302 153 295 153 q 348 192 319 153 q 408 287 377 230 q 467 419 439 344 q 509 560 496 494 l 530 664 q 570 670 541 667 q 614 673 600 673 q 640 672 623 673 q 676 668 658 671 q 703 664 694 666 l 616 199 q 610 149 610 169 q 612 135 610 142 q 619 123 614 128 q 631 117 624 117 q 692 156 652 117 q 738 210 731 195 q 748 201 743 210 q 756 183 753 193 q 759 169 759 174 q 722 120 749 150 q 660 60 694 90 q 587 9 626 31 q 519 -12 548 -12 q 452 14 479 -12 q 425 95 425 41 q 435 170 425 112 q 453 250 444 215 q 375 129 425 191 q 273 27 325 67 q 190 -12 221 -12 q 115 17 134 -12 q 95 117 95 46 q 123 307 95 159 q 134 358 127 327 q 145 414 140 390 q 153 465 149 437 q 158 490 155 471 q 161 515 161 510 q 155 536 161 526 q 138 547 149 547 q 78 508 117 547 q 32 454 39 469 q 18 471 24 454 q 11 495 11 487 m 396 771 q 455 861 400 785 q 541 965 510 937 q 559 973 545 970 q 587 976 572 976 q 616 969 601 976 q 643 948 631 962 q 655 914 655 933 q 638 884 655 901 q 597 850 622 867 q 542 816 572 833 q 485 785 512 799 q 437 763 457 772 q 410 753 416 754 q 396 771 397 761 z "},"":{"ha":802,"x_min":11,"x_max":759,"o":"m 11 495 q 46 544 20 514 q 106 604 73 574 q 177 655 139 633 q 244 676 215 676 q 317 648 290 676 q 345 569 345 620 q 331 479 345 547 l 296 300 q 279 185 279 191 q 281 170 279 177 q 289 158 283 163 q 302 153 295 153 q 348 192 319 153 q 408 287 377 230 q 467 419 439 344 q 509 560 496 494 l 530 664 q 570 670 541 667 q 614 673 600 673 q 640 672 623 673 q 676 668 658 671 q 703 664 694 666 l 616 199 q 610 149 610 169 q 612 135 610 142 q 619 123 614 128 q 631 117 624 117 q 692 156 652 117 q 738 210 731 195 q 748 201 743 210 q 756 183 753 193 q 759 169 759 174 q 722 120 749 150 q 660 60 694 90 q 587 9 626 31 q 519 -12 548 -12 q 452 14 479 -12 q 425 95 425 41 q 435 170 425 112 q 453 250 444 215 q 375 129 425 191 q 273 27 325 67 q 190 -12 221 -12 q 115 17 134 -12 q 95 117 95 46 q 123 307 95 159 q 134 358 127 327 q 145 414 140 390 q 153 465 149 437 q 158 490 155 471 q 161 515 161 510 q 155 536 161 526 q 138 547 149 547 q 78 508 117 547 q 32 454 39 469 q 18 471 24 454 q 11 495 11 487 m 285 739 q 278 752 280 741 q 279 774 276 762 q 356 857 295 790 q 464 977 418 924 q 469 982 465 979 q 473 986 472 985 q 476 989 474 987 q 480 991 478 991 q 484 992 481 992 q 500 977 492 992 q 536 909 516 945 q 569 849 555 873 q 595 802 583 824 q 611 774 608 780 q 604 752 609 762 q 593 739 599 741 q 460 860 503 813 q 367 792 425 832 q 285 739 309 753 z "},"":{"ha":802,"x_min":11,"x_max":759,"o":"m 11 495 q 46 544 20 514 q 106 604 73 574 q 177 655 139 633 q 244 676 215 676 q 317 648 290 676 q 345 569 345 620 q 331 479 345 547 l 296 300 q 279 185 279 191 q 281 170 279 177 q 289 158 283 163 q 302 153 295 153 q 348 192 319 153 q 408 287 377 230 q 467 419 439 344 q 509 560 496 494 l 530 664 q 570 670 541 667 q 614 673 600 673 q 640 672 623 673 q 676 668 658 671 q 703 664 694 666 l 616 199 q 610 149 610 169 q 612 135 610 142 q 619 123 614 128 q 631 117 624 117 q 692 156 652 117 q 738 210 731 195 q 748 201 743 210 q 756 183 753 193 q 759 169 759 174 q 722 120 749 150 q 660 60 694 90 q 587 9 626 31 q 519 -12 548 -12 q 452 14 479 -12 q 425 95 425 41 q 435 170 425 112 q 453 250 444 215 q 375 129 425 191 q 273 27 325 67 q 190 -12 221 -12 q 115 17 134 -12 q 95 117 95 46 q 123 307 95 159 q 134 358 127 327 q 145 414 140 390 q 153 465 149 437 q 158 490 155 471 q 161 515 161 510 q 155 536 161 526 q 138 547 149 547 q 78 508 117 547 q 32 454 39 469 q 18 471 24 454 q 11 495 11 487 m 215 876 q 258 949 223 919 q 333 980 292 980 q 395 950 373 980 q 410 876 418 920 q 367 802 401 833 q 292 771 332 771 q 230 802 252 771 q 215 876 208 833 m 479 876 q 522 949 487 919 q 597 980 557 980 q 660 950 638 980 q 675 876 682 920 q 651 824 669 848 q 608 785 633 800 q 555 771 582 771 q 493 802 515 771 q 479 876 471 833 z "},"":{"ha":754,"x_min":-115,"x_max":709,"o":"m -115 -235 q -100 -192 -115 -216 q -69 -159 -86 -169 q 0 -192 -43 -176 q 80 -208 43 -208 q 127 -202 106 -208 q 162 -190 149 -197 q 183 -174 174 -183 q 196 -160 193 -165 q 200 -151 199 -155 q 205 -133 203 -143 q 208 -110 207 -123 q 211 -86 210 -97 q 212 -57 212 -75 q 213 -30 213 -40 q 214 0 214 -20 q 214 27 214 20 q 214 54 214 34 q 214 77 214 74 q 207 222 214 145 q 188 370 201 298 q 154 489 176 442 q 107 536 133 536 q 78 524 94 536 q 51 497 62 511 q 30 469 40 483 q 20 454 20 455 q 4 473 12 456 q -1 495 -3 490 q 27 536 7 509 q 75 596 47 563 q 137 652 104 629 q 194 676 170 676 q 255 659 227 676 q 302 612 283 642 q 338 543 322 583 q 363 458 354 503 q 380 366 372 414 q 390 272 387 318 q 394 184 392 226 q 396 110 397 142 q 396 55 395 77 q 396 39 396 43 q 444 111 418 66 q 496 211 470 155 q 538 333 522 267 q 555 458 555 399 q 536 528 555 496 q 492 578 516 559 q 526 646 492 615 q 593 676 559 676 q 634 669 615 676 q 671 646 654 661 q 699 602 688 630 q 709 536 709 574 q 669 350 709 452 q 566 155 629 249 q 422 -28 503 62 q 262 -183 342 -117 q 107 -288 182 -248 q -16 -328 33 -328 q -66 -319 -45 -328 q -101 -288 -87 -309 q -115 -235 -115 -266 m 391 771 q 450 861 395 785 q 536 965 505 937 q 554 973 541 970 q 583 976 568 976 q 612 969 597 976 q 638 948 627 962 q 650 914 650 933 q 634 884 650 901 q 592 850 618 867 q 537 816 567 833 q 480 785 507 799 q 432 763 452 772 q 405 753 412 754 q 391 771 393 761 z "},"":{"ha":748,"x_min":-82,"x_max":707,"o":"m -77 -330 q -81 -307 -82 -328 q -74 -281 -79 -285 q -14 -258 -33 -281 q 11 -193 1 -239 l 123 349 l 51 277 q 44 295 47 282 q 41 317 41 309 q 48 341 41 329 q 63 360 55 353 l 140 432 l 224 844 q 238 924 238 905 q 146 953 238 953 q 145 975 142 958 q 152 997 148 992 q 302 1020 210 1002 q 423 1049 395 1039 q 432 1021 432 1044 q 412 908 432 1002 q 378 733 410 890 q 343 562 347 576 q 444 639 380 602 q 560 676 507 676 q 669 626 631 676 q 707 494 707 575 q 688 369 707 433 q 635 251 668 306 q 558 149 602 197 q 466 66 514 100 q 367 12 418 32 q 271 -7 316 -7 q 231 0 248 -7 l 191 -190 q 186 -232 186 -210 q 189 -243 186 -237 q 196 -257 191 -250 q 208 -267 201 -264 q 279 -271 227 -271 q 281 -294 283 -272 q 273 -317 278 -315 q 245 -317 262 -317 q 220 -316 228 -316 q -77 -330 35 -316 m 279 224 q 273 98 263 138 q 313 59 282 59 q 389 102 351 59 q 454 207 427 145 q 497 336 480 269 q 513 450 513 402 q 454 549 513 549 q 331 486 395 549 l 279 224 z "},"":{"ha":754,"x_min":-115,"x_max":709,"o":"m -115 -235 q -100 -192 -115 -216 q -69 -159 -86 -169 q 0 -192 -43 -176 q 80 -208 43 -208 q 127 -202 106 -208 q 162 -190 149 -197 q 183 -174 174 -183 q 196 -160 193 -165 q 200 -151 199 -155 q 205 -133 203 -143 q 208 -110 207 -123 q 211 -86 210 -97 q 212 -57 212 -75 q 213 -30 213 -40 q 214 0 214 -20 q 214 27 214 20 q 214 54 214 34 q 214 77 214 74 q 207 222 214 145 q 188 370 201 298 q 154 489 176 442 q 107 536 133 536 q 78 524 94 536 q 51 497 62 511 q 30 469 40 483 q 20 454 20 455 q 4 473 12 456 q -1 495 -3 490 q 27 536 7 509 q 75 596 47 563 q 137 652 104 629 q 194 676 170 676 q 255 659 227 676 q 302 612 283 642 q 338 543 322 583 q 363 458 354 503 q 380 366 372 414 q 390 272 387 318 q 394 184 392 226 q 396 110 397 142 q 396 55 395 77 q 396 39 396 43 q 444 111 418 66 q 496 211 470 155 q 538 333 522 267 q 555 458 555 399 q 536 528 555 496 q 492 578 516 559 q 526 646 492 615 q 593 676 559 676 q 634 669 615 676 q 671 646 654 661 q 699 602 688 630 q 709 536 709 574 q 669 350 709 452 q 566 155 629 249 q 422 -28 503 62 q 262 -183 342 -117 q 107 -288 182 -248 q -16 -328 33 -328 q -66 -319 -45 -328 q -101 -288 -87 -309 q -115 -235 -115 -266 m 199 876 q 241 949 207 919 q 316 980 275 980 q 379 950 357 980 q 393 876 401 920 q 351 802 385 833 q 275 771 316 771 q 213 802 235 771 q 199 876 191 833 m 463 876 q 505 949 470 919 q 581 980 541 980 q 644 950 622 980 q 658 876 666 920 q 635 824 653 848 q 591 785 617 800 q 539 771 566 771 q 476 802 498 771 q 463 876 454 833 z "},"":{"ha":1474,"x_min":77,"x_max":1450,"o":"m 77 393 q 98 568 77 485 q 158 718 119 652 q 250 839 196 785 q 370 929 304 893 q 511 985 435 965 q 667 1004 587 1004 q 829 997 747 1004 q 959 989 911 989 q 1087 991 985 989 q 1305 996 1190 994 q 1450 1000 1420 999 q 1447 918 1447 945 q 1446 872 1446 897 q 1446 819 1446 848 q 1447 777 1447 791 q 1433 771 1444 774 q 1412 769 1421 769 q 1393 781 1395 769 q 1383 829 1388 809 q 1369 870 1378 850 q 1347 904 1359 891 q 1315 925 1335 917 q 1271 933 1296 933 l 1155 933 q 1106 930 1125 933 q 1081 916 1088 926 q 1075 904 1078 910 q 1070 887 1073 897 q 1066 870 1068 877 q 1062 847 1065 864 q 1057 823 1059 831 l 1004 554 q 1021 543 1003 547 q 1061 538 1038 538 l 1135 538 q 1187 542 1168 538 q 1224 558 1207 545 q 1252 589 1240 570 q 1280 643 1264 608 q 1298 655 1284 655 q 1323 648 1318 655 l 1267 358 q 1240 352 1261 352 q 1224 364 1224 352 q 1217 419 1223 398 q 1206 446 1211 439 q 1192 456 1200 452 q 1088 467 1171 467 q 983 446 987 467 l 938 212 q 937 205 938 212 q 934 190 935 198 q 931 171 932 182 q 928 150 929 161 q 925 129 926 139 q 924 109 924 118 q 926 94 924 100 q 936 80 928 85 q 956 71 944 74 q 982 65 968 67 q 1010 63 996 63 l 1103 63 q 1244 113 1187 63 q 1293 169 1270 136 q 1346 256 1316 201 q 1369 265 1350 265 q 1392 262 1379 265 q 1408 256 1405 259 q 1386 214 1402 245 q 1361 166 1370 183 q 1338 122 1353 150 q 1315 75 1324 94 q 1297 34 1307 56 q 1282 -3 1288 13 l 827 -3 q 643 -9 749 -3 q 447 -15 532 -15 q 300 18 370 -15 q 182 106 231 51 q 105 236 134 161 q 77 393 77 311 m 294 368 q 305 244 294 300 q 338 144 316 189 q 399 75 361 100 q 488 50 437 50 q 596 62 549 50 q 672 97 643 75 q 718 147 701 119 q 741 210 734 175 q 839 711 806 543 q 837 807 848 760 q 792 887 825 854 q 634 939 737 939 q 536 914 583 939 q 453 846 490 889 q 386 747 416 804 q 335 626 355 690 q 304 496 315 562 q 294 368 294 429 z "},"":{"ha":986,"x_min":22,"x_max":964,"o":"m 22 214 q 39 323 22 267 q 83 430 55 380 q 149 526 111 481 q 230 605 187 572 q 320 657 273 637 q 411 676 367 676 q 602 589 549 676 q 796 676 705 676 q 836 673 817 676 q 874 664 854 670 q 909 646 893 657 q 937 621 925 635 q 957 584 949 606 q 964 538 964 563 q 949 474 964 505 q 909 419 934 444 q 852 373 884 395 q 786 334 821 351 q 719 307 752 318 q 656 289 685 295 q 607 283 627 283 q 604 245 604 274 q 608 201 604 222 q 621 160 612 180 q 650 128 631 140 q 696 116 669 116 q 716 119 705 116 q 737 126 727 121 q 757 136 747 130 q 777 149 768 142 q 795 163 786 156 q 811 177 804 171 q 825 191 819 184 q 837 202 832 197 q 844 210 841 206 q 848 214 848 214 q 863 196 857 214 q 870 169 870 178 q 831 127 862 155 q 759 67 800 98 q 671 14 718 37 q 590 -9 623 -9 q 503 14 541 -9 q 444 80 466 37 q 341 15 394 38 q 238 -9 288 -9 q 82 50 142 -9 q 22 214 22 108 m 211 189 q 262 51 211 51 q 338 94 302 51 q 396 202 374 138 q 432 338 419 267 q 446 470 446 410 q 446 491 446 483 q 445 513 446 498 q 443 538 444 528 q 439 561 441 548 q 433 583 437 574 q 424 600 429 591 q 411 612 419 608 q 395 616 404 616 q 318 572 354 616 q 260 464 283 529 q 224 325 237 398 q 211 189 211 252 m 611 340 q 663 360 633 340 q 720 409 693 379 q 766 480 747 439 q 785 562 785 522 q 745 621 785 621 q 695 588 720 621 q 654 509 671 555 q 626 417 637 462 q 611 340 614 372 z "}}}
